<svg width="2505" height="1976" viewBox="0 0 2505 1976" fill="none" xmlns="http://www.w3.org/2000/svg">
<g clip-path="url(#clip0_452_2)">
<path d="M2192.16 1361.89C2504.65 1092.01 2338.77 454.929 2338.77 454.929C2275.35 46.5868 1787.75 135.999 1787.75 135.999C1665.97 157.932 1502.14 125.784 1422.95 107.063C1360.94 92.1413 1297.33 84.8342 1233.55 85.3029C894.73 88.6595 546.999 260.741 546.999 260.741C-83.3013 629.355 174.357 1263.66 174.357 1263.66C174.357 1263.66 297.24 1691.91 1202.18 1664.36C1202.18 1664.36 1780 1717.83 2192.16 1361.89Z" fill="#FFA825"/>
<path opacity="0.7" d="M2192.16 1361.89C2504.65 1092.01 2338.77 454.929 2338.77 454.929C2275.35 46.5868 1787.75 135.999 1787.75 135.999C1665.97 157.932 1502.14 125.784 1422.95 107.063C1360.94 92.1413 1297.33 84.8342 1233.55 85.3029C894.73 88.6595 546.999 260.741 546.999 260.741C-83.3013 629.355 174.357 1263.66 174.357 1263.66C174.357 1263.66 297.24 1691.91 1202.18 1664.36C1202.18 1664.36 1780 1717.83 2192.16 1361.89Z" fill="white"/>
<path d="M2168.87 1198.23L2124.72 1769.37H2152.44L2211.93 1251.76L2596.43 1255.7L2644.17 1720.47L2671.75 1715.58L2640.04 1196.27L2168.87 1198.23Z" fill="#E1E1E2"/>
<path d="M1237.31 1198.23L1193.16 1769.37H1220.87L1280.36 1251.76L1664.87 1255.7L1712.61 1720.47L1740.18 1715.58L1708.47 1196.27L1237.31 1198.23Z" fill="#C2C4C6"/>
<path d="M2319.97 1172.45H1727.28C1716.89 1172.45 1708.47 1180.87 1708.47 1191.26V1205.18C1708.47 1215.57 1716.89 1223.99 1727.28 1223.99H2319.97C2330.35 1223.99 2338.77 1215.57 2338.77 1205.18V1191.26C2338.77 1180.87 2330.35 1172.45 2319.97 1172.45Z" fill="#C2C4C6"/>
<path d="M2255.5 46.5867H229.853C218.906 46.5867 210.033 55.4609 210.033 66.4077V1105.06C210.033 1116.01 218.906 1124.88 229.853 1124.88H2255.5C2266.45 1124.88 2275.32 1116.01 2275.32 1105.06V66.4077C2275.32 55.4609 2266.45 46.5867 2255.5 46.5867Z" fill="#CCCCCC"/>
<path d="M2235.68 46.5867H237.781V1081.27H2235.68V46.5867Z" fill="#EBEBEB"/>
<path d="M1882.89 1442.05H1843.25V1588.72H1882.89V1442.05Z" fill="#5D6166"/>
<path d="M1733.27 1172.45H1211.93C1201.55 1172.45 1193.13 1180.87 1193.13 1191.26V1205.18C1193.13 1215.57 1201.55 1223.99 1211.93 1223.99H1733.27C1743.66 1223.99 1752.08 1215.57 1752.08 1205.18V1191.26C1752.08 1180.87 1743.66 1172.45 1733.27 1172.45Z" fill="#E1E1E2"/>
<path d="M1947.27 871.171H2100.01C2117.06 871.194 2133.41 877.985 2145.45 890.051C2157.5 902.117 2164.27 918.472 2164.27 935.525V1398.5H1915.29C1911.04 1398.5 1906.82 1397.66 1902.89 1396.03C1898.96 1394.4 1895.39 1392.02 1892.38 1389.01C1889.37 1386 1886.98 1382.42 1885.35 1378.49C1883.73 1374.56 1882.89 1370.35 1882.89 1366.09V935.525C1882.89 927.071 1884.55 918.701 1887.79 910.891C1891.02 903.081 1895.77 895.986 1901.75 890.01C1907.72 884.034 1914.82 879.294 1922.63 876.062C1930.44 872.829 1938.81 871.168 1947.27 871.171V871.171Z" fill="#2E3135"/>
<path d="M1645.11 1398.44H2156.43V1461.87H1609.37V1434.18C1609.37 1429.48 1610.3 1424.84 1612.09 1420.5C1613.89 1416.16 1616.52 1412.23 1619.84 1408.91C1623.16 1405.59 1627.1 1402.96 1631.43 1401.16C1635.77 1399.36 1640.41 1398.44 1645.11 1398.44V1398.44Z" fill="#5D6166"/>
<path d="M1907.6 871.171H2060.34C2068.79 871.171 2077.16 872.836 2084.97 876.07C2092.77 879.304 2099.87 884.044 2105.84 890.02C2111.82 895.996 2116.56 903.09 2119.79 910.898C2123.03 918.705 2124.69 927.074 2124.69 935.525V1366.03C2124.69 1370.29 2123.85 1374.5 2122.22 1378.43C2120.59 1382.37 2118.21 1385.94 2115.2 1388.95C2112.19 1391.96 2108.62 1394.34 2104.69 1395.97C2100.75 1397.6 2096.54 1398.44 2092.28 1398.44H1875.65C1867.06 1398.44 1858.82 1395.03 1852.74 1388.95C1846.66 1382.87 1843.25 1374.63 1843.25 1366.03V935.525C1843.25 918.457 1850.03 902.089 1862.1 890.02C1874.16 877.951 1890.53 871.171 1907.6 871.171Z" fill="#3F4347"/>
<path d="M1292.26 14.873H1256.58V1112.99H1292.26V14.873Z" fill="#CCCCCC"/>
<path d="M433.78 1145.86C433.78 1145.86 440.117 1161.51 418.792 1171.5C405.28 1177.86 380.657 1181.88 336.301 1178.18L344.982 367.977L362.718 354.811L452.009 288.664L433.78 1145.86Z" fill="#FFA825"/>
<path opacity="0.3" d="M418.792 1171.38C405.28 1177.75 380.657 1181.77 336.301 1178.06L344.982 367.861L362.718 354.696V906.271C362.726 925.655 364.284 945.007 367.377 964.142C374.986 1012.06 392.347 1105.35 418.792 1171.38Z" fill="white"/>
<path d="M296.256 1145.86C296.256 1145.86 293.363 1176.53 217.932 1172.57C217.932 1172.57 206.185 1182.64 174.531 1179.6V552.472L227.625 492.257L281.384 431.144L296.256 1145.86Z" fill="#FFA825"/>
<path opacity="0.3" d="M221.925 740.353C221.925 740.353 182.285 1065.42 217.932 1172.45C217.932 1172.45 206.184 1182.52 174.531 1179.48V552.472L227.625 492.257C228.985 524.723 230.981 608.029 221.925 740.353Z" fill="white"/>
<path d="M2071.19 645.211C2227.73 645.211 2354.63 518.304 2354.63 361.756C2354.63 205.208 2227.73 78.3003 2071.19 78.3003C1914.65 78.3003 1787.75 205.208 1787.75 361.756C1787.75 518.304 1914.65 645.211 2071.19 645.211Z" fill="#FFA825"/>
<path opacity="0.3" d="M2071.19 645.211C2227.73 645.211 2354.63 518.304 2354.63 361.756C2354.63 205.208 2227.73 78.3003 2071.19 78.3003C1914.65 78.3003 1787.75 205.208 1787.75 361.756C1787.75 518.304 1914.65 645.211 2071.19 645.211Z" fill="white"/>
<path d="M2168.32 296.332C2184.96 293.959 2190.2 303.016 2191.7 310.626C2192.56 315.268 2192.2 320.053 2190.66 324.516L2154.17 437.365C2148.74 454.697 2138.75 470.248 2125.24 482.39C2074.43 527.414 1993.79 530.307 1993.79 530.307C1958.12 506.522 1938.82 476.863 1928.83 449.113C1916.22 413.411 1916.02 374.498 1928.26 338.665L1954.15 260.712C1970.01 217.106 1989.83 236.927 1989.83 236.927C2015.49 259.381 2064.51 253.304 2082.42 250.15C2084.43 249.789 2086.51 249.936 2088.45 250.578C2090.4 251.219 2092.15 252.335 2093.56 253.825C2104.99 266.007 2136.64 296.332 2168.32 296.332Z" fill="#FFA825"/>
<path d="M2040.32 381.316L2012.28 335.656C2008.43 329.377 2002.27 324.855 1995.13 323.06C1987.98 321.264 1980.42 322.337 1974.06 326.049V326.049C1967.7 329.757 1963.05 335.804 1961.09 342.898C1959.13 349.992 1960.03 357.57 1963.58 364.013L2000.62 431.144C2004.16 437.583 2010.02 442.434 2017 444.712C2023.99 446.991 2031.58 446.526 2038.23 443.413L2236.2 350.818C2242.48 347.86 2247.42 342.641 2250.02 336.204C2252.62 329.768 2252.7 322.587 2250.24 316.095V316.095C2248.88 312.567 2246.82 309.355 2244.18 306.657C2241.53 303.96 2238.36 301.834 2234.86 300.412C2231.36 298.991 2227.61 298.303 2223.83 298.393C2220.06 298.482 2216.34 299.347 2212.91 300.933L2040.32 381.316Z" fill="white"/>
<path d="M807.262 1870.18C774.248 1876.66 709.841 1875.97 657.817 1874.23C613.895 1872.7 578.827 1870.18 578.827 1870.18C570.899 1830.54 602.611 1814.57 602.611 1814.57L676.566 1793.15C678.517 1793.77 680.6 1793.82 682.579 1793.31C684.558 1792.8 686.354 1791.74 687.764 1790.26C690.299 1790.25 692.783 1790.97 694.915 1792.34C697.047 1793.71 698.734 1795.67 699.772 1797.99C700.355 1799.02 700.84 1800.1 701.218 1801.23C724.539 1831.41 784.954 1850.42 784.954 1850.42C804.658 1858.29 807.262 1870.18 807.262 1870.18Z" fill="#FFA825"/>
<path opacity="0.2" d="M657.701 1874.23C613.779 1872.7 578.711 1870.18 578.711 1870.18C570.783 1830.54 602.495 1814.57 602.495 1814.57L676.451 1793.15C678.401 1793.77 680.484 1793.82 682.463 1793.31C684.442 1792.8 686.239 1791.74 687.648 1790.26C690.183 1790.25 692.668 1790.97 694.799 1792.34C696.931 1793.71 698.618 1795.67 699.656 1797.99L653.911 1822.61C622.315 1846.4 657.701 1874.23 657.701 1874.23Z" fill="black"/>
<path d="M1703.73 1897.67L1466.06 1890.73C1464.42 1890.67 1462.83 1890.08 1461.56 1889.03C1460.29 1887.98 1459.4 1886.54 1459.03 1884.94C1458.48 1882.71 1458.32 1880.4 1458.57 1878.11C1460.8 1859.1 1494.42 1858.29 1494.42 1858.29C1522.17 1854.32 1569.65 1822.61 1569.65 1822.61C1569.65 1822.61 1592.59 1805.42 1617.21 1798.91C1628.04 1796.02 1639.2 1795.18 1649.04 1798.91L1653.01 1800.65C1663.39 1805.05 1691.43 1815.93 1703.67 1811.04C1712.35 1823.68 1712.78 1869.78 1712.61 1889.16C1712.59 1890.31 1712.34 1891.43 1711.88 1892.48C1711.42 1893.53 1710.76 1894.47 1709.94 1895.26C1709.11 1896.05 1708.14 1896.67 1707.07 1897.09C1706.01 1897.5 1704.87 1897.7 1703.73 1897.67Z" fill="#2F2E41"/>
<path opacity="0.2" d="M1703.73 1897.67L1466.06 1890.73C1464.42 1890.67 1462.83 1890.08 1461.56 1889.03C1460.29 1887.98 1459.4 1886.54 1459.03 1884.94C1458.48 1882.71 1458.32 1880.4 1458.57 1878.11H1547.43C1556.02 1878.03 1564.55 1876.68 1572.74 1874.09C1604.28 1864.31 1652.05 1862.51 1667.65 1862.31C1672.03 1862.31 1676.37 1861.43 1680.41 1859.74C1691.98 1854.73 1691.98 1847.47 1689.64 1842C1687.8 1837.93 1684.77 1834.52 1680.96 1832.22C1652.54 1813.47 1648.87 1798.83 1648.87 1798.83L1652.83 1800.56C1663.22 1804.96 1691.26 1815.84 1703.5 1810.95C1712.18 1823.59 1712.61 1869.69 1712.44 1889.08C1712.41 1891.37 1711.48 1893.56 1709.85 1895.17C1708.22 1896.78 1706.02 1897.68 1703.73 1897.67Z" fill="black"/>
<path d="M759.058 585.748L849.043 560.719L891.605 610.546L1000.25 1050.14C1000.25 1050.14 945.856 1071.67 936.597 1070.39C927.338 1069.12 765.886 1053.41 765.886 1053.41L759.058 585.748Z" fill="#E6E6E6" stroke="#FF0000" stroke-width="0.25" stroke-miterlimit="10"/>
<path d="M876.009 1212.09L828.442 1402.4C821.971 1441.67 812.452 1480.36 799.97 1518.15V1518.15C780.41 1578.23 757.062 1637.01 730.066 1694.14C729.639 1695.11 729.319 1696.13 729.111 1697.17C721.27 1746.63 715.193 1771.74 711.982 1782.97C711.377 1785.16 710.114 1787.1 708.365 1788.55C706.615 1789.99 704.464 1790.86 702.202 1791.04C693.522 1791.85 683.424 1793.65 679.518 1794.34C678.425 1794.56 677.371 1794.94 676.393 1795.47C656.139 1806.2 621.1 1809.3 602.698 1810.17C601.149 1810.22 599.608 1809.95 598.17 1809.37C596.732 1808.8 595.428 1807.93 594.341 1806.83C593.254 1805.72 592.407 1804.41 591.853 1802.96C591.3 1801.51 591.051 1799.97 591.124 1798.42C591.326 1793.91 591.587 1789.39 591.847 1784.91C600.933 1635.69 654.171 1497.34 654.171 1497.34C661.231 1460.36 669.044 1438.23 675.583 1425C685.47 1404.72 691.046 1382.61 691.959 1360.07L698.18 1222.05C698.18 1222.05 814.322 1173.9 849.187 1147.28C849.043 1147.54 887.901 1128.85 876.009 1212.09Z" fill="#2F2E41"/>
<path d="M999.297 1171.38L994.928 1426.19C994.928 1525.3 979.478 1533.77 979.478 1533.77C967.904 1570.06 979.073 1755.22 979.073 1755.22C979.522 1759.92 979.59 1764.65 979.275 1769.37V1769.37C979.275 1769.37 895.858 1767.11 880.002 1703.68C880.002 1703.68 860.587 1671.42 870.28 1598.36C870.28 1598.36 864.146 1526.31 852.254 1499.98C846.385 1451.95 852.58 1403.22 870.28 1358.19C870.28 1358.19 921.928 1175.66 999.297 1171.38Z" fill="#2F2E41"/>
<path d="M870.251 1358.22C852.551 1403.25 846.356 1451.98 852.225 1500.01C864.117 1526.28 870.251 1598.39 870.251 1598.39C860.558 1671.45 879.973 1703.71 879.973 1703.71C895.829 1767.14 979.246 1769.4 979.246 1769.4C977.742 1788.41 968.425 1790.32 961.886 1789.16C959.583 1788.76 957.358 1787.99 955.289 1786.9C915.649 1771.05 891.865 1806.73 891.865 1806.73C890.579 1807.4 889.255 1808 887.901 1808.52C865.767 1817.2 862.15 1796.51 862.468 1780.28C862.628 1767.17 861.582 1754.07 859.343 1741.16C851.357 1692.86 849.043 1613.06 849.043 1613.06C845.889 1490.77 828.442 1402.4 828.442 1402.4L876.009 1212.09C887.901 1128.85 849.043 1147.54 849.043 1147.54C814.177 1174.16 698.036 1222.31 698.036 1222.31L700.003 1178.07L852.139 1019.55C903.641 1049.04 991.022 1005.95 991.022 1005.95L1000.31 1114.75L999.355 1171.38C921.928 1175.66 870.251 1358.22 870.251 1358.22Z" fill="#2F2E41"/>
<path opacity="0.2" d="M870.251 1358.22C852.551 1403.25 846.356 1451.98 852.225 1500.01C864.117 1526.28 870.251 1598.39 870.251 1598.39C860.558 1671.45 879.973 1703.71 879.973 1703.71C895.829 1767.14 979.246 1769.4 979.246 1769.4C977.742 1788.41 968.425 1790.32 961.886 1789.16C959.583 1788.76 957.358 1787.99 955.289 1786.9C915.649 1771.05 891.865 1806.73 891.865 1806.73C890.579 1807.4 889.255 1808 887.901 1808.52C865.767 1817.2 862.15 1796.51 862.468 1780.28C862.628 1767.17 861.582 1754.07 859.343 1741.16C851.357 1692.86 849.043 1613.06 849.043 1613.06C845.889 1490.77 828.442 1402.4 828.442 1402.4L876.009 1212.09C887.901 1128.85 849.043 1147.54 849.043 1147.54C814.177 1174.16 698.036 1222.31 698.036 1222.31L700.003 1178.07L852.139 1019.55C903.641 1049.04 991.022 1005.95 991.022 1005.95L1000.31 1114.75L999.355 1171.38C921.928 1175.66 870.251 1358.22 870.251 1358.22Z" fill="black"/>
<path d="M748.699 485.92C748.699 485.92 749.162 510.428 745.198 518.357C745.198 518.357 767.535 528.976 772.223 497.899L770.718 494.716C770.718 494.716 764.092 501.082 748.699 485.92Z" fill="#2F2E41"/>
<path d="M772.223 497.899C772.223 497.899 780.903 541.911 759.058 563.815C759.058 563.815 776.91 585.748 784.838 601.605C784.838 601.605 872.045 625.391 852.225 573.856L845.397 545.759C845.397 545.759 803.211 560.69 772.223 497.899Z" fill="#F9B499"/>
<path d="M772.223 497.899C772.223 497.899 775.463 511.441 772.223 536.702C772.223 536.702 814.814 561.24 845.397 545.759C845.397 545.759 803.211 560.69 772.223 497.899Z" fill="#F7A48B"/>
<path d="M852.225 1013.88C852.225 1064.14 841.809 1099.45 825.895 1124.07C775.405 1202.2 669.883 1172.45 669.883 1172.45V875.136L634.207 724.496C617.685 631.901 653.477 608.289 665.89 602.965C670.86 600.797 675.692 598.323 680.357 595.558L698.441 585.083L704.922 581.321L714.412 575.794C723.644 570.707 732.265 564.581 740.106 557.536C751.216 547.032 759.202 563.786 759.202 563.786C769.127 573.595 784.982 601.576 784.982 601.576C791.201 612.51 796.635 623.872 801.243 635.576C823.523 690.727 837.469 762.894 844.008 802.449C846.901 820.273 848.406 831.385 848.406 831.385L852.225 1013.88Z" fill="#FFA825"/>
<path d="M1036.01 1114.75C1036.01 1114.75 975.08 1144.7 963.217 1037.67C963.217 1037.67 946.58 928.349 935.382 856.906C932.141 836.101 929.335 818.479 927.541 807.715C927.541 807.715 917.211 760.608 902.976 708.378C900.719 700.045 898.318 691.567 895.916 683.146C883.04 638.441 868.11 594.921 855.148 578.051L849.043 560.69C849.043 560.69 873.318 565.378 913.074 592.953C915.215 594.429 917.385 595.847 919.613 597.612C933.184 604.648 944.915 614.768 953.865 627.161C962.814 639.554 968.733 653.873 971.145 668.968C971.145 668.968 981.069 695.357 991.601 736.591C992.267 739.224 992.961 741.915 993.627 744.693V744.838C1004.28 787.577 1011.33 831.133 1014.72 875.049L1036.01 1114.75Z" fill="#FFA825"/>
<path opacity="0.2" d="M852.225 1013.88C852.225 1064.14 841.809 1099.45 825.895 1124.07C823.349 1063.77 753.155 970.277 753.155 970.277C705.558 910.814 685.739 791.887 685.739 791.887L800.694 744.317C780.874 653.14 698.296 585.17 698.296 585.17L704.777 581.408L801.099 635.663C823.378 690.814 837.324 762.98 843.863 802.536C846.757 820.36 848.261 831.472 848.261 831.472L852.225 1013.88Z" fill="black"/>
<path opacity="0.2" d="M692.422 802.478C692.422 802.478 733.625 916.543 775.434 933.036C780.11 934.733 784.697 936.664 789.178 938.824L839.321 964.866L780.642 944.408C777.749 943.366 774.682 942.441 771.644 941.515C766.523 940.039 754.718 935.322 742.507 921.607C735.177 913.198 729.485 903.492 725.726 892.989L692.422 802.478Z" fill="black"/>
<path opacity="0.2" d="M1036.01 1114.75C1036.01 1114.75 975.08 1144.7 963.217 1037.67C963.217 1037.67 946.58 928.349 935.382 856.906C932.141 836.101 929.335 818.479 927.541 807.715C927.541 807.715 917.211 760.608 902.976 708.378C900.719 700.045 898.318 691.567 895.916 683.146L913.074 592.953C913.074 592.953 943.05 754.994 947.158 860.668C947.158 860.668 952.106 915.299 971.232 931.792C973.021 933.329 975.185 934.366 977.505 934.796C979.825 935.226 982.217 935.035 984.438 934.241C986.66 933.448 988.632 932.081 990.154 930.278C991.677 928.476 992.695 926.303 993.106 923.979C997.619 898.371 1006.56 828.491 990.965 735.52C990.965 735.52 991.167 735.896 991.601 736.591C992.267 739.224 992.961 741.915 993.626 744.693V744.838C1004.28 787.577 1011.33 831.133 1014.72 875.049L1036.01 1114.75Z" fill="black"/>
<path opacity="0.2" d="M799.912 1518.35C780.352 1578.43 757.004 1637.21 730.008 1694.34C729.581 1695.31 729.261 1696.33 729.053 1697.38C721.212 1746.83 715.136 1771.94 711.924 1783.17C711.319 1785.36 710.056 1787.31 708.307 1788.75C706.557 1790.19 704.406 1791.07 702.144 1791.24C693.464 1792.05 683.366 1793.85 679.46 1794.54C678.367 1794.76 677.313 1795.14 676.335 1795.67C656.081 1806.41 621.042 1809.5 602.64 1810.37C601.092 1810.42 599.55 1810.15 598.112 1809.57C596.674 1809 595.37 1808.13 594.283 1807.03C593.196 1805.93 592.349 1804.61 591.795 1803.16C591.242 1801.72 590.993 1800.17 591.066 1798.62C591.269 1794.11 591.529 1789.6 591.789 1785.11C684.089 1795.18 717.537 1683.83 717.537 1683.83L799.912 1518.35Z" fill="black"/>
<path d="M1092.58 1866.36C1059.54 1872.84 995.131 1872.15 943.136 1870.41C899.214 1868.88 864.117 1866.36 864.117 1866.36C856.189 1826.72 887.901 1810.75 887.901 1810.75L961.886 1789.33C963.832 1789.94 965.91 1790 967.884 1789.49C969.858 1788.97 971.649 1787.92 973.054 1786.44C975.591 1786.42 978.078 1787.14 980.212 1788.51C982.345 1789.88 984.031 1791.85 985.062 1794.17C985.661 1795.2 986.156 1796.28 986.538 1797.41C1009.83 1827.59 1070.24 1846.6 1070.24 1846.6C1090.06 1854.32 1092.58 1866.36 1092.58 1866.36Z" fill="#FFA825"/>
<path opacity="0.2" d="M943.252 1870.27C899.33 1868.73 864.233 1866.22 864.233 1866.22C856.305 1826.58 888.017 1810.6 888.017 1810.6L962.001 1789.19C963.947 1789.8 966.025 1789.85 968 1789.34C969.974 1788.83 971.765 1787.77 973.17 1786.3C975.706 1786.27 978.194 1786.99 980.327 1788.37C982.46 1789.74 984.146 1791.7 985.178 1794.02L939.549 1818.59C907.721 1842.43 943.252 1870.27 943.252 1870.27Z" fill="black"/>
<path d="M1092.58 1866.36C1091.11 1886.18 1074.32 1886.18 1074.32 1886.18H891.865C860.038 1886.18 864.117 1866.36 864.117 1866.36C864.117 1866.36 899.214 1868.88 943.136 1870.41C995.131 1872.15 1059.54 1872.7 1092.58 1866.36Z" fill="#2F2E41"/>
<path d="M807.262 1870.18C805.815 1890 789.033 1890 789.033 1890H606.459C574.632 1890 578.711 1870.18 578.711 1870.18C578.711 1870.18 613.779 1872.7 657.701 1874.23C709.725 1876.08 774.132 1876.66 807.262 1870.18Z" fill="#2F2E41"/>
<path d="M945.191 1005.95L965.965 1012.61C1000.4 1023.2 1021.58 1012.61 1021.58 1012.61C1044.26 1027.08 1058.53 1005.95 1058.53 1005.95C1082.45 1017.85 1083.76 1005.23 1082.95 998.171C1082.78 996.947 1082.31 995.783 1081.6 994.775C1080.88 993.768 1079.94 992.948 1078.84 992.384C1066.44 985.919 1055.43 977.069 1046.46 966.341C1030.6 954.449 1036.01 931.242 1036.01 931.242C1045.36 900.107 1036.01 898.458 1036.01 898.458L994.928 938.592C979.073 950.485 950.457 945.189 950.457 945.189L947.361 998.055C947.028 1000.78 946.297 1003.44 945.191 1005.95V1005.95Z" fill="#F9B499"/>
<path d="M950.457 945.161L962.349 946.289C962.349 946.289 959.86 1000.4 975.427 1015.07C965.202 1012.54 955.111 1009.5 945.191 1005.95C946.479 1003.5 947.22 1000.8 947.361 998.026L950.457 945.161Z" fill="#F7A48B"/>
<path d="M1014.14 1005.95C1016.01 1005.87 1017.83 1006.52 1019.22 1007.76C1020.61 1009.01 1021.46 1010.75 1021.58 1012.61C1019.71 1012.7 1017.89 1012.05 1016.5 1010.8C1015.11 1009.56 1014.26 1007.82 1014.14 1005.95V1005.95Z" fill="#F7A48B"/>
<path d="M1038.53 994.062C1043.82 996.518 1048.83 999.525 1053.49 1003.03C1055.09 1004.14 1056.77 1005.1 1058.53 1005.93C1056.49 1006.65 1054.26 1006.65 1052.22 1005.93C1049.27 1004.96 1046.55 1003.42 1044.2 1001.4C1041.85 999.382 1039.93 996.916 1038.53 994.149V994.062Z" fill="#F7A48B"/>
<path d="M1125.74 970.277C1105.92 986.134 1078.81 992.355 1078.81 992.355C1055.66 978.726 1046.46 966.313 1046.46 966.313C1034.57 958.384 1035.12 939.229 1035.12 939.229C1024.3 936.335 1017.76 931.908 1014.17 927.654C1010.84 924.191 1008.87 919.637 1008.64 914.836H1113.96C1109.88 942.527 1125.74 970.277 1125.74 970.277Z" fill="#F9B499"/>
<path d="M1125.74 970.277C1105.92 986.134 1078.81 992.355 1078.81 992.355C1055.66 978.726 1046.46 966.313 1046.46 966.313C1034.57 958.384 1035.12 939.229 1035.12 939.229C1024.3 936.335 1017.76 931.908 1014.17 927.654C1014.17 927.654 1078.17 962.377 1098.08 942.585C1105.51 934.737 1110.95 925.221 1113.93 914.836C1109.88 942.527 1125.74 970.277 1125.74 970.277Z" fill="#F7A48B"/>
<path d="M1684.69 883.064L1631.33 953.581L1597.48 998.287L1573.7 1029.71C1573.7 1029.71 1561.81 1045.57 1534.06 1017.82C1527.58 1012.85 1522 1006.82 1517.54 999.994C1513.28 992.905 1511.55 984.831 1518.2 978.176L1530.09 962.319C1530.09 962.319 1442.89 962.319 1415.14 942.498C1415.14 942.498 1387.71 951.671 1376.25 943.887C1372.61 941.428 1370.46 937.261 1371.53 930.606C1371.98 918.632 1373.31 906.707 1375.5 894.928V894.928C1374.23 896.346 1337.88 936.306 1202.24 959.976H1201.52C1179.09 963.853 1153.95 967.296 1125.8 970.074C1125.8 970.074 1109.94 950.253 1113.91 914.575C1113.91 914.575 1106.56 897.764 1147.9 898.255C1147.9 898.255 1268.53 874.933 1320.06 783.756L1365.08 717.725C1373.95 704.709 1379.64 689.793 1381.69 674.176C1384.93 649.812 1392.69 611.906 1410.48 593.706C1411.92 592.164 1413.5 590.759 1415.2 589.51C1419.69 581.858 1423.66 573.912 1427.09 565.725C1429.3 560.09 1433.1 555.218 1438.02 551.7C1442.95 548.182 1448.79 546.168 1454.84 545.904C1454.84 545.904 1451.1 568.098 1440.17 583.868C1440.03 584.036 1439.91 584.221 1439.82 584.417C1446.65 576.121 1454.93 569.139 1464.27 563.815C1473.54 558.426 1483.82 555.026 1494.48 553.832C1494.48 553.832 1538.08 545.904 1549.97 537.975C1549.97 537.975 1561.86 530.047 1573.76 549.868C1573.76 549.868 1580.41 558.751 1587.12 568.213C1589.32 571.396 1591.58 574.637 1593.58 577.617C1593.58 577.617 1609.43 597.438 1629.25 652.851C1629.25 652.851 1641.14 684.68 1668.89 736.099L1700.72 799.526C1700.72 799.526 1724.47 827.565 1684.69 883.064Z" fill="#2F2E41"/>
<path opacity="0.2" d="M1375.5 894.957C1374.23 896.375 1337.88 936.335 1202.24 960.005C1325.01 937.203 1379.52 696.688 1379.52 696.688C1376.25 765.093 1375.59 809.538 1375.56 835.58V895.044L1375.5 894.957Z" fill="black"/>
<path opacity="0.2" d="M1593.52 577.82C1545.95 569.892 1494.42 605.569 1494.42 605.569C1459.26 637.544 1455.01 611.82 1454.69 600.65C1454.68 598.733 1454.13 596.857 1453.11 595.235C1452.09 593.614 1450.63 592.312 1448.9 591.478C1416.9 577.01 1399.22 760.174 1399.22 760.174C1391.3 720.532 1410.36 628.197 1410.36 628.197C1412.39 616.858 1412.39 605.248 1410.36 593.908C1411.8 592.367 1413.38 590.962 1415.08 589.713C1419.58 582.061 1423.55 574.114 1426.97 565.927C1429.18 560.293 1432.98 555.421 1437.91 551.903C1442.83 548.385 1448.67 546.371 1454.72 546.106C1454.72 546.106 1450.99 568.3 1440.05 584.07C1439.91 584.239 1439.8 584.423 1439.7 584.62C1446.53 576.323 1454.82 569.342 1464.15 564.018C1473.42 558.629 1483.71 555.229 1494.36 554.035C1494.36 554.035 1537.96 546.106 1549.86 538.178C1549.86 538.178 1561.75 530.25 1573.64 550.071C1573.64 550.071 1580.29 558.954 1587.01 568.416C1589.26 571.599 1591.52 574.84 1593.52 577.82Z" fill="black"/>
<path opacity="0.2" d="M1583.04 855.807C1579.13 864.599 1576 873.721 1573.7 883.064L1530.09 962.348C1530.09 962.348 1442.89 962.348 1415.14 942.527C1415.14 942.527 1367.57 958.384 1371.53 930.635C1371.53 930.635 1433.57 915.617 1450.84 886.479C1453.3 882.075 1454.03 876.911 1452.89 871.998C1451.74 867.086 1448.81 862.777 1444.65 859.915C1435.16 853.202 1426.1 843.422 1454.78 843.422C1454.78 843.422 1512.88 858.121 1525.46 797.125C1525.46 797.125 1536.66 743.072 1525.46 713.934C1527 716.336 1576.76 793.218 1587.04 814.11C1587.07 814.255 1604.25 824.672 1583.04 855.807Z" fill="black"/>
<path opacity="0.2" d="M1631.31 953.639L1573.7 1029.74C1573.7 1029.74 1561.81 1045.6 1534.06 1017.85C1527.58 1012.88 1522 1006.85 1517.54 1000.02C1517.54 1000.02 1585.85 996.319 1631.31 953.639Z" fill="black"/>
<path d="M1708.47 1806.75C1707.45 1808.72 1705.73 1810.22 1703.64 1810.95C1691.4 1815.84 1663.36 1804.96 1652.98 1800.56L1649.01 1798.83C1625.23 1782.97 1617.19 1790.9 1617.19 1790.9C1577.55 1806.75 1581.51 1777.85 1581.51 1777.85V1691.79C1557.73 1624.4 1518.09 1564.94 1518.09 1564.94C1518.09 1636.29 1502.23 1659.09 1502.23 1659.09V1806.67C1502 1807.07 1501.74 1807.42 1501.51 1807.82C1499 1811.96 1496.09 1815.83 1492.83 1819.4C1486.39 1827 1477.33 1831.89 1467.45 1833.11C1441.7 1835.78 1416.15 1809.53 1403.48 1793.99C1398.24 1787.57 1395.2 1783 1395.2 1783L1391.24 1632.36C1375.38 1521.36 1371.16 1193.31 1371.16 1193.31C1366.96 1079.36 1376.14 1042.85 1376.14 1042.85V943.916C1387.71 951.7 1415.02 942.527 1415.02 942.527C1442.77 962.348 1529.98 962.348 1529.98 962.348L1518.09 978.205C1511.43 984.86 1513.17 992.934 1517.42 1000.02C1521.88 1006.85 1527.47 1012.88 1533.94 1017.85C1561.69 1045.6 1573.58 1029.74 1573.58 1029.74L1597.48 998.287C1601.05 1008.95 1603.38 1019.99 1604.43 1031.19C1608.82 1073.69 1598.15 1114.72 1598.15 1114.72C1582.93 1195.74 1597.48 1299.31 1597.48 1299.31C1604.83 1325.11 1608.83 1351.76 1609.37 1378.59C1609.37 1410.42 1617.3 1414.27 1617.3 1414.27C1631.78 1436.78 1639.99 1462.75 1641.09 1489.5L1649.01 1513.29C1692.65 1636.29 1708.47 1806.75 1708.47 1806.75Z" fill="#FFA825"/>
<path opacity="0.2" d="M1604.43 1031.22C1571.76 1036.6 1557 1080.72 1557 1080.72C1472.92 1088.1 1462.71 1037.67 1462.71 1037.67C1445.78 998.2 1400.82 982.69 1376.25 977.192V943.916C1387.82 951.7 1415.14 942.527 1415.14 942.527C1442.89 962.348 1530.09 962.348 1530.09 962.348L1518.2 978.205C1511.55 984.86 1513.28 992.934 1517.54 1000.02C1522 1006.85 1527.59 1012.88 1534.06 1017.85C1561.81 1045.6 1573.7 1029.74 1573.7 1029.74L1597.48 998.287C1601.05 1008.96 1603.38 1020.01 1604.43 1031.22V1031.22Z" fill="black"/>
<path d="M1400.82 1118.6L1442.89 1284.14C1442.89 1284.14 1446.85 1295.37 1458.74 1366.73C1458.74 1366.73 1478.56 1497.55 1518.2 1564.94" stroke="#FF0000" stroke-width="0.25" stroke-miterlimit="10"/>
<path opacity="0.2" d="M1518.2 1564.94C1518.2 1636.29 1502.35 1659.09 1502.35 1659.09V1738.15C1490.45 1709.21 1446.85 1584.79 1446.85 1584.79C1407.21 1477.72 1403.68 1129.83 1403.68 1129.83C1411.12 1144.9 1452.43 1325.61 1461.11 1363.69C1462.19 1368.38 1462.91 1373.09 1463.57 1377.84C1482.53 1513.34 1518.2 1564.94 1518.2 1564.94Z" fill="black"/>
<path d="M1649.01 1798.83C1639.29 1795.18 1628.12 1795.93 1617.19 1798.83V1790.84C1617.19 1790.84 1625.23 1782.97 1649.01 1798.83Z" fill="#F9B499"/>
<path d="M1496.88 1897.7L1252.62 1890C1251.26 1888.38 1250.24 1886.5 1249.62 1884.48C1249 1882.46 1248.79 1880.33 1249 1878.23C1249.78 1872.87 1254.5 1866.65 1269.25 1862.17C1283.47 1857.94 1297.22 1852.27 1310.28 1845.24L1403.59 1794.02C1416.27 1809.56 1441.82 1835.81 1467.57 1833.14C1477.45 1831.92 1486.51 1827.03 1492.94 1819.43C1493.17 1821.45 1499.34 1881.84 1496.88 1897.7Z" fill="#2F2E41"/>
<path opacity="0.2" d="M1496.88 1897.7L1252.62 1890C1251.26 1888.38 1250.24 1886.5 1249.62 1884.48C1249 1882.46 1248.79 1880.33 1249 1878.23C1282.65 1878.49 1410.13 1876.4 1467.57 1833.11C1477.45 1831.89 1486.51 1827 1492.94 1819.4C1493.17 1821.45 1499.34 1881.84 1496.88 1897.7Z" fill="black"/>
<path d="M1549.91 538.207C1542.22 543.357 1521.18 548.479 1507.32 551.43C1499.8 553.051 1494.42 554.064 1494.42 554.064C1472.93 556.669 1453.33 567.599 1439.82 584.504C1447.18 572.76 1452.25 559.733 1454.78 546.106C1458.74 542.142 1459.41 519.37 1459.41 519.37L1506.31 454.929L1531.19 447.001L1545.08 484.618L1549.25 495.903L1549.91 538.207Z" fill="#F9B499"/>
<path d="M1459.41 519.37C1459.41 519.37 1460.94 523.131 1457.85 536.731C1467.1 532.928 1475.3 526.941 1481.74 519.282C1488.18 511.623 1492.67 502.519 1494.82 492.749C1494.82 492.749 1478.53 514.393 1459.41 519.37Z" fill="#F7A48B"/>
<path d="M1549.91 538.207C1542.22 543.357 1521.18 548.479 1507.32 551.43C1511.06 546.511 1523.96 539.017 1530.09 535.603C1533.08 534.008 1535.77 531.914 1538.05 529.41C1546.47 519.832 1539.5 514.653 1539.5 514.653C1529.02 506.927 1527.35 487.656 1527.35 487.656L1545.08 484.762L1549.25 496.047L1549.91 538.207Z" fill="#F7A48B"/>
<path d="M843.863 802.478C796.73 653.14 704.777 581.35 704.777 581.35L714.267 575.823C723.499 570.736 732.12 564.61 739.961 557.565C751.072 547.061 759.057 563.815 759.057 563.815C768.982 573.624 784.838 601.605 784.838 601.605C816.723 656.67 835.849 754.039 843.863 802.478Z" fill="#FFA825"/>
<path opacity="0.3" d="M843.863 802.478C796.73 653.14 704.777 581.35 704.777 581.35L714.267 575.823C723.499 570.736 732.12 564.61 739.961 557.565C751.072 547.061 759.057 563.815 759.057 563.815C768.982 573.624 784.838 601.605 784.838 601.605C816.723 656.67 835.849 754.039 843.863 802.478Z" fill="white"/>
<path d="M935.382 856.906C932.142 836.101 929.335 818.479 927.541 807.715C927.541 807.715 885.847 617.983 855.206 578.051L849.101 560.69C849.101 560.69 873.376 565.378 913.132 592.953C913.074 592.982 943.252 775.278 935.382 856.906Z" fill="#FFA825"/>
<path opacity="0.3" d="M935.382 856.906C932.142 836.101 929.335 818.479 927.541 807.715C927.541 807.715 885.847 617.983 855.206 578.051L849.101 560.69C849.101 560.69 873.376 565.378 913.132 592.953C913.074 592.982 943.252 775.278 935.382 856.906Z" fill="white"/>
<path d="M685.739 785.232C685.739 785.232 737.27 926.67 780.874 934.599L892.878 992.644C892.878 992.644 943.397 1033.7 947.361 998.026L951.325 934.628C951.325 934.628 883.069 901.438 843.863 874.441C843.863 874.441 830.612 856.646 817.823 863.417C817.699 863.496 817.552 863.53 817.405 863.513C817.259 863.496 817.124 863.429 817.021 863.324C816.919 863.218 816.857 863.08 816.844 862.934C816.832 862.787 816.871 862.641 816.955 862.52C820.977 856.732 827.4 844.521 822.742 830.69C822.742 830.69 790.22 736.649 789.409 708.726" fill="#FFA825"/>
<path d="M794.155 735.549C801.793 758.235 809.577 783.67 816.81 806.645C819.356 814.515 821.816 822.415 824.709 830.112C826.801 835.679 827.004 841.779 825.288 847.473C823.724 852.995 821.324 858.245 818.17 863.041L816.694 861.189C827.603 858.556 838.192 865.356 843.863 874.297C837.672 866.687 827.429 860.784 817.476 863.59L814.582 864.487C819.067 856.675 823.262 847.994 822.944 838.821C822.908 836.24 822.326 833.696 821.237 831.356C810.157 800.004 801.139 767.962 794.241 735.434L794.155 735.549Z" fill="#FFA825"/>
<path opacity="0.3" d="M794.155 735.549C801.793 758.235 809.577 783.67 816.81 806.645C819.356 814.515 821.816 822.415 824.709 830.112C826.801 835.679 827.004 841.779 825.288 847.473C823.724 852.995 821.324 858.245 818.17 863.041L816.694 861.189C827.603 858.556 838.192 865.356 843.863 874.297C837.672 866.687 827.429 860.784 817.476 863.59L814.582 864.487C819.067 856.675 823.262 847.994 822.944 838.821C822.908 836.24 822.326 833.696 821.237 831.356C810.157 800.004 801.139 767.962 794.241 735.434L794.155 735.549Z" fill="black"/>
<path d="M842.289 546.444C876.619 539.49 895.799 491.14 885.128 438.45C874.456 385.761 837.975 348.684 803.644 355.638C769.314 362.592 750.134 410.943 760.805 463.632C771.476 516.322 807.958 553.398 842.289 546.444Z" fill="#F9B499"/>
<path d="M744.59 460.398C744.59 460.398 709.522 427.18 737.27 395.466C737.27 395.466 735.737 387.538 726.593 395.466C726.593 395.466 725.378 379.609 749.162 387.538C749.162 387.538 745.198 355.708 780.99 343.931C780.99 343.931 773.062 355.824 788.918 351.86C788.918 351.86 831.624 329.058 861.542 331.778C865.663 332.145 869.62 333.568 873.031 335.91C876.441 338.252 879.191 341.433 881.015 345.147C889.55 362.508 903.497 398.938 872.884 402.555C868.368 394.682 863.382 387.087 857.954 379.812C857.954 379.812 864.059 402.671 796.093 403.366C794.504 403.357 792.931 403.682 791.475 404.32C790.02 404.958 788.715 405.895 787.644 407.069C785.069 409.963 782.899 415.027 784.954 423.216C784.954 423.216 788.918 435.108 777.026 439.072C777.026 439.072 783.536 468.847 776.331 479.583L744.59 460.398Z" fill="#2F2E41"/>
<path d="M773.55 493.114C779.289 488.024 777.46 476.59 769.465 467.575C761.47 458.561 750.337 455.379 744.599 460.469C738.86 465.558 740.689 476.993 748.684 486.007C756.679 495.022 767.812 498.204 773.55 493.114Z" fill="#F9B499"/>
<path d="M1587.07 568.416C1536.98 562.976 1490.45 599.348 1490.45 599.348C1458.63 624.841 1464.21 599.348 1464.21 599.348V564.018C1473.48 558.629 1483.77 555.229 1494.42 554.035C1494.42 554.035 1538.02 546.106 1549.91 538.178C1549.91 538.178 1561.81 530.25 1573.7 550.071C1573.7 550.071 1580.35 558.954 1587.07 568.416Z" fill="#FFA825"/>
<path d="M1454.78 546.106C1454.78 546.106 1451.05 568.3 1440.11 584.07C1439.97 584.239 1439.85 584.423 1439.76 584.62L1439.44 585.054C1439.44 585.054 1421.56 602.039 1410.51 593.908C1411.95 592.366 1413.53 590.962 1415.23 589.713C1419.72 582.061 1423.69 574.114 1427.12 565.927C1429.32 560.306 1433.11 555.443 1438.02 551.926C1442.93 548.408 1448.75 546.387 1454.78 546.106V546.106Z" fill="#FFA825"/>
<path d="M1516.73 448.051C1530.35 399.706 1516.55 353.511 1485.89 344.871C1455.24 336.231 1419.34 368.418 1405.72 416.762C1392.09 465.107 1405.9 511.302 1436.55 519.942C1467.21 528.582 1503.1 496.395 1516.73 448.051Z" fill="#F9B499"/>
<path d="M1587.07 399.604C1585.43 425.102 1580.95 450.337 1573.7 474.837V502.587C1573.7 502.587 1561.81 514.479 1553.88 494.658C1552.37 495.249 1550.82 495.732 1549.25 496.105C1544.71 497.176 1537.67 497.986 1532.55 494.369C1528.3 491.475 1525.2 485.688 1525.46 475.098C1525.46 475.098 1517.28 431.694 1513.75 431.491L1495.43 463.321C1495.43 463.321 1478.56 463.06 1486.49 427.382C1486.49 427.382 1494.74 402.671 1488.95 387.364C1488.15 385.439 1486.98 383.692 1485.5 382.227C1484.02 380.762 1482.26 379.608 1480.33 378.834C1478.4 378.06 1476.33 377.681 1474.24 377.72C1472.16 377.759 1470.11 378.214 1468.2 379.06C1460.45 382.242 1447.05 385.628 1436.58 376.86C1434.04 374.72 1431.9 372.155 1430.24 369.279C1430.24 369.279 1417.86 384.123 1414.53 393.875C1414.53 393.875 1401.05 356.953 1422.46 336.003C1423.59 334.912 1425.05 334.209 1426.61 333.996C1428.17 333.783 1429.75 334.07 1431.14 334.817C1437.36 338.115 1451.05 342.543 1472.8 335.453C1475.09 334.701 1477.52 333.775 1480.01 332.762L1481.37 332.212C1481.37 332.212 1518.32 312.362 1538.14 340.141C1538.02 339.967 1592.48 332.386 1587.07 399.604Z" fill="#2F2E41"/>
<path opacity="0.2" d="M1418.12 340.922C1418.12 340.922 1402.03 360.107 1414.53 393.643C1414.53 393.643 1420.32 378.047 1425.7 374.864C1425.7 374.864 1413.2 365.691 1418.12 340.922Z" fill="black"/>
<path opacity="0.2" d="M1534.06 462.974C1534.06 462.974 1527.2 486.122 1532.55 494.398C1528.3 491.504 1525.2 485.717 1525.46 475.127C1525.46 475.127 1517.28 431.723 1513.75 431.52L1495.43 463.35C1495.43 463.35 1478.56 463.089 1486.49 427.411C1486.49 427.411 1494.74 402.7 1488.95 387.393C1488.15 385.468 1486.98 383.721 1485.5 382.256C1484.02 380.791 1482.26 379.637 1480.33 378.863C1478.4 378.089 1476.33 377.71 1474.24 377.749C1472.16 377.788 1470.11 378.243 1468.2 379.088C1460.45 382.271 1447.05 385.657 1436.58 376.889C1456.11 375.486 1475.47 372.349 1494.45 367.514C1494.45 367.514 1503.39 381.982 1498.93 418.557C1498.93 418.557 1498.41 431.405 1514.27 427.44C1514.24 427.18 1541.99 419.251 1534.06 462.974Z" fill="black"/>
<path opacity="0.2" d="M1573.7 502.5C1573.7 502.5 1561.81 514.393 1553.88 494.572C1552.37 495.162 1550.82 495.645 1549.25 496.018C1549.25 496.018 1545.95 466.822 1557.93 447.001C1557.84 447.001 1553.76 506.377 1573.7 502.5Z" fill="black"/>
<path d="M1525.81 455.412C1527.75 443.519 1522.31 432.738 1513.67 431.332C1505.02 429.925 1496.45 438.427 1494.51 450.32C1492.58 462.213 1498.02 472.994 1506.66 474.401C1515.3 475.807 1523.88 467.305 1525.81 455.412Z" fill="#F9B499"/>
<path d="M1557 1034.25L1545.95 1077.31C1486.49 1077.31 1475.29 1048.9 1475.29 1048.9L1482.47 1024.07C1469.29 1027.15 1455.48 1026.14 1442.89 1021.17C1441.82 1020.79 1440.89 1020.1 1440.22 1019.19C1439.54 1018.28 1439.15 1017.2 1439.08 1016.07C1439.02 1014.94 1439.29 1013.81 1439.85 1012.83C1440.42 1011.85 1441.27 1011.06 1442.28 1010.56C1455.04 1003.44 1482.47 1000.02 1482.47 1000.02C1493.56 1000.69 1504.64 998.646 1514.76 994.062C1527.14 1017.85 1557 1034.25 1557 1034.25Z" fill="#F9B499"/>
<path d="M1557 1034.25L1545.95 1077.31C1486.49 1077.31 1475.29 1048.9 1475.29 1048.9L1482.47 1024.07C1469.29 1027.15 1455.48 1026.14 1442.89 1021.17C1442.89 1021.17 1475.9 1025.52 1487.13 1017.7C1487.13 1017.7 1482.53 1049.53 1510.27 1057.49C1510.27 1057.49 1534.55 1063.57 1535.3 1051.7C1535.35 1050.11 1535.01 1048.53 1534.31 1047.09C1533.62 1045.66 1532.59 1044.41 1531.31 1043.46C1524.25 1037.87 1506.22 1021.09 1508.16 996.579C1510.46 995.835 1512.71 994.956 1514.9 993.946C1527.14 1017.85 1557 1034.25 1557 1034.25Z" fill="#F7A48B"/>
<path d="M961.886 1789.19C940.706 1819.2 887.901 1810.6 887.901 1810.6V1808.49C889.255 1807.97 890.578 1807.37 891.865 1806.7C891.865 1806.7 915.649 1771.02 955.289 1786.88C957.354 1787.98 959.58 1788.77 961.886 1789.19V1789.19Z" fill="#F9B499"/>
<path d="M596.737 1808.95C596.737 1808.95 586.639 1822.61 606.459 1818.65C606.459 1818.65 649.426 1816.1 667.568 1799.55C667.568 1799.55 630.764 1811.18 596.737 1808.95Z" fill="#F9B499"/>
</g>
<defs>
<clipPath id="clip0_452_2">
<rect width="2505" height="1976" fill="white"/>
</clipPath>
</defs>
</svg>
