<svg width="480" height="349" viewBox="0 0 480 349" fill="none" xmlns="http://www.w3.org/2000/svg">
<path opacity="0.46" d="M100.33 309.461C82.0916 302.387 65.0551 290.182 57.5759 273.33C51.3694 259.344 52.3594 243.536 57.1298 229.373C68.7431 194.949 103.501 168.746 142.676 164.864C173.681 167.091 202.32 151.877 226.292 134.488C250.264 117.1 272.375 96.7137 300.535 85.5874C342.871 68.8609 396.074 76.7846 432.29 104.929C468.506 133.073 486.13 180.004 476.508 221.678C466.885 263.351 430.593 298.02 385.832 308.741C348.066 317.784 307.661 310.682 268.366 311.493C211.839 312.675 153.12 329.909 100.33 309.461Z" fill="white"/>
<mask id="mask0_515_41" style="mask-type:alpha" maskUnits="userSpaceOnUse" x="62" y="0" width="356" height="349">
<ellipse rx="177.889" ry="174.489" transform="matrix(-1 0 0 1 239.995 174.489)" fill="#D9D9D9"/>
</mask>
<g mask="url(#mask0_515_41)">
<path d="M273.693 145.283L270.878 171.564C270.878 171.564 260.319 209.488 245.531 211.486C245.531 211.486 230.743 211.486 230.743 181.545V158.949L273.693 145.283Z" fill="#F9B499"/>
<path d="M230.743 158.892V181.394C230.743 181.394 270.164 180.748 273.693 145.283L230.743 158.892Z" fill="#F7A48B"/>
<path d="M329.867 199.909C331.096 206.333 331.838 212.838 332.086 219.369C332.12 220.583 332.505 221.763 333.195 222.772L354.425 253.958C354.639 254.271 354.938 254.52 355.289 254.674C355.64 254.829 356.029 254.883 356.41 254.831C356.791 254.779 357.15 254.623 357.444 254.38C357.739 254.138 357.957 253.819 358.075 253.46L379.332 188.916L404.078 205.065L379.332 305.73C379.332 305.73 373.155 327.873 356.712 323.842C356.712 323.842 348.115 319.576 337.995 298.558L315.375 264.336C315.375 264.336 310.361 255.266 317.072 233.189C320.33 221.749 324.612 210.613 329.867 199.909V199.909Z" fill="white"/>
<path d="M255.231 205.467C255.231 205.467 246.678 215.756 238.885 207.345C238.885 207.345 240.07 217.047 239.87 241.811L232.277 424.94C242.967 427.855 254.362 427.02 264.489 422.579L262.704 419.971L256.51 314.643C256.51 314.643 251.674 220.49 255.231 205.467Z" fill="white"/>
<path d="M192.394 196.44C192.394 196.44 161.539 281.911 166.955 323.686L181.445 414.611L192.394 196.44Z" fill="white"/>
<path d="M403.848 203.962C403.848 203.962 414.074 203.61 413.073 180.692C413.073 180.692 422.956 167.241 414.39 162.501C414.39 162.501 416.025 149.717 407.92 151.728C407.92 151.728 411.966 137.663 405.891 137.663C405.891 137.663 399.803 135.665 397.786 153.739C397.786 153.739 402.148 134.151 394.9 134.895C394.9 134.895 389.866 131.082 389.774 162.501C389.774 162.501 386.888 148.933 380.853 149.038C380.757 149.037 380.662 149.057 380.574 149.094C380.486 149.131 380.406 149.185 380.34 149.253C380.274 149.322 380.222 149.402 380.188 149.491C380.153 149.58 380.138 149.674 380.141 149.769C380.339 154.13 381.459 179.49 379.535 187.887L403.848 203.962Z" fill="#F9B499"/>
<path d="M243.781 166.347C223.025 166.347 206.2 142.433 206.2 112.933C206.2 83.433 223.025 59.5186 243.781 59.5186C264.537 59.5186 281.363 83.433 281.363 112.933C281.363 142.433 264.537 166.347 243.781 166.347Z" fill="#F9B499"/>
<path d="M305.904 105.532C305.904 105.532 306.444 138.43 289.547 136.14C289.547 136.14 276.8 137.917 270.555 103.506C270.555 103.506 222.73 103.506 212.335 67.0686C213.015 65.9077 213.797 64.8069 214.674 63.7789C221.561 55.178 230.712 48.5528 241.155 44.6063C253.32 40.0138 262.242 38.7374 275.584 52.8964C275.584 52.8964 295.509 69.0951 297.59 101.479C297.59 101.453 295.509 121.731 305.904 105.532Z" fill="#2F2E41"/>
<path d="M213.57 67.0524C213.57 67.0524 197.512 65.1221 197 114.442C196.948 117.002 197.467 119.542 198.522 121.892C200.017 125.105 202.86 128.68 208.127 128.732C208.127 128.732 199.573 101.617 216.938 75.3696C215.606 72.6797 214.48 69.8999 213.57 67.0524V67.0524Z" fill="#2F2E41"/>
<path d="M278.337 140.705C273.478 139.225 271.191 132.804 273.23 126.364C275.269 119.924 280.861 115.903 285.72 117.383C290.579 118.863 292.865 125.283 290.827 131.724C288.788 138.164 283.196 142.184 278.337 140.705Z" fill="#F9B499"/>
<path d="M269.962 173.869C269.962 173.869 313.937 183.013 330.363 199.146C330.363 199.146 307.768 245.362 315.994 263.454L338.589 297.613C338.589 297.613 331.137 368.636 346.374 413.598C347.278 416.193 347.54 418.959 347.141 421.672C346.742 424.385 345.692 426.968 344.077 429.208C338.322 437.046 326.463 446.79 303.668 444.308C303.668 444.308 276.96 442.297 262.578 420.195C262.578 420.195 249.651 233.501 255.086 205.272C255.086 205.272 262.965 196.808 269.962 173.869Z" fill="#F29100"/>
<path d="M231.649 181.45C231.649 181.45 239.946 196.623 239.946 230.741L232.031 424.017C231.904 427.322 230.727 430.503 228.666 433.108C226.606 435.712 223.767 437.608 220.554 438.525C214.327 440.273 205.265 441.134 192.851 438.616C189.561 437.941 186.624 436.122 184.574 433.489C182.524 430.856 181.497 427.583 181.677 424.265L193.286 196.571C193.286 196.571 203.061 180.328 231.649 181.45Z" fill="#F29100"/>
<path d="M379.535 188.219C379.535 188.219 398.182 193.424 403.19 187.567C403.722 186.91 404.064 186.129 404.182 185.303C404.631 182.847 405.146 176.977 400.494 174.176C400.494 174.176 390.966 168.204 389.803 163.356L389.882 157.691C391.598 160.519 393.75 163.077 396.266 165.275C396.717 165.611 397.239 165.846 397.796 165.964C398.352 166.082 398.928 166.08 399.484 165.958C400.039 165.836 400.559 165.597 401.008 165.257C401.457 164.918 401.823 164.488 402.08 163.996L408.001 152.805C408.001 152.805 399.807 173.268 408.001 174.176C408.001 174.176 407.433 180.967 413.115 181.172C413.115 181.172 415.296 201.162 403.864 203.963L379.535 188.219Z" fill="#F7A48B"/>
</g>
<g clip-path="url(#clip0_515_41)">
<circle cx="417.082" cy="76.9758" r="47.4014" fill="#FF9900"/>
<path d="M417 29.5745C390.908 29.5745 369.681 50.8014 369.681 76.8934C369.681 102.985 390.908 124.213 417 124.213C443.091 124.213 464.319 102.985 464.319 76.8934C464.319 50.8014 443.092 29.5745 417 29.5745ZM444.171 68.9008L414.443 98.6289C413.179 99.8929 411.499 100.589 409.711 100.589C407.924 100.589 406.244 99.8929 404.98 98.6289L389.828 83.4777C388.564 82.2137 387.868 80.5334 387.868 78.746C387.868 76.958 388.564 75.2778 389.828 74.0137C391.092 72.7497 392.772 72.0535 394.56 72.0535C396.348 72.0535 398.028 72.7497 399.292 74.0142L409.711 84.4326L434.707 59.4368C435.971 58.1728 437.651 57.4771 439.438 57.4771C441.226 57.4771 442.906 58.1728 444.17 59.4368C446.78 62.0469 446.78 66.2918 444.171 68.9008Z" fill="white"/>
</g>
<path d="M84.9672 146.034L25.2026 153.461L26.4152 163.218L86.1797 155.791L84.9672 146.034Z" fill="white"/>
<path d="M107.227 145.391L101.302 140.48L95.0274 148.05L109.511 160.057L125.001 135.864L116.721 130.563L107.227 145.391Z" fill="white"/>
<path d="M88.7565 176.526L28.9919 183.953L30.2045 193.711L89.9691 186.284L88.7565 176.526Z" fill="white"/>
<path d="M111.016 175.883L105.092 170.972L98.8165 178.542L113.3 190.549L128.79 166.356L120.51 161.055L111.016 175.883Z" fill="white"/>
<path d="M92.5458 207.018L32.7813 214.445L33.9938 224.203L93.7584 216.776L92.5458 207.018Z" fill="white"/>
<path d="M114.805 206.376L108.881 201.465L102.606 209.034L117.089 221.042L132.58 196.848L124.299 191.547L114.805 206.376Z" fill="white"/>
<path d="M96.335 237.51L36.5704 244.937L37.783 254.695L97.5475 247.268L96.335 237.51Z" fill="white"/>
<path d="M118.594 236.868L112.67 231.957L106.395 239.527L120.879 251.534L136.369 227.341L128.088 222.04L118.594 236.868Z" fill="white"/>
<path d="M142.617 111.622C141.654 103.875 134.594 98.3759 126.847 99.3386L14.0264 113.359C6.27956 114.322 0.780365 121.382 1.74307 129.128L20.8411 282.809C21.8038 290.556 28.8637 296.055 36.6105 295.092L149.432 281.072C157.178 280.109 162.678 273.049 161.715 265.303L142.617 111.622ZM151.957 266.515C152.25 268.873 150.577 271.022 148.219 271.315L35.398 285.335C33.0403 285.628 30.8915 283.954 30.5986 281.596L11.5006 127.916C11.2076 125.558 12.8813 123.409 15.239 123.116L128.06 109.096C130.418 108.803 132.566 110.477 132.859 112.835L151.957 266.515Z" fill="white"/>
<defs>
<clipPath id="clip0_515_41">
<rect width="94.6383" height="94.6383" fill="white" transform="translate(369.681 29.5745)"/>
</clipPath>
</defs>
</svg>
