<svg width="283" height="136" viewBox="0 0 283 136" fill="none" xmlns="http://www.w3.org/2000/svg">
<path fill-rule="evenodd" clip-rule="evenodd" d="M55.5 127C81.1812 127 102 106.181 102 80.5C102 54.8187 81.1812 34 55.5 34C29.8188 34 9 54.8187 9 80.5C9 106.181 29.8188 127 55.5 127ZM55.5 136C86.1518 136 111 111.152 111 80.5C111 49.8482 86.1518 25 55.5 25C24.8482 25 0 49.8482 0 80.5C0 111.152 24.8482 136 55.5 136Z" fill="#C4C4C4" fill-opacity="0.17"/>
<path d="M100 82.5C100 107.077 80.0767 127 55.5 127C30.9233 127 11 107.077 11 82.5C11 57.9233 30.9233 38 55.5 38C80.0767 38 100 57.9233 100 82.5Z" fill="#FFA825"/>
<path fill-rule="evenodd" clip-rule="evenodd" d="M132.724 5.56397C143.458 14.248 145.12 29.9897 136.436 40.7239L78.0272 112.922C67.6583 125.739 48.3243 126.352 37.1639 114.218L11.5997 86.4241C2.25271 76.2619 2.91362 60.4466 13.0759 51.0996C23.2381 41.7527 39.0534 42.4136 48.4004 52.5758L55.92 60.7514L97.564 9.27607C106.248 -1.45814 121.99 -3.12011 132.724 5.56397Z" fill="white"/>
<path fill-rule="evenodd" clip-rule="evenodd" d="M126.434 13.3384C132.875 18.5488 133.872 27.9938 128.662 34.4343L70.2527 106.632C63.7242 114.702 51.5509 115.088 44.524 107.449L18.9598 79.6545C13.3516 73.5571 13.7481 64.0679 19.8455 58.4598C25.9428 52.8516 35.432 53.2481 41.0402 59.3455L56.4053 76.0508L105.338 15.5656C110.549 9.12511 119.994 8.12793 126.434 13.3384Z" fill="#FFA825"/>
<path fill-rule="evenodd" clip-rule="evenodd" d="M131.699 22.0103C131.031 18.7132 129.254 15.6201 126.434 13.3389C119.994 8.12842 110.549 9.1256 105.338 15.5661L56.4054 76.0513L41.0403 59.346C35.4321 53.2486 25.9429 52.8521 19.8456 58.4603C14.433 63.4386 13.5127 71.4753 17.2972 77.4828C16.2934 72.5088 17.8383 67.1466 21.8456 63.4608C27.943 57.8526 37.4322 58.2491 43.0403 64.3465L58.4055 81.0518L107.339 20.5666C112.549 14.1261 121.994 13.1289 128.434 18.3393C129.753 19.4062 130.844 20.6506 131.699 22.0103Z" fill="#FF9900"/>
<path d="M143.922 56.7109L134.641 85H127.164L139.844 50.875H144.602L143.922 56.7109ZM151.633 85L142.328 56.7109L141.578 50.875H146.383L159.133 85H151.633ZM151.211 72.2969V77.8047H133.188V72.2969H151.211Z" fill="#FFA825"/>
<path d="M159.235 49H165.985V79.1875L165.305 85H159.235V49ZM182.04 72.0625V72.5547C182.04 74.4453 181.837 76.1797 181.43 77.7578C181.04 79.3359 180.43 80.7031 179.602 81.8594C178.774 83 177.743 83.8906 176.508 84.5312C175.29 85.1562 173.852 85.4688 172.196 85.4688C170.649 85.4688 169.305 85.1562 168.165 84.5312C167.04 83.9062 166.094 83.0234 165.329 81.8828C164.563 80.7422 163.946 79.4062 163.477 77.875C163.008 76.3438 162.657 74.6719 162.423 72.8594V71.7812C162.657 69.9688 163.008 68.2969 163.477 66.7656C163.946 65.2344 164.563 63.8984 165.329 62.7578C166.094 61.6172 167.04 60.7344 168.165 60.1094C169.29 59.4844 170.618 59.1719 172.149 59.1719C173.821 59.1719 175.274 59.4922 176.508 60.1328C177.758 60.7578 178.79 61.6484 179.602 62.8047C180.43 63.9453 181.04 65.3047 181.43 66.8828C181.837 68.4453 182.04 70.1719 182.04 72.0625ZM175.29 72.5547V72.0625C175.29 71.0312 175.212 70.0625 175.055 69.1562C174.915 68.2344 174.665 67.4297 174.305 66.7422C173.946 66.0391 173.454 65.4844 172.829 65.0781C172.219 64.6719 171.43 64.4688 170.462 64.4688C169.54 64.4688 168.758 64.625 168.118 64.9375C167.477 65.25 166.946 65.6875 166.524 66.25C166.118 66.8125 165.813 67.4844 165.61 68.2656C165.407 69.0312 165.282 69.875 165.235 70.7969V73.8672C165.282 75.1016 165.485 76.1953 165.844 77.1484C166.219 78.0859 166.782 78.8281 167.532 79.375C168.298 79.9062 169.29 80.1719 170.508 80.1719C171.462 80.1719 172.251 79.9844 172.876 79.6094C173.501 79.2344 173.985 78.7031 174.329 78.0156C174.688 77.3281 174.938 76.5234 175.079 75.6016C175.219 74.6641 175.29 73.6484 175.29 72.5547Z" fill="#FFA825"/>
<path d="M197.306 77.9922C197.306 77.5078 197.165 77.0703 196.884 76.6797C196.603 76.2891 196.079 75.9297 195.314 75.6016C194.564 75.2578 193.478 74.9453 192.056 74.6641C190.775 74.3828 189.579 74.0312 188.47 73.6094C187.376 73.1719 186.423 72.6484 185.611 72.0391C184.814 71.4297 184.189 70.7109 183.736 69.8828C183.283 69.0391 183.056 68.0781 183.056 67C183.056 65.9375 183.283 64.9375 183.736 64C184.204 63.0625 184.868 62.2344 185.728 61.5156C186.603 60.7812 187.665 60.2109 188.915 59.8047C190.181 59.3828 191.603 59.1719 193.181 59.1719C195.384 59.1719 197.275 59.5234 198.853 60.2266C200.447 60.9297 201.665 61.8984 202.509 63.1328C203.368 64.3516 203.798 65.7422 203.798 67.3047H197.048C197.048 66.6484 196.908 66.0625 196.626 65.5469C196.361 65.0156 195.939 64.6016 195.361 64.3047C194.798 63.9922 194.064 63.8359 193.158 63.8359C192.408 63.8359 191.759 63.9688 191.212 64.2344C190.665 64.4844 190.243 64.8281 189.947 65.2656C189.665 65.6875 189.525 66.1562 189.525 66.6719C189.525 67.0625 189.603 67.4141 189.759 67.7266C189.931 68.0234 190.204 68.2969 190.579 68.5469C190.954 68.7969 191.439 69.0312 192.033 69.25C192.642 69.4531 193.392 69.6406 194.283 69.8125C196.111 70.1875 197.743 70.6797 199.181 71.2891C200.618 71.8828 201.759 72.6953 202.603 73.7266C203.447 74.7422 203.868 76.0781 203.868 77.7344C203.868 78.8594 203.618 79.8906 203.118 80.8281C202.618 81.7656 201.9 82.5859 200.962 83.2891C200.025 83.9766 198.9 84.5156 197.587 84.9062C196.29 85.2812 194.829 85.4688 193.204 85.4688C190.845 85.4688 188.845 85.0469 187.204 84.2031C185.579 83.3594 184.345 82.2891 183.501 80.9922C182.673 79.6797 182.259 78.3359 182.259 76.9609H188.658C188.689 77.8828 188.923 78.625 189.361 79.1875C189.814 79.75 190.384 80.1562 191.072 80.4062C191.775 80.6562 192.533 80.7812 193.345 80.7812C194.22 80.7812 194.947 80.6641 195.525 80.4297C196.103 80.1797 196.54 79.8516 196.837 79.4453C197.15 79.0234 197.306 78.5391 197.306 77.9922Z" fill="#FFA825"/>
<path d="M217.283 85.4688C215.314 85.4688 213.549 85.1562 211.986 84.5312C210.424 83.8906 209.096 83.0078 208.002 81.8828C206.924 80.7578 206.096 79.4531 205.518 77.9688C204.939 76.4688 204.65 74.875 204.65 73.1875V72.25C204.65 70.3281 204.924 68.5703 205.471 66.9766C206.018 65.3828 206.799 64 207.814 62.8281C208.846 61.6562 210.096 60.7578 211.564 60.1328C213.033 59.4922 214.689 59.1719 216.533 59.1719C218.33 59.1719 219.924 59.4688 221.314 60.0625C222.705 60.6562 223.869 61.5 224.807 62.5938C225.76 63.6875 226.478 65 226.963 66.5312C227.447 68.0469 227.689 69.7344 227.689 71.5938V74.4062H207.533V69.9062H221.057V69.3906C221.057 68.4531 220.885 67.6172 220.541 66.8828C220.213 66.1328 219.713 65.5391 219.041 65.1016C218.369 64.6641 217.51 64.4453 216.463 64.4453C215.572 64.4453 214.807 64.6406 214.166 65.0312C213.525 65.4219 213.002 65.9688 212.596 66.6719C212.205 67.375 211.908 68.2031 211.705 69.1562C211.518 70.0938 211.424 71.125 211.424 72.25V73.1875C211.424 74.2031 211.564 75.1406 211.846 76C212.143 76.8594 212.557 77.6016 213.088 78.2266C213.635 78.8516 214.291 79.3359 215.057 79.6797C215.838 80.0234 216.721 80.1953 217.705 80.1953C218.924 80.1953 220.057 79.9609 221.103 79.4922C222.166 79.0078 223.08 78.2812 223.846 77.3125L227.127 80.875C226.596 81.6406 225.869 82.375 224.947 83.0781C224.041 83.7812 222.947 84.3594 221.666 84.8125C220.385 85.25 218.924 85.4688 217.283 85.4688Z" fill="#FFA825"/>
<path d="M235.503 65.0547V85H228.753V59.6406H235.081L235.503 65.0547ZM234.518 71.4297H232.69C232.69 69.5547 232.932 67.8672 233.417 66.3672C233.901 64.8516 234.581 63.5625 235.456 62.5C236.331 61.4219 237.37 60.6016 238.573 60.0391C239.792 59.4609 241.151 59.1719 242.651 59.1719C243.838 59.1719 244.924 59.3438 245.909 59.6875C246.893 60.0312 247.737 60.5781 248.44 61.3281C249.159 62.0781 249.706 63.0703 250.081 64.3047C250.471 65.5391 250.667 67.0469 250.667 68.8281V85H243.87V68.8047C243.87 67.6797 243.713 66.8047 243.401 66.1797C243.088 65.5547 242.628 65.1172 242.018 64.8672C241.424 64.6016 240.69 64.4688 239.815 64.4688C238.909 64.4688 238.12 64.6484 237.448 65.0078C236.792 65.3672 236.245 65.8672 235.807 66.5078C235.385 67.1328 235.065 67.8672 234.846 68.7109C234.628 69.5547 234.518 70.4609 234.518 71.4297Z" fill="#FFA825"/>
<path d="M266.87 77.9922C266.87 77.5078 266.73 77.0703 266.448 76.6797C266.167 76.2891 265.644 75.9297 264.878 75.6016C264.128 75.2578 263.042 74.9453 261.62 74.6641C260.339 74.3828 259.144 74.0312 258.034 73.6094C256.941 73.1719 255.988 72.6484 255.175 72.0391C254.378 71.4297 253.753 70.7109 253.3 69.8828C252.847 69.0391 252.62 68.0781 252.62 67C252.62 65.9375 252.847 64.9375 253.3 64C253.769 63.0625 254.433 62.2344 255.292 61.5156C256.167 60.7812 257.23 60.2109 258.48 59.8047C259.745 59.3828 261.167 59.1719 262.745 59.1719C264.948 59.1719 266.839 59.5234 268.417 60.2266C270.011 60.9297 271.23 61.8984 272.073 63.1328C272.933 64.3516 273.363 65.7422 273.363 67.3047H266.613C266.613 66.6484 266.472 66.0625 266.191 65.5469C265.925 65.0156 265.503 64.6016 264.925 64.3047C264.363 63.9922 263.628 63.8359 262.722 63.8359C261.972 63.8359 261.323 63.9688 260.777 64.2344C260.23 64.4844 259.808 64.8281 259.511 65.2656C259.23 65.6875 259.089 66.1562 259.089 66.6719C259.089 67.0625 259.167 67.4141 259.323 67.7266C259.495 68.0234 259.769 68.2969 260.144 68.5469C260.519 68.7969 261.003 69.0312 261.597 69.25C262.206 69.4531 262.956 69.6406 263.847 69.8125C265.675 70.1875 267.308 70.6797 268.745 71.2891C270.183 71.8828 271.323 72.6953 272.167 73.7266C273.011 74.7422 273.433 76.0781 273.433 77.7344C273.433 78.8594 273.183 79.8906 272.683 80.8281C272.183 81.7656 271.464 82.5859 270.527 83.2891C269.589 83.9766 268.464 84.5156 267.152 84.9062C265.855 85.2812 264.394 85.4688 262.769 85.4688C260.409 85.4688 258.409 85.0469 256.769 84.2031C255.144 83.3594 253.909 82.2891 253.066 80.9922C252.238 79.6797 251.823 78.3359 251.823 76.9609H258.222C258.253 77.8828 258.488 78.625 258.925 79.1875C259.378 79.75 259.948 80.1562 260.636 80.4062C261.339 80.6562 262.097 80.7812 262.909 80.7812C263.784 80.7812 264.511 80.6641 265.089 80.4297C265.667 80.1797 266.105 79.8516 266.402 79.4453C266.714 79.0234 266.87 78.5391 266.87 77.9922Z" fill="#FFA825"/>
<path d="M282.301 59.6406V85H275.527V59.6406H282.301ZM275.105 53.0312C275.105 52.0469 275.449 51.2344 276.137 50.5938C276.824 49.9531 277.746 49.6328 278.902 49.6328C280.043 49.6328 280.957 49.9531 281.644 50.5938C282.348 51.2344 282.699 52.0469 282.699 53.0312C282.699 54.0156 282.348 54.8281 281.644 55.4688C280.957 56.1094 280.043 56.4297 278.902 56.4297C277.746 56.4297 276.824 56.1094 276.137 55.4688C275.449 54.8281 275.105 54.0156 275.105 53.0312Z" fill="#FFA825"/>
<path d="M138.074 109.688C138.074 109.289 138.012 108.938 137.887 108.633C137.77 108.32 137.559 108.039 137.254 107.789C136.957 107.539 136.543 107.301 136.012 107.074C135.488 106.848 134.824 106.617 134.02 106.383C133.176 106.133 132.414 105.855 131.734 105.551C131.055 105.238 130.473 104.883 129.988 104.484C129.504 104.086 129.133 103.629 128.875 103.113C128.617 102.598 128.488 102.008 128.488 101.344C128.488 100.68 128.625 100.066 128.898 99.5039C129.172 98.9414 129.562 98.4531 130.07 98.0391C130.586 97.6172 131.199 97.2891 131.91 97.0547C132.621 96.8203 133.414 96.7031 134.289 96.7031C135.57 96.7031 136.656 96.9492 137.547 97.4414C138.445 97.9258 139.129 98.5625 139.598 99.3516C140.066 100.133 140.301 100.969 140.301 101.859H138.051C138.051 101.219 137.914 100.652 137.641 100.16C137.367 99.6602 136.953 99.2695 136.398 98.9883C135.844 98.6992 135.141 98.5547 134.289 98.5547C133.484 98.5547 132.82 98.6758 132.297 98.918C131.773 99.1602 131.383 99.4883 131.125 99.9023C130.875 100.316 130.75 100.789 130.75 101.32C130.75 101.68 130.824 102.008 130.973 102.305C131.129 102.594 131.367 102.863 131.688 103.113C132.016 103.363 132.43 103.594 132.93 103.805C133.438 104.016 134.043 104.219 134.746 104.414C135.715 104.688 136.551 104.992 137.254 105.328C137.957 105.664 138.535 106.043 138.988 106.465C139.449 106.879 139.789 107.352 140.008 107.883C140.234 108.406 140.348 109 140.348 109.664C140.348 110.359 140.207 110.988 139.926 111.551C139.645 112.113 139.242 112.594 138.719 112.992C138.195 113.391 137.566 113.699 136.832 113.918C136.105 114.129 135.293 114.234 134.395 114.234C133.605 114.234 132.828 114.125 132.062 113.906C131.305 113.688 130.613 113.359 129.988 112.922C129.371 112.484 128.875 111.945 128.5 111.305C128.133 110.656 127.949 109.906 127.949 109.055H130.199C130.199 109.641 130.312 110.145 130.539 110.566C130.766 110.98 131.074 111.324 131.465 111.598C131.863 111.871 132.312 112.074 132.812 112.207C133.32 112.332 133.848 112.395 134.395 112.395C135.184 112.395 135.852 112.285 136.398 112.066C136.945 111.848 137.359 111.535 137.641 111.129C137.93 110.723 138.074 110.242 138.074 109.688Z" fill="#FFA825"/>
<path d="M148.416 96.9375V114H146.155V96.9375H148.416Z" fill="#FFA825"/>
<path d="M164.383 109.688C164.383 109.289 164.321 108.938 164.196 108.633C164.079 108.32 163.868 108.039 163.563 107.789C163.266 107.539 162.852 107.301 162.321 107.074C161.797 106.848 161.133 106.617 160.329 106.383C159.485 106.133 158.723 105.855 158.043 105.551C157.364 105.238 156.782 104.883 156.297 104.484C155.813 104.086 155.442 103.629 155.184 103.113C154.926 102.598 154.797 102.008 154.797 101.344C154.797 100.68 154.934 100.066 155.208 99.5039C155.481 98.9414 155.872 98.4531 156.379 98.0391C156.895 97.6172 157.508 97.2891 158.219 97.0547C158.93 96.8203 159.723 96.7031 160.598 96.7031C161.879 96.7031 162.965 96.9492 163.856 97.4414C164.754 97.9258 165.438 98.5625 165.907 99.3516C166.375 100.133 166.61 100.969 166.61 101.859H164.36C164.36 101.219 164.223 100.652 163.95 100.16C163.676 99.6602 163.262 99.2695 162.708 98.9883C162.153 98.6992 161.45 98.5547 160.598 98.5547C159.793 98.5547 159.129 98.6758 158.606 98.918C158.083 99.1602 157.692 99.4883 157.434 99.9023C157.184 100.316 157.059 100.789 157.059 101.32C157.059 101.68 157.133 102.008 157.282 102.305C157.438 102.594 157.676 102.863 157.997 103.113C158.325 103.363 158.739 103.594 159.239 103.805C159.747 104.016 160.352 104.219 161.055 104.414C162.024 104.688 162.86 104.992 163.563 105.328C164.266 105.664 164.844 106.043 165.297 106.465C165.758 106.879 166.098 107.352 166.317 107.883C166.543 108.406 166.657 109 166.657 109.664C166.657 110.359 166.516 110.988 166.235 111.551C165.954 112.113 165.551 112.594 165.028 112.992C164.504 113.391 163.875 113.699 163.141 113.918C162.415 114.129 161.602 114.234 160.704 114.234C159.915 114.234 159.137 114.125 158.372 113.906C157.614 113.688 156.922 113.359 156.297 112.922C155.68 112.484 155.184 111.945 154.809 111.305C154.442 110.656 154.258 109.906 154.258 109.055H156.508C156.508 109.641 156.622 110.145 156.848 110.566C157.075 110.98 157.383 111.324 157.774 111.598C158.172 111.871 158.622 112.074 159.122 112.207C159.629 112.332 160.157 112.395 160.704 112.395C161.493 112.395 162.161 112.285 162.708 112.066C163.254 111.848 163.668 111.535 163.95 111.129C164.239 110.723 164.383 110.242 164.383 109.688Z" fill="#FFA825"/>
<path d="M176.788 108.844L180.175 96.9375H181.815L180.866 101.566L177.221 114H175.592L176.788 108.844ZM173.284 96.9375L175.979 108.609L176.788 114H175.171L171.034 96.9375H173.284ZM186.198 108.598L188.835 96.9375H191.096L186.971 114H185.354L186.198 108.598ZM182.061 96.9375L185.354 108.844L186.55 114H184.921L181.405 101.566L180.444 96.9375H182.061Z" fill="#FFA825"/>
<path d="M202.165 98.4492L196.517 114H194.208L200.712 96.9375H202.2L202.165 98.4492ZM206.899 114L201.239 98.4492L201.204 96.9375H202.692L209.22 114H206.899ZM206.606 107.684V109.535H197.02V107.684H206.606Z" fill="#FFA825"/>
</svg>
