<svg width="165" height="180" viewBox="0 0 165 180" fill="none" xmlns="http://www.w3.org/2000/svg">
<path d="M10.7959 93C16.2906 93 20.7449 88.5228 20.7449 83C20.7449 77.4771 16.2906 73 10.7959 73C5.30123 73 0.846924 77.4771 0.846924 83C0.846924 88.5228 5.30123 93 10.7959 93Z" fill="white"/>
<path d="M9.81 86.8147C9.58618 86.8151 9.3683 86.7423 9.18923 86.6073L9.17813 86.599L6.83998 84.8012C6.73157 84.7178 6.6406 84.6137 6.57222 84.495C6.50384 84.3762 6.45943 84.2451 6.4415 84.109C6.42357 83.973 6.43248 83.8347 6.46773 83.7022C6.50298 83.5696 6.56388 83.4453 6.64694 83.3364C6.73 83.2275 6.8336 83.1362 6.95181 83.0675C7.07002 82.9989 7.20052 82.9543 7.33587 82.9364C7.47121 82.9185 7.60874 82.9276 7.7406 82.9631C7.87246 82.9986 7.99608 83.0599 8.10436 83.1435L9.61882 84.3108L13.1976 79.618C13.2806 79.5092 13.384 79.4179 13.5021 79.3493C13.6202 79.2807 13.7506 79.2362 13.8858 79.2182C14.021 79.2003 14.1585 79.2093 14.2902 79.2447C14.422 79.2801 14.5455 79.3413 14.6538 79.4247L14.6541 79.4249L14.6318 79.4559L14.6547 79.4249C14.873 79.5936 15.0159 79.8425 15.0519 80.117C15.088 80.3914 15.0142 80.669 14.8468 80.8889L10.6374 86.4062C10.54 86.5333 10.4148 86.6362 10.2714 86.7068C10.1281 86.7775 9.97052 86.814 9.8109 86.8135L9.81 86.8147Z" fill="#FFA825"/>
<path d="M23.2321 74C25.1553 74 26.7143 72.433 26.7143 70.5C26.7143 68.567 25.1553 67 23.2321 67C21.309 67 19.75 68.567 19.75 70.5C19.75 72.433 21.309 74 23.2321 74Z" fill="white"/>
<path d="M22.8871 71.8351C22.8087 71.8353 22.7325 71.8098 22.6698 71.7626L22.6659 71.7596L21.8476 71.1304C21.8096 71.1012 21.7778 71.0648 21.7539 71.0232C21.7299 70.9817 21.7144 70.9358 21.7081 70.8881C21.7018 70.8405 21.705 70.7921 21.7173 70.7458C21.7296 70.6994 21.7509 70.6559 21.78 70.6177C21.8091 70.5796 21.8453 70.5476 21.8867 70.5236C21.9281 70.4996 21.9738 70.484 22.0211 70.4777C22.0685 70.4715 22.1166 70.4746 22.1628 70.4871C22.2089 70.4995 22.2522 70.521 22.2901 70.5502L22.8202 70.9588L24.0727 69.3163C24.1018 69.2782 24.138 69.2463 24.1793 69.2222C24.2207 69.1982 24.2663 69.1826 24.3136 69.1764C24.3609 69.1701 24.409 69.1732 24.4552 69.1856C24.5013 69.198 24.5445 69.2194 24.5824 69.2486L24.5825 69.2487L24.5747 69.2596L24.5827 69.2487C24.6591 69.3078 24.7092 69.3949 24.7218 69.4909C24.7344 69.587 24.7085 69.6842 24.65 69.7611L23.1767 71.6922C23.1426 71.7367 23.0987 71.7727 23.0486 71.7974C22.9984 71.8221 22.9433 71.8349 22.8874 71.8347L22.8871 71.8351Z" fill="#FFA825"/>
<path d="M15.273 62C16.6467 62 17.7603 60.8807 17.7603 59.5C17.7603 58.1193 16.6467 57 15.273 57C13.8993 57 12.7858 58.1193 12.7858 59.5C12.7858 60.8807 13.8993 62 15.273 62Z" fill="white"/>
<path d="M15.0265 60.4537C14.9705 60.4538 14.9161 60.4356 14.8713 60.4018L14.8685 60.3997L14.284 59.9503C14.2569 59.9294 14.2342 59.9034 14.2171 59.8737C14.2 59.844 14.1889 59.8113 14.1844 59.7773C14.1799 59.7432 14.1821 59.7087 14.1909 59.6755C14.1998 59.6424 14.215 59.6113 14.2357 59.5841C14.2565 59.5569 14.2824 59.534 14.312 59.5169C14.3415 59.4997 14.3741 59.4886 14.408 59.4841C14.4418 59.4796 14.4762 59.4819 14.5092 59.4908C14.5421 59.4997 14.573 59.515 14.6001 59.5359L14.9787 59.8277L15.8734 58.6545C15.8941 58.6273 15.92 58.6045 15.9495 58.5873C15.9791 58.5702 16.0117 58.559 16.0455 58.5546C16.0793 58.5501 16.1136 58.5523 16.1466 58.5612C16.1795 58.57 16.2104 58.5853 16.2374 58.6062L16.2375 58.6062L16.232 58.614L16.2377 58.6062C16.2923 58.6484 16.328 58.7106 16.337 58.7792C16.346 58.8479 16.3275 58.9173 16.2857 58.9722L15.2333 60.3516C15.209 60.3833 15.1777 60.4091 15.1419 60.4267C15.106 60.4444 15.0666 60.4535 15.0267 60.4534L15.0265 60.4537Z" fill="#FFA825"/>
<path d="M8.65674 89.8112C9.71144 89.5557 10.809 89.5357 11.8722 89.7527C12.9354 89.9697 13.9384 90.4184 14.8104 91.0672C15.6824 91.7159 16.4023 92.5489 16.9194 93.5076C17.4364 94.4662 17.7381 95.5271 17.8031 96.6156L43.1907 103.789L32.8318 112.807L10.3114 104.612C8.48491 104.601 6.72602 103.916 5.36805 102.689C4.01008 101.461 3.14736 99.7749 2.94341 97.9505C2.73945 96.126 3.20842 94.2898 4.26143 92.7897C5.31443 91.2895 6.87834 90.2297 8.65678 89.8112L8.65674 89.8112Z" fill="#FFB7B7"/>
<path d="M99.377 40.8162C108.901 40.8162 116.621 33.056 116.621 23.4833C116.621 13.9106 108.901 6.15036 99.377 6.15036C89.8531 6.15036 82.1324 13.9106 82.1324 23.4833C82.1324 33.056 89.8531 40.8162 99.377 40.8162Z" fill="#FFB7B7"/>
<path d="M88.7479 50.2441L69.7103 146.645C69.7103 146.645 101.763 155.891 115.804 147.355C129.846 138.819 123.554 112.468 123.554 112.468L120.982 67.629L116.23 56.2902L112.197 46.9302L88.7479 50.2441Z" fill="#CBCBCB"/>
<path d="M83.1754 118.672L89.7519 48.3726L84.4925 52.2321L66.1034 58.2349L64.845 107.728L51.9814 172.812C51.9814 172.812 61.1761 190.846 72.5711 161.011L83.1754 118.672Z" fill="#2F2E41"/>
<path d="M74.9535 65.637L66.1038 58.2346L46.2135 101.664L24.0181 96.7772L22.9694 109.953L55.1277 122.745L77.0422 92.0796L74.9535 65.637Z" fill="#2F2E41"/>
<path d="M109.382 103.284L111.861 46.0705L120.982 53.1702L137.272 57.7339L134.883 103.284L138.32 173.964L121.242 179.4L116.448 134.801L109.382 103.284Z" fill="#2F2E41"/>
<path d="M110.478 149.341C110.669 148.267 111.092 147.249 111.717 146.358C112.342 145.466 113.154 144.723 114.095 144.181C115.037 143.64 116.085 143.312 117.166 143.221C118.247 143.13 119.335 143.279 120.353 143.657L137.09 123.172L141.143 136.33L124.627 153.765C123.883 155.442 122.553 156.786 120.888 157.542C119.224 158.299 117.342 158.415 115.597 157.87C113.853 157.325 112.369 156.155 111.425 154.583C110.482 153.011 110.145 151.146 110.478 149.341V149.341Z" fill="#FFB7B7"/>
<path d="M126.365 64.0849L137.271 57.7339L164.714 112.204L137.958 149.547L122.698 137.283L141.228 112.995L124.34 86.9071L126.365 64.0849Z" fill="#2F2E41"/>
<path d="M115.596 9.62649L116.432 7.93524L112.225 5.83453C112.225 5.83453 107.585 -1.75482 99.1875 0.37795C90.7903 2.51072 87.0122 3.78715 87.0122 3.78715L82.8163 5.90922L84.9223 8.01527L81.1443 9.29173L83.6682 10.5522L80.7316 12.2488L82.3124 20.946C82.3124 20.946 84.9381 14.3495 89.986 16.8703C95.0338 19.3912 104.267 15.5672 104.267 15.5672L112.289 31.1713C112.289 31.1713 113.944 25.7013 116.894 27.1599C116.894 27.1599 124.432 15.0937 115.596 9.62649Z" fill="#2F2E41"/>
</svg>
