<svg width="866" height="683" viewBox="0 0 866 683" fill="none" xmlns="http://www.w3.org/2000/svg">
<path d="M606.98 23.98H402.41C373.901 23.98 350.79 47.0911 350.79 75.6V598.25C350.79 626.759 373.901 649.87 402.41 649.87H606.98C635.489 649.87 658.6 626.759 658.6 598.25V75.6C658.6 47.0911 635.489 23.98 606.98 23.98Z" fill="#2F2E41"/>
<path d="M666.83 178.08H654.83V238.41H666.83V178.08Z" fill="#2F2E41"/>
<path d="M607 37.37H580.84C582.043 40.3189 582.502 43.5187 582.176 46.6869C581.85 49.8551 580.748 52.8943 578.969 55.5361C577.19 58.1779 574.788 60.3411 571.975 61.8347C569.162 63.3282 566.025 64.1062 562.84 64.1H448.23C443.086 64.0973 438.154 62.0523 434.518 58.4143C430.882 54.7764 428.84 49.8435 428.84 44.7C428.842 42.1876 429.328 39.6991 430.27 37.37H405.88C395.051 37.37 384.666 41.6717 377.009 49.3288C369.352 56.9859 365.05 67.3712 365.05 78.2V78.2V595.65C365.052 606.477 369.355 616.86 377.012 624.515C384.669 632.17 395.053 636.47 405.88 636.47H607C617.827 636.47 628.211 632.17 635.867 624.515C643.524 616.86 647.827 606.477 647.83 595.65V595.65V78.2C647.83 67.3712 643.528 56.9859 635.871 49.3288C628.214 41.6717 617.829 37.37 607 37.37V37.37Z" fill="#E6E6E6"/>
<path d="M606.95 37H580.79C581.993 39.9489 582.452 43.1487 582.126 46.3169C581.8 49.4851 580.699 52.5243 578.92 55.1661C577.141 57.8079 574.739 59.9711 571.926 61.4647C569.112 62.9583 565.975 63.7363 562.79 63.73H448.18C443.037 63.7273 438.105 61.6823 434.469 58.0443C430.833 54.4064 428.79 49.4735 428.79 44.33C428.792 41.8176 429.278 39.3291 430.22 37H405.83C395.001 37 384.616 41.3017 376.959 48.9588C369.302 56.6159 365 67.0012 365 77.83V77.83V595.28C365.003 606.107 369.306 616.49 376.962 624.145C384.619 631.8 395.003 636.1 405.83 636.1H606.95C617.777 636.1 628.161 631.8 635.818 624.145C643.474 616.49 647.777 606.107 647.78 595.28V595.28V77.83C647.78 67.0012 643.478 56.6159 635.821 48.9588C628.164 41.3017 617.779 37 606.95 37V37Z" fill="white"/>
<path d="M491.657 345.271C491.657 352.822 485.536 358.943 477.986 358.943C470.435 358.943 464.314 352.822 464.314 345.271C464.314 337.721 470.435 331.6 477.986 331.6C485.536 331.6 491.657 337.721 491.657 345.271Z" fill="#FFA825"/>
<path fill-rule="evenodd" clip-rule="evenodd" d="M477.986 359.503C485.845 359.503 492.217 353.131 492.217 345.271C492.217 337.412 485.845 331.04 477.986 331.04C470.126 331.04 463.754 337.412 463.754 345.271C463.754 353.131 470.126 359.503 477.986 359.503ZM477.986 362.257C487.367 362.257 494.971 354.652 494.971 345.271C494.971 335.89 487.367 328.286 477.986 328.286C468.605 328.286 461 335.89 461 345.271C461 354.652 468.605 362.257 477.986 362.257Z" fill="#C4C4C4" fill-opacity="0.17"/>
<path fill-rule="evenodd" clip-rule="evenodd" d="M502.053 321.725C505.364 324.417 505.876 329.298 503.198 332.626L485.182 355.008C481.984 358.982 476.02 359.172 472.578 355.41L464.693 346.794C461.81 343.643 462.014 338.74 465.148 335.842C468.283 332.944 473.161 333.149 476.044 336.3L478.363 338.834L491.208 322.876C493.887 319.548 498.742 319.033 502.053 321.725Z" fill="white"/>
<path fill-rule="evenodd" clip-rule="evenodd" d="M499.865 324.336C501.872 325.929 502.183 328.818 500.559 330.788L482.359 352.871C480.325 355.339 476.532 355.457 474.342 353.12L466.376 344.619C464.629 342.754 464.753 339.852 466.652 338.136C468.552 336.421 471.509 336.542 473.257 338.407L478.044 343.517L493.292 325.017C494.915 323.047 497.858 322.742 499.865 324.336Z" fill="#FFA825"/>
<path fill-rule="evenodd" clip-rule="evenodd" d="M501.6 326.956C501.391 325.956 500.836 325.018 499.955 324.327C497.943 322.747 494.992 323.049 493.364 325.002L478.078 343.341L473.278 338.276C471.526 336.427 468.561 336.307 466.656 338.007C464.965 339.517 464.678 341.954 465.86 343.775C465.547 342.267 466.029 340.641 467.281 339.524C469.186 337.823 472.15 337.943 473.902 339.792L478.703 344.857L493.989 326.518C495.617 324.565 498.568 324.263 500.58 325.843C500.992 326.166 501.332 326.544 501.6 326.956Z" fill="#FF9900"/>
<path d="M505.306 336.658L502.451 345.335H500.15L504.051 334.868H505.515L505.306 336.658ZM507.678 345.335L504.816 336.658L504.585 334.868H506.063L509.986 345.335H507.678ZM507.548 341.438V343.128H502.003V341.438H507.548Z" fill="#FFA825"/>
<path d="M510.017 334.293H512.094V343.552L511.884 345.335H510.017V334.293ZM517.033 341.367V341.518C517.033 342.097 516.97 342.629 516.845 343.113C516.725 343.598 516.538 344.017 516.283 344.372C516.028 344.721 515.711 344.995 515.331 345.191C514.956 345.383 514.514 345.479 514.004 345.479C513.528 345.479 513.115 345.383 512.764 345.191C512.418 344.999 512.127 344.729 511.892 344.379C511.656 344.029 511.466 343.619 511.322 343.149C511.178 342.68 511.07 342.167 510.998 341.611V341.28C511.07 340.724 511.178 340.212 511.322 339.742C511.466 339.272 511.656 338.863 511.892 338.513C512.127 338.163 512.418 337.892 512.764 337.7C513.11 337.509 513.519 337.413 513.99 337.413C514.504 337.413 514.951 337.511 515.331 337.708C515.716 337.899 516.033 338.172 516.283 338.527C516.538 338.877 516.725 339.294 516.845 339.778C516.97 340.257 517.033 340.787 517.033 341.367ZM514.956 341.518V341.367C514.956 341.05 514.932 340.753 514.884 340.475C514.841 340.192 514.764 339.946 514.653 339.735C514.543 339.519 514.391 339.349 514.199 339.224C514.012 339.1 513.769 339.037 513.471 339.037C513.187 339.037 512.947 339.085 512.75 339.181C512.553 339.277 512.389 339.411 512.259 339.584C512.134 339.756 512.041 339.962 511.978 340.202C511.916 340.437 511.877 340.696 511.863 340.978V341.92C511.877 342.299 511.94 342.634 512.05 342.927C512.166 343.214 512.339 343.442 512.569 343.609C512.805 343.772 513.11 343.854 513.485 343.854C513.778 343.854 514.021 343.796 514.213 343.681C514.406 343.566 514.555 343.403 514.661 343.193C514.771 342.982 514.848 342.735 514.891 342.452C514.935 342.165 514.956 341.853 514.956 341.518Z" fill="#FFA825"/>
<path d="M521.729 343.185C521.729 343.037 521.686 342.903 521.6 342.783C521.513 342.663 521.352 342.553 521.116 342.452C520.886 342.347 520.552 342.251 520.114 342.165C519.72 342.078 519.352 341.97 519.011 341.841C518.675 341.707 518.381 341.546 518.131 341.359C517.886 341.173 517.694 340.952 517.555 340.698C517.415 340.439 517.345 340.145 517.345 339.814C517.345 339.488 517.415 339.181 517.555 338.894C517.699 338.606 517.903 338.352 518.167 338.132C518.437 337.906 518.763 337.731 519.148 337.607C519.537 337.477 519.975 337.413 520.46 337.413C521.138 337.413 521.72 337.521 522.205 337.736C522.696 337.952 523.071 338.249 523.33 338.628C523.594 339.001 523.727 339.428 523.727 339.907H521.65C521.65 339.706 521.607 339.526 521.52 339.368C521.439 339.205 521.309 339.078 521.131 338.987C520.958 338.891 520.732 338.843 520.453 338.843C520.222 338.843 520.023 338.884 519.855 338.966C519.686 339.042 519.557 339.148 519.465 339.282C519.379 339.411 519.335 339.555 519.335 339.713C519.335 339.833 519.36 339.941 519.408 340.037C519.46 340.128 519.545 340.212 519.66 340.288C519.775 340.365 519.924 340.437 520.107 340.504C520.294 340.566 520.525 340.624 520.799 340.676C521.362 340.792 521.864 340.942 522.306 341.129C522.748 341.311 523.099 341.561 523.359 341.877C523.619 342.189 523.748 342.598 523.748 343.106C523.748 343.451 523.671 343.768 523.518 344.055C523.364 344.343 523.143 344.594 522.854 344.81C522.566 345.021 522.22 345.186 521.816 345.306C521.417 345.421 520.967 345.479 520.468 345.479C519.742 345.479 519.126 345.349 518.622 345.09C518.122 344.832 517.742 344.503 517.482 344.106C517.228 343.703 517.1 343.291 517.1 342.869H519.069C519.078 343.152 519.15 343.379 519.285 343.552C519.424 343.725 519.6 343.849 519.811 343.926C520.028 344.002 520.261 344.041 520.511 344.041C520.78 344.041 521.004 344.005 521.181 343.933C521.359 343.856 521.494 343.756 521.585 343.631C521.681 343.502 521.729 343.353 521.729 343.185Z" fill="#FFA825"/>
<path d="M527.875 345.479C527.27 345.479 526.726 345.383 526.246 345.191C525.765 344.995 525.356 344.724 525.02 344.379C524.688 344.034 524.434 343.633 524.256 343.178C524.078 342.718 523.989 342.229 523.989 341.712V341.424C523.989 340.835 524.073 340.295 524.241 339.807C524.409 339.318 524.65 338.894 524.962 338.534C525.28 338.175 525.664 337.899 526.116 337.708C526.568 337.511 527.077 337.413 527.645 337.413C528.197 337.413 528.688 337.504 529.116 337.686C529.543 337.868 529.901 338.127 530.19 338.462C530.483 338.798 530.704 339.2 530.853 339.67C531.002 340.135 531.077 340.653 531.077 341.223V342.085H524.876V340.705H529.036V340.547C529.036 340.26 528.983 340.003 528.878 339.778C528.777 339.548 528.623 339.366 528.416 339.232C528.209 339.097 527.945 339.03 527.623 339.03C527.349 339.03 527.113 339.09 526.916 339.21C526.719 339.33 526.558 339.498 526.433 339.713C526.313 339.929 526.222 340.183 526.159 340.475C526.102 340.763 526.073 341.079 526.073 341.424V341.712C526.073 342.023 526.116 342.311 526.202 342.574C526.294 342.838 526.421 343.066 526.585 343.257C526.753 343.449 526.955 343.598 527.19 343.703C527.431 343.808 527.702 343.861 528.005 343.861C528.38 343.861 528.729 343.789 529.051 343.645C529.378 343.497 529.659 343.274 529.894 342.977L530.904 344.07C530.74 344.304 530.517 344.53 530.233 344.745C529.954 344.961 529.618 345.138 529.224 345.277C528.83 345.411 528.38 345.479 527.875 345.479Z" fill="#FFA825"/>
<path d="M533.48 339.217V345.335H531.404V337.557H533.351L533.48 339.217ZM533.178 341.173H532.615C532.615 340.597 532.69 340.08 532.839 339.62C532.988 339.155 533.197 338.759 533.466 338.434C533.735 338.103 534.055 337.851 534.425 337.679C534.8 337.501 535.218 337.413 535.68 337.413C536.045 337.413 536.379 337.465 536.682 337.571C536.985 337.676 537.244 337.844 537.461 338.074C537.682 338.304 537.85 338.609 537.965 338.987C538.086 339.366 538.146 339.828 538.146 340.375V345.335H536.055V340.367C536.055 340.022 536.007 339.754 535.91 339.562C535.814 339.371 535.672 339.236 535.485 339.16C535.302 339.078 535.076 339.037 534.807 339.037C534.528 339.037 534.286 339.093 534.079 339.203C533.877 339.313 533.709 339.466 533.574 339.663C533.444 339.855 533.346 340.08 533.279 340.339C533.211 340.597 533.178 340.875 533.178 341.173Z" fill="#FFA825"/>
<path d="M543.131 343.185C543.131 343.037 543.087 342.903 543.001 342.783C542.914 342.663 542.753 342.553 542.518 342.452C542.287 342.347 541.953 342.251 541.516 342.165C541.121 342.078 540.754 341.97 540.412 341.841C540.076 341.707 539.783 341.546 539.533 341.359C539.288 341.173 539.095 340.952 538.956 340.698C538.816 340.439 538.747 340.145 538.747 339.814C538.747 339.488 538.816 339.181 538.956 338.894C539.1 338.606 539.304 338.352 539.569 338.132C539.838 337.906 540.165 337.731 540.549 337.607C540.939 337.477 541.376 337.413 541.862 337.413C542.539 337.413 543.121 337.521 543.607 337.736C544.097 337.952 544.472 338.249 544.731 338.628C544.996 339.001 545.128 339.428 545.128 339.907H543.051C543.051 339.706 543.008 339.526 542.922 339.368C542.84 339.205 542.71 339.078 542.532 338.987C542.359 338.891 542.133 338.843 541.854 338.843C541.624 338.843 541.424 338.884 541.256 338.966C541.088 339.042 540.958 339.148 540.867 339.282C540.78 339.411 540.737 339.555 540.737 339.713C540.737 339.833 540.761 339.941 540.809 340.037C540.862 340.128 540.946 340.212 541.061 340.288C541.177 340.365 541.326 340.437 541.508 340.504C541.696 340.566 541.927 340.624 542.201 340.676C542.763 340.792 543.265 340.942 543.708 341.129C544.15 341.311 544.501 341.561 544.76 341.877C545.02 342.189 545.15 342.598 545.15 343.106C545.15 343.451 545.073 343.768 544.919 344.055C544.765 344.343 544.544 344.594 544.256 344.81C543.967 345.021 543.621 345.186 543.217 345.306C542.818 345.421 542.369 345.479 541.869 345.479C541.143 345.479 540.528 345.349 540.023 345.09C539.523 344.832 539.143 344.503 538.884 344.106C538.629 343.703 538.502 343.291 538.502 342.869H540.47C540.48 343.152 540.552 343.379 540.686 343.552C540.826 343.725 541.001 343.849 541.213 343.926C541.429 344.002 541.662 344.041 541.912 344.041C542.181 344.041 542.405 344.005 542.583 343.933C542.761 343.856 542.895 343.756 542.986 343.631C543.083 343.502 543.131 343.353 543.131 343.185Z" fill="#FFA825"/>
<path d="M547.878 337.557V345.335H545.794V337.557H547.878ZM545.664 335.529C545.664 335.227 545.77 334.978 545.981 334.782C546.193 334.585 546.477 334.487 546.832 334.487C547.183 334.487 547.464 334.585 547.676 334.782C547.892 334.978 548 335.227 548 335.529C548 335.831 547.892 336.08 547.676 336.277C547.464 336.473 547.183 336.572 546.832 336.572C546.477 336.572 546.193 336.473 545.981 336.277C545.77 336.08 545.664 335.831 545.664 335.529Z" fill="#FFA825"/>
<path d="M503.247 352.889C503.247 352.776 503.228 352.677 503.19 352.59C503.154 352.501 503.089 352.422 502.996 352.351C502.905 352.28 502.779 352.212 502.616 352.148C502.456 352.084 502.253 352.019 502.007 351.952C501.749 351.881 501.516 351.803 501.308 351.716C501.1 351.628 500.922 351.527 500.774 351.414C500.626 351.301 500.512 351.171 500.434 351.025C500.355 350.879 500.315 350.711 500.315 350.523C500.315 350.335 500.357 350.161 500.441 350.001C500.524 349.842 500.644 349.703 500.799 349.586C500.957 349.466 501.144 349.373 501.362 349.307C501.579 349.24 501.822 349.207 502.089 349.207C502.481 349.207 502.813 349.277 503.086 349.417C503.361 349.554 503.57 349.734 503.713 349.958C503.857 350.18 503.928 350.417 503.928 350.669H503.24C503.24 350.488 503.198 350.327 503.115 350.187C503.031 350.046 502.904 349.935 502.735 349.855C502.565 349.773 502.35 349.732 502.089 349.732C501.843 349.732 501.64 349.767 501.48 349.835C501.32 349.904 501.201 349.997 501.122 350.114C501.045 350.232 501.007 350.366 501.007 350.516C501.007 350.618 501.03 350.711 501.075 350.796C501.123 350.878 501.196 350.954 501.294 351.025C501.394 351.096 501.521 351.161 501.674 351.221C501.829 351.281 502.014 351.338 502.229 351.394C502.526 351.471 502.781 351.558 502.996 351.653C503.211 351.748 503.388 351.856 503.527 351.975C503.668 352.093 503.772 352.227 503.839 352.377C503.908 352.526 503.943 352.694 503.943 352.883C503.943 353.08 503.9 353.258 503.814 353.418C503.727 353.577 503.604 353.713 503.444 353.826C503.284 353.939 503.092 354.027 502.867 354.089C502.645 354.149 502.397 354.179 502.122 354.179C501.88 354.179 501.643 354.148 501.408 354.086C501.177 354.023 500.965 353.93 500.774 353.806C500.585 353.682 500.434 353.529 500.319 353.348C500.207 353.164 500.15 352.951 500.15 352.71H500.839C500.839 352.876 500.873 353.019 500.943 353.138C501.012 353.256 501.106 353.353 501.226 353.431C501.348 353.508 501.485 353.566 501.638 353.604C501.793 353.639 501.954 353.657 502.122 353.657C502.363 353.657 502.567 353.626 502.735 353.564C502.902 353.502 503.029 353.413 503.115 353.298C503.203 353.183 503.247 353.046 503.247 352.889Z" fill="#FFA825"/>
<path d="M506.41 349.274V354.112H505.719V349.274H506.41Z" fill="#FFA825"/>
<path d="M511.294 352.889C511.294 352.776 511.275 352.677 511.237 352.59C511.201 352.501 511.136 352.422 511.043 352.351C510.952 352.28 510.826 352.212 510.663 352.148C510.503 352.084 510.3 352.019 510.054 351.952C509.796 351.881 509.563 351.803 509.355 351.716C509.147 351.628 508.969 351.527 508.821 351.414C508.673 351.301 508.559 351.171 508.48 351.025C508.402 350.879 508.362 350.711 508.362 350.523C508.362 350.335 508.404 350.161 508.488 350.001C508.571 349.842 508.691 349.703 508.846 349.586C509.004 349.466 509.191 349.373 509.409 349.307C509.626 349.24 509.869 349.207 510.136 349.207C510.528 349.207 510.86 349.277 511.133 349.417C511.408 349.554 511.617 349.734 511.76 349.958C511.903 350.18 511.975 350.417 511.975 350.669H511.287C511.287 350.488 511.245 350.327 511.161 350.187C511.078 350.046 510.951 349.935 510.781 349.855C510.612 349.773 510.397 349.732 510.136 349.732C509.89 349.732 509.687 349.767 509.527 349.835C509.367 349.904 509.247 349.997 509.169 350.114C509.092 350.232 509.054 350.366 509.054 350.516C509.054 350.618 509.077 350.711 509.122 350.796C509.17 350.878 509.243 350.954 509.341 351.025C509.441 351.096 509.568 351.161 509.721 351.221C509.876 351.281 510.061 351.338 510.276 351.394C510.572 351.471 510.828 351.558 511.043 351.653C511.258 351.748 511.435 351.856 511.574 351.975C511.715 352.093 511.819 352.227 511.885 352.377C511.955 352.526 511.989 352.694 511.989 352.883C511.989 353.08 511.946 353.258 511.86 353.418C511.774 353.577 511.651 353.713 511.491 353.826C511.331 353.939 511.139 354.027 510.914 354.089C510.692 354.149 510.443 354.179 510.169 354.179C509.927 354.179 509.689 354.148 509.455 354.086C509.223 354.023 509.012 353.93 508.821 353.806C508.632 353.682 508.48 353.529 508.366 353.348C508.253 353.164 508.197 352.951 508.197 352.71H508.885C508.885 352.876 508.92 353.019 508.989 353.138C509.059 353.256 509.153 353.353 509.272 353.431C509.394 353.508 509.532 353.566 509.685 353.604C509.84 353.639 510.001 353.657 510.169 353.657C510.41 353.657 510.614 353.626 510.781 353.564C510.949 353.502 511.075 353.413 511.161 353.298C511.25 353.183 511.294 353.046 511.294 352.889Z" fill="#FFA825"/>
<path d="M515.088 352.65L516.124 349.274H516.626L516.335 350.586L515.221 354.112H514.722L515.088 352.65ZM514.016 349.274L514.841 352.583L515.088 354.112H514.593L513.328 349.274H514.016ZM517.966 352.58L518.773 349.274H519.464L518.203 354.112H517.708L517.966 352.58ZM516.701 349.274L517.708 352.65L518.074 354.112H517.575L516.5 350.586L516.206 349.274H516.701Z" fill="#FFA825"/>
<path d="M522.85 349.702L521.122 354.112H520.416L522.405 349.274H522.861L522.85 349.702ZM524.298 354.112L522.567 349.702L522.556 349.274H523.011L525.008 354.112H524.298ZM524.208 352.321V352.846H521.276V352.321H524.208Z" fill="#FFA825"/>
<path d="M245.771 310.903C242.005 311.916 238.65 314.084 236.181 317.104C235.047 318.525 233.63 319.696 232.021 320.544C226.531 323.544 214.871 331.333 215.161 344.383C215.161 344.383 210.761 374.823 219.091 396.933C219.224 397.282 219.437 397.595 219.713 397.847C219.988 398.1 220.319 398.284 220.678 398.386C221.037 398.488 221.415 398.505 221.782 398.435C222.149 398.365 222.495 398.21 222.791 397.984C227.161 394.58 232.106 391.989 237.391 390.333V419.044C237.391 419.259 237.435 419.473 237.519 419.671C237.604 419.869 237.729 420.048 237.885 420.197C238.041 420.346 238.226 420.461 238.428 420.536C238.63 420.611 238.846 420.644 239.061 420.633C249.821 420.093 309.061 416.874 314.061 411.824L312.211 394.413L331.291 365.813C331.291 365.813 314.801 344.013 309.981 327.713C309.981 327.713 302.571 309.923 279.601 308.443C279.631 308.473 266.001 305.573 245.771 310.903Z" fill="#F29100"/>
<path opacity="0.2" d="M241.461 316.593C245.838 321.297 251.476 324.643 257.701 326.234L257.281 326.574C257.471 322.864 258.831 319.004 261.771 316.574C259.22 319.434 257.86 323.162 257.971 326.993C251.402 325.611 245.545 321.922 241.461 316.593V316.593Z" fill="black"/>
<path opacity="0.2" d="M274.151 320.303C276.561 320.443 279.451 320.463 281.211 318.583L281.261 319.114C280.622 318.595 280.048 318 279.551 317.343C278.52 316.06 277.866 314.516 277.661 312.883C277.573 312.08 277.627 311.268 277.821 310.484C277.821 310.694 277.821 311.173 277.821 311.373C277.905 312.629 278.245 313.855 278.821 314.973C279.595 316.448 280.668 317.746 281.971 318.783L281.731 319.053C279.811 321.113 276.621 321.053 274.121 320.303H274.151Z" fill="black"/>
<path d="M317.171 390.243L322.551 360.663L341.511 354.764L334.971 390.243H317.171Z" fill="#F29100"/>
<path opacity="0.4" d="M317.171 390.243L322.551 360.663L341.511 354.764L334.971 390.243H317.171Z" fill="white"/>
<path d="M312.661 390.243L319.281 357.354L336.691 352.174L341.511 354.764L322.551 360.663L317.171 390.243H312.661Z" fill="#F29100"/>
<path opacity="0.5" d="M312.661 390.243L319.281 357.354L336.691 352.174L341.511 354.764L322.551 360.663L317.171 390.243H312.661Z" fill="white"/>
<path d="M313.101 402.473L313.541 406.574C318.385 408.492 323.693 408.917 328.781 407.794C332.904 406.864 336.496 404.35 338.781 400.794C339.952 399.062 340.602 397.032 340.655 394.942C340.708 392.853 340.162 390.792 339.081 389.003L312.311 395.104L313.101 402.473Z" fill="#F7A48B"/>
<path opacity="0.2" d="M301.861 343.273C301.923 344.964 302.08 346.65 302.331 348.324C302.998 353.364 303.728 358.39 304.521 363.403C305.499 370.1 306.834 376.74 308.521 383.294C306.59 376.8 305.13 370.177 304.151 363.473C303.361 358.473 302.671 353.424 302.151 348.364C301.936 346.682 301.836 344.988 301.851 343.294L301.861 343.273Z" fill="black"/>
<path opacity="0.2" d="M309.641 348.833C310.461 356.833 311.031 370.833 307.091 377.883C307.641 376.798 308.067 375.654 308.361 374.473C309.215 370.9 309.688 367.246 309.771 363.574C310.001 358.674 309.891 353.764 309.641 348.864V348.833Z" fill="black"/>
<path d="M318.911 562.244V630.473C314.091 629.363 304.831 633.073 304.831 633.073C297.688 632.495 290.502 633.376 283.711 635.663C280.771 631.843 271.541 631.754 267.851 631.874H267.651C266.801 631.874 266.291 631.943 266.291 631.943C262.291 632.753 258.441 633.423 255.411 633.943C251.413 634.602 247.503 635.706 243.751 637.234C239.301 639.034 238.831 638.513 238.831 638.513C232.131 631.713 239.341 561.653 239.341 561.653C238.842 560.807 238.44 559.909 238.141 558.973C235.231 550.213 237.761 534.523 237.761 534.523L240.931 420.593C243.931 420.513 246.821 420.413 249.691 420.283H249.791C270.004 419.381 290.137 417.157 310.061 413.623C313.061 441.683 316.681 493.394 316.681 493.394L318.571 551.903L318.911 562.244Z" fill="#2F2E41"/>
<path opacity="0.2" d="M246.461 501.894C247.639 506.584 247.198 511.535 245.211 515.943C245.211 515.943 241.771 521.463 243.661 524.943C244.518 526.442 244.849 528.185 244.601 529.893C244.184 532.283 243.111 534.509 241.501 536.323C241.003 536.995 240.677 537.778 240.552 538.604C240.426 539.43 240.505 540.275 240.781 541.064C241.016 541.831 241.4 542.544 241.911 543.163C242.801 544.313 244.411 548.254 238.181 558.924C235.271 550.164 237.801 534.473 237.801 534.473L240.971 420.544L249.731 420.234H249.831C249.831 420.234 241.501 450.733 243.361 481.854C243.321 481.854 244.711 496.364 246.461 501.894Z" fill="black"/>
<path opacity="0.2" d="M318.911 562.244V630.473C314.091 629.363 304.831 633.073 304.831 633.073C297.688 632.495 290.502 633.376 283.711 635.663C280.771 631.843 271.541 631.754 267.851 631.874C268.921 631.754 274.031 630.273 273.701 612.693C273.701 612.693 277.411 566.003 275.921 549.693C275.921 549.693 275.061 546.564 276.091 539.604C276.523 536.832 277.268 534.118 278.311 531.513C279.071 529.513 279.951 524.873 279.311 513.753L278.931 450.473C278.931 450.473 277.411 438.473 285.931 436.653L283.711 602.283C283.711 602.283 279.301 633.284 288.171 631.854L307.051 628.223C307.051 628.223 316.681 629.703 315.571 618.223C315.571 618.223 313.791 570.364 318.571 551.874L318.911 562.244Z" fill="black"/>
<path d="M283.711 650.083L255.911 649.344C238.871 647.474 238.831 638.474 238.831 638.474C239.831 638.584 242.091 637.824 244.191 636.974C247.761 635.528 251.475 634.468 255.271 633.814L266.271 631.934L267.831 631.854C280.831 631.404 283.691 635.643 283.691 635.643C284.774 637.319 285.688 639.098 286.421 640.953C289.461 649.033 283.711 650.083 283.711 650.083Z" fill="#F29100"/>
<path opacity="0.2" d="M283.711 650.084L255.911 649.344C238.871 647.474 238.831 638.474 238.831 638.474C238.831 638.474 246.471 649.474 261.311 645.474C261.656 645.376 261.991 645.245 262.311 645.084L262.751 644.874C265.207 643.674 267.594 642.339 269.901 640.874C272.354 639.252 275.233 638.397 278.173 638.416C281.113 638.436 283.98 639.33 286.411 640.984C289.461 649.034 283.711 650.084 283.711 650.084Z" fill="black"/>
<path d="M334.401 643.713C334.452 644.288 334.383 644.867 334.199 645.413C334.014 645.959 333.717 646.461 333.328 646.887C332.938 647.312 332.464 647.651 331.936 647.883C331.408 648.115 330.838 648.234 330.261 648.233H305.941C294.051 648.233 289.281 642.493 287.401 638.533C286.823 637.37 286.422 636.126 286.211 634.843C293.911 631.103 304.831 633.043 304.831 633.043C314.681 629.143 318.911 630.443 318.911 630.443C327.581 630.963 331.501 634.894 333.221 638.924C333.858 640.45 334.256 642.066 334.401 643.713V643.713Z" fill="#F29100"/>
<path opacity="0.2" d="M334.401 643.713C334.453 644.288 334.384 644.867 334.199 645.413C334.014 645.959 333.718 646.461 333.328 646.886C332.939 647.312 332.465 647.651 331.937 647.883C331.409 648.115 330.838 648.234 330.261 648.233H305.941C294.051 648.233 289.281 642.493 287.401 638.533C287.641 638.743 298.091 647.663 315.401 640.943C325.681 636.943 330.751 637.663 333.181 638.943C333.83 640.461 334.242 642.07 334.401 643.713V643.713Z" fill="black"/>
<path d="M266.877 300.22C278.014 299.255 285.854 284.758 284.389 267.838C282.923 250.919 272.707 237.985 261.571 238.949C250.434 239.914 242.594 254.412 244.06 271.331C245.525 288.25 255.741 301.184 266.877 300.22Z" fill="#F9B499"/>
<path d="M243.691 287.694L245.911 312.523H257.201C257.201 312.523 261.471 311.413 265.551 315.523L271.481 320.344C271.481 320.344 272.221 317.753 269.251 310.344C268.023 307.108 267.219 303.726 266.861 300.284C266.861 300.284 255.011 301.713 247.861 286.023C247.861 285.973 247.021 287.324 243.691 287.694Z" fill="#F9B499"/>
<path d="M253.831 294.803C253.831 294.803 251.471 306.173 269.831 311.753C269.831 311.753 267.091 305.354 266.881 300.234C266.861 300.234 259.901 301.173 253.831 294.803Z" fill="#F7A48B"/>
<path d="M248.691 275.833C248.691 275.833 246.691 268.053 250.691 265.463L258.471 260.643C258.471 260.643 265.141 265.063 269.771 258.963C271.818 259.719 274.008 260.008 276.181 259.809C278.354 259.61 280.456 258.928 282.331 257.813C282.331 257.813 276.431 238.003 261.521 238.953C261.521 238.953 244.021 239.253 243.651 269.593L244.651 275.833C245.962 276.273 247.381 276.273 248.691 275.833Z" fill="#F7A48B"/>
<path d="M244.161 293.023C244.161 293.023 211.081 276.584 229.611 257.684C229.611 257.684 221.831 251.384 232.201 250.684C232.201 250.684 229.611 239.564 236.651 239.934C236.651 239.934 235.541 245.764 237.761 246.184C237.761 246.184 258.141 221.034 265.551 237.714C265.551 237.714 287.041 236.974 283.711 255.504C283.711 255.504 278.151 251.793 276.711 255.873C276.711 255.873 274.491 259.464 269.851 256.004C269.851 256.004 265.451 260.744 261.851 259.604C260.89 258.906 260.092 258.009 259.511 256.974C259.345 256.675 259.073 256.45 258.748 256.344C258.423 256.238 258.07 256.26 257.761 256.403C253.921 258.183 242.411 264.094 245.561 269.634L248.771 275.873C248.152 276.191 247.466 276.357 246.771 276.357C246.075 276.357 245.389 276.191 244.771 275.873L243.771 287.734L244.161 293.023Z" fill="#2F2E41"/>
<path d="M243.691 287.693C246.966 287.693 249.621 285.039 249.621 281.764C249.621 278.488 246.966 275.833 243.691 275.833C240.416 275.833 237.761 278.488 237.761 281.764C237.761 285.039 240.416 287.693 243.691 287.693Z" fill="#F9B499"/>
<path d="M331.881 388.473C331.881 388.473 335.381 388.563 335.661 386.473L337.851 374.603C337.851 374.603 341.041 371.714 340.721 377.864C340.313 380.287 340.085 382.737 340.041 385.193C340.041 385.193 340.041 393.653 330.391 394.023L323.141 394.153V388.533L331.881 388.473Z" fill="#F9B499"/>
<path d="M331.881 388.473C331.881 391.473 326.321 391.473 326.321 391.473C324.091 392.213 325.211 392.963 325.211 392.963C331.511 391.843 330.391 394.073 330.391 394.073C330.761 395.923 325.951 396.293 325.951 396.293C325.251 396.183 324.537 396.217 323.851 396.394C323.718 396.415 323.599 396.488 323.521 396.597C323.442 396.705 323.409 396.841 323.431 396.973C323.452 397.106 323.525 397.225 323.634 397.304C323.742 397.382 323.878 397.415 324.011 397.394C325.18 397.351 326.352 397.411 327.511 397.573C327.741 397.614 327.951 397.728 328.112 397.898C328.272 398.067 328.374 398.284 328.402 398.516C328.43 398.748 328.383 398.983 328.267 399.185C328.152 399.388 327.974 399.549 327.761 399.644C320.761 402.644 311.501 402.644 311.501 402.644L280.001 416.353C257.401 425.983 255.171 422.653 255.171 422.653C241.831 418.203 225.971 395.823 225.971 395.823C233.456 390.904 242.149 388.137 251.101 387.823C255.171 393.383 262.581 394.493 262.581 394.493C274.071 390.413 308.531 383.373 308.531 383.373C311.761 382.873 314.991 380.043 316.771 378.233C316.9 378.102 317.067 378.013 317.248 377.979C317.43 377.945 317.618 377.968 317.786 378.044C317.954 378.121 318.095 378.247 318.189 378.406C318.282 378.565 318.325 378.749 318.311 378.933C318.143 380.474 317.717 381.975 317.051 383.373C316.988 383.646 317.031 383.932 317.171 384.174V384.174C317.461 384.594 318.171 384.464 318.951 384.174C320.1 383.697 321.126 382.965 321.951 382.033C322.988 380.764 324.279 379.725 325.741 378.983C326.107 378.821 326.517 378.785 326.906 378.881C327.295 378.977 327.642 379.2 327.891 379.513C328.11 379.783 328.249 380.11 328.289 380.455C328.33 380.8 328.272 381.15 328.121 381.463C326.961 383.913 323.681 386.723 323.681 386.723C332.621 384.403 331.881 388.473 331.881 388.473Z" fill="#F9B499"/>
<path d="M327.931 379.473L324.091 382.963C319.181 386.903 317.491 384.694 317.171 384.134C317.461 384.554 318.171 384.424 318.951 384.134C320.1 383.657 321.126 382.925 321.951 381.993C322.988 380.724 324.279 379.685 325.741 378.943C326.112 378.771 326.531 378.73 326.928 378.826C327.326 378.922 327.68 379.151 327.931 379.473V379.473Z" fill="#F7A48B"/>
<path d="M225.971 395.743C225.971 395.743 244.631 407.663 263.241 394.183C260.879 394.02 258.578 393.362 256.487 392.252C254.396 391.143 252.561 389.607 251.101 387.743C251.101 387.743 240.201 386.803 225.971 395.743Z" fill="#F7A48B"/>
</svg>
