<svg width="866" height="683" viewBox="0 0 866 683" fill="none" xmlns="http://www.w3.org/2000/svg">
<path d="M696.23 444.51H688.57V581.32H696.23V444.51Z" fill="#D1D3D4"/>
<path d="M714.1 272.82H759.14V420.23H703.63L714.1 272.82Z" fill="#D1D3D4"/>
<path d="M755.92 276.78V420.23H769.65L772.12 276.92C772.139 275.845 771.943 274.776 771.544 273.777C771.145 272.778 770.552 271.869 769.798 271.102C769.044 270.335 768.144 269.725 767.152 269.31C766.16 268.894 765.096 268.68 764.02 268.68V268.68C761.872 268.68 759.811 269.533 758.292 271.052C756.773 272.571 755.92 274.632 755.92 276.78V276.78Z" fill="#BCBEC0"/>
<path d="M769.65 420.23V444.84C769.65 446.659 768.928 448.404 767.641 449.691C766.355 450.977 764.61 451.7 762.79 451.7H604.44V420.23H769.65Z" fill="#BCBEC0"/>
<path d="M582.08 582.41L581.71 586.11H637.56V582.41H582.08Z" fill="#2F2E41"/>
<path d="M568.77 581.32H513.89V586.11H568.77V581.32Z" fill="#2F2E41"/>
<path d="M616.06 554.09L614.76 565.42C614.76 565.42 617.37 564.76 618.24 572.17C618.24 572.17 625.87 567.59 636.98 572.17L638.5 554.09H616.06Z" fill="#F9B499"/>
<path d="M582.08 582.41H637.63C638.371 579.003 638.146 575.456 636.98 572.17C636.98 572.17 626.98 567.38 618.24 572.17C618.24 572.17 618.68 567.17 614.76 565.42C614.76 565.42 614.05 562.64 611.19 564.52C610.219 565.182 609.191 565.758 608.12 566.24C601.22 569.2 578.56 579.26 582.08 582.41Z" fill="#F29100"/>
<path d="M552.01 555.39L546.79 568.36L549.4 576.2L567.37 574.89L573.91 557.25L552.01 555.39Z" fill="#F9B499"/>
<path d="M513.89 581.32H568.79C568.79 581.32 570.79 573.48 564.65 570.64C564.65 570.64 554.85 568.64 550.05 572.17C550.05 572.17 548.97 563.62 543.95 563.87C544 563.87 511.93 576.31 513.89 581.32Z" fill="#F29100"/>
<path d="M646.78 336.89V320.55C636.32 316.85 630.78 305.08 630.78 305.08L623.78 317.72C618 328 610.18 330.79 610.18 330.79L600.38 305.3C603.21 303.12 612.14 278.3 612.14 278.3C617.37 256.51 638.14 248.13 638.14 248.13C638.14 248.13 667.73 243.6 679.64 243.23C679.64 243.23 715.86 241.05 720.43 271.33C720.43 271.33 729.8 311.52 733.07 341.58C733.07 341.58 733.49 348.17 727.07 350.43H663.77C663.77 350.43 664.21 338.64 662.03 329.82L705.6 325.57C705.6 325.57 716.71 323.57 721.28 334.07" fill="#F29100"/>
<path d="M828.93 350.42H382.33V365.25H828.93V350.42Z" fill="#CCCCCC"/>
<path d="M812.32 365.25H396.56V393.13H812.32V365.25Z" fill="#CCCCCC"/>
<path opacity="0.2" d="M812.32 365.25H396.56V393.13H812.32V365.25Z" fill="black"/>
<path d="M420.03 393.12H408.17V588.25H420.03V393.12Z" fill="#CCCCCC"/>
<path d="M801.67 393.12H789.81V588.25H801.67V393.12Z" fill="#CCCCCC"/>
<path d="M643.6 244.4C643.594 246.432 643.995 248.445 644.78 250.32C646.51 254.45 649.94 261.63 653.78 264.13C656.118 260.619 659.46 257.894 663.37 256.31C664.156 256.003 664.957 255.736 665.77 255.51C667.77 254.91 674.92 251.74 673.98 237.51V229.66L665.27 220.31L643.6 244.4Z" fill="#F9B499"/>
<path d="M641.22 265.44C641.22 265.44 646.22 259.68 651.8 262.44C651.8 262.44 645.03 254.13 643.62 245.26C641.673 245.994 639.826 246.968 638.12 248.16C638.12 248.16 638.45 261 641.22 265.44Z" fill="#2F2E41"/>
<path d="M655.11 262.36C660.621 261.913 666.085 263.664 670.31 267.23C670.31 267.23 677.82 259.06 679.62 243.23C679.62 243.23 679.43 241.1 674.01 236.36C674.01 236.36 674.48 250 668.16 254.29C667.167 254.935 666.076 255.418 664.93 255.72C663.27 256.18 659.4 257.72 655.11 262.36Z" fill="#2F2E41"/>
<path d="M703.36 325.92C690.36 305.35 692.2 282.63 692.22 282.4L692.84 282.46C692.84 282.68 691.02 305.2 703.84 325.59L703.36 325.92Z" fill="#2F2E41"/>
<path d="M672.33 324.41C662.736 306.719 656.776 287.288 654.8 267.26L655.43 267.21C657.402 287.143 663.327 306.483 672.86 324.1L672.33 324.41Z" fill="#2F2E41"/>
<path d="M665.3 297.53C666.1 297.53 666.75 296.881 666.75 296.08C666.75 295.279 666.1 294.63 665.3 294.63C664.499 294.63 663.85 295.279 663.85 296.08C663.85 296.881 664.499 297.53 665.3 297.53Z" fill="#2F2E41"/>
<path d="M658.16 268.68C658.961 268.68 659.61 268.031 659.61 267.23C659.61 266.429 658.961 265.78 658.16 265.78C657.359 265.78 656.71 266.429 656.71 267.23C656.71 268.031 657.359 268.68 658.16 268.68Z" fill="#2F2E41"/>
<path d="M660.3 282.43C661.1 282.43 661.75 281.781 661.75 280.98C661.75 280.179 661.1 279.53 660.3 279.53C659.499 279.53 658.85 280.179 658.85 280.98C658.85 281.781 659.499 282.43 660.3 282.43Z" fill="#2F2E41"/>
<path d="M531.64 350.42L508.95 290.84H595.28L617.42 350.42H531.64Z" fill="#2F2E41"/>
<path d="M663.73 343.64L663.77 350.42H617.42L614.9 343.64H663.73Z" fill="#2F2E41"/>
<path opacity="0.2" d="M663.73 343.64L663.77 350.42H617.42L614.9 343.64H663.73Z" fill="black"/>
<path d="M645 393.12C645 393.12 619.15 394.62 621.33 427.73L613.13 554.27C613.113 554.411 613.126 554.554 613.169 554.69C613.212 554.825 613.282 554.95 613.377 555.056C613.472 555.162 613.588 555.247 613.718 555.304C613.848 555.362 613.988 555.391 614.13 555.39H644C644.261 555.376 644.507 555.266 644.691 555.081C644.876 554.897 644.986 554.651 645 554.39L651.78 445.14C651.78 445.14 649.78 423.36 672.58 425.97C672.58 425.97 720.19 431.69 733.03 393.1L645 393.12Z" fill="#2F2E41"/>
<path d="M549.3 558L575.74 559.83C575.961 559.84 576.178 559.777 576.359 559.65C576.54 559.524 576.674 559.341 576.74 559.13L614.74 434.73C614.74 434.73 617.13 427.56 621.16 425.26C621.16 425.26 618.93 396.66 644.94 393.14H600.38C600.38 393.14 588.61 399.14 586.98 415.14L548.41 556.74C548.371 556.882 548.365 557.031 548.39 557.176C548.416 557.322 548.473 557.459 548.558 557.58C548.643 557.7 548.754 557.8 548.882 557.873C549.01 557.946 549.153 557.989 549.3 558Z" fill="#2F2E41"/>
<path opacity="0.2" d="M549.3 558L575.74 559.83C575.961 559.84 576.178 559.777 576.359 559.65C576.54 559.524 576.674 559.341 576.74 559.13L614.74 434.73C614.74 434.73 617.13 427.56 621.16 425.26C621.16 425.26 618.93 396.66 644.94 393.14H600.38C600.38 393.14 588.61 399.14 586.98 415.14L548.41 556.74C548.371 556.882 548.365 557.031 548.39 557.176C548.416 557.322 548.473 557.459 548.558 557.58C548.643 557.7 548.754 557.8 548.882 557.873C549.01 557.946 549.153 557.989 549.3 558Z" fill="black"/>
<path d="M472.54 99.65H237.09C225.183 99.65 215.53 109.303 215.53 121.21V566.79C215.53 578.697 225.183 588.35 237.09 588.35H472.54C484.448 588.35 494.1 578.697 494.1 566.79V121.21C494.1 109.303 484.448 99.65 472.54 99.65Z" fill="#2F2E41"/>
<path opacity="0.2" d="M472.54 99.65H237.09C225.183 99.65 215.53 109.303 215.53 121.21V566.79C215.53 578.697 225.183 588.35 237.09 588.35H472.54C484.448 588.35 494.1 578.697 494.1 566.79V121.21C494.1 109.303 484.448 99.65 472.54 99.65Z" fill="black"/>
<path d="M450.93 99.65H215.48C203.573 99.65 193.92 109.303 193.92 121.21V566.79C193.92 578.697 203.573 588.35 215.48 588.35H450.93C462.837 588.35 472.49 578.697 472.49 566.79V121.21C472.49 109.303 462.837 99.65 450.93 99.65Z" fill="#2F2E41"/>
<path d="M452.19 153.88H211.78V540.91H452.19V153.88Z" fill="white"/>
<path d="M438.04 168.77H224.43V239.48H438.04V168.77Z" fill="#D1D3D4"/>
<path d="M438.04 254.74H224.43V325.45H438.04V254.74Z" fill="#BCBEC0"/>
<path d="M438.79 426.68H225.18V497.39H438.79V426.68Z" fill="#BCBEC0"/>
<path d="M541.43 340.71H327.82V411.42H541.43V340.71Z" fill="#D1D3D4"/>
<path d="M531 349H337V404H531V349Z" fill="white"/>
<path d="M254.21 194.55V179.59H273.71V194.55H289.13V214.05H273.71V229.01H254.21V213.6H239.25V195.01L254.21 194.55Z" fill="white"/>
<path d="M394.41 179.59H315.35C312.39 179.59 309.99 181.99 309.99 184.95V185.57C309.99 188.53 312.39 190.93 315.35 190.93H394.41C397.37 190.93 399.77 188.53 399.77 185.57V184.95C399.77 181.99 397.37 179.59 394.41 179.59Z" fill="white"/>
<path d="M374.01 275.72H315.35C312.39 275.72 309.99 278.12 309.99 281.08V281.7C309.99 284.66 312.39 287.06 315.35 287.06H374.01C376.97 287.06 379.37 284.66 379.37 281.7V281.08C379.37 278.12 376.97 275.72 374.01 275.72Z" fill="white"/>
<path d="M413.45 294.76H315.35C312.39 294.76 309.99 297.16 309.99 300.12V300.74C309.99 303.7 312.39 306.1 315.35 306.1H413.45C416.41 306.1 418.81 303.7 418.81 300.74V300.12C418.81 297.16 416.41 294.76 413.45 294.76Z" fill="white"/>
<path d="M492.601 362H455.399C453.522 362 452 364.328 452 367.199V367.801C452 370.672 453.522 373 455.399 373H492.601C494.478 373 496 370.672 496 367.801V367.199C496 364.328 494.478 362 492.601 362Z" fill="#D1D3D4"/>
<path d="M517.601 381H455.399C453.522 381 452 383.328 452 386.199V386.801C452 389.672 453.522 392 455.399 392H517.601C519.478 392 521 389.672 521 386.801V386.199C521 383.328 519.478 381 517.601 381Z" fill="#D1D3D4"/>
<path d="M393.96 447.75H315.35C312.39 447.75 309.99 450.15 309.99 453.11V453.73C309.99 456.69 312.39 459.09 315.35 459.09H393.96C396.92 459.09 399.32 456.69 399.32 453.73V453.11C399.32 450.15 396.92 447.75 393.96 447.75Z" fill="white"/>
<path d="M361.31 467.1H315.35C312.39 467.1 309.99 469.5 309.99 472.46V473.08C309.99 476.04 312.39 478.44 315.35 478.44H361.31C364.27 478.44 366.67 476.04 366.67 473.08V472.46C366.67 469.5 364.27 467.1 361.31 467.1Z" fill="white"/>
<path d="M360.85 198.63H315.29C312.329 198.63 309.93 201.03 309.93 203.99V204.61C309.93 207.57 312.329 209.97 315.29 209.97H360.85C363.81 209.97 366.21 207.57 366.21 204.61V203.99C366.21 201.03 363.81 198.63 360.85 198.63Z" fill="white"/>
<path d="M360.85 217.68H315.29C312.329 217.68 309.93 220.08 309.93 223.04V223.66C309.93 226.62 312.329 229.02 315.29 229.02H360.85C363.81 229.02 366.21 226.62 366.21 223.66V223.04C366.21 220.08 363.81 217.68 360.85 217.68Z" fill="white"/>
<path d="M268.27 313.35L287.68 288C288.739 286.658 289.522 285.12 289.986 283.474C290.449 281.828 290.583 280.108 290.38 278.41C289.821 274.816 287.916 271.57 285.05 269.33C285.05 269.33 277.79 262.53 268.27 272.05C268.27 272.05 255.57 259.36 246.51 273.41C245.068 275.888 244.561 278.8 245.08 281.62C245.474 283.633 246.357 285.518 247.65 287.11L268.27 313.35Z" fill="white"/>
<path d="M270.3 487.02C283.024 487.02 293.34 476.261 293.34 462.99C293.34 449.719 283.024 438.96 270.3 438.96C257.575 438.96 247.26 449.719 247.26 462.99C247.26 476.261 257.575 487.02 270.3 487.02Z" fill="#CCCCCC"/>
<path d="M260.11 439V487C254.485 485.638 249.433 482.538 245.67 478.14C242.358 474.14 240.437 469.169 240.199 463.981C239.961 458.792 241.418 453.667 244.35 449.38C247.28 445.18 252.11 441.07 260.11 439Z" fill="white"/>
<path d="M267.92 487V439C273.539 440.363 278.588 443.459 282.35 447.85C285.666 451.849 287.589 456.818 287.829 462.007C288.069 467.196 286.612 472.322 283.68 476.61C280.75 480.8 275.91 484.9 267.92 487Z" fill="white"/>
<path d="M267.92 438.96H260.11V487.02H267.92V438.96Z" fill="#CCCCCC"/>
<path d="M360.84 120.75H302.61C299.639 120.75 297.23 123.156 297.23 126.125C297.23 129.094 299.639 131.5 302.61 131.5H360.84C363.812 131.5 366.22 129.094 366.22 126.125C366.22 123.156 363.812 120.75 360.84 120.75Z" fill="#3F3D56"/>
<path d="M390.44 134.4C395.007 134.4 398.71 130.697 398.71 126.13C398.71 121.563 395.007 117.86 390.44 117.86C385.873 117.86 382.17 121.563 382.17 126.13C382.17 130.697 385.873 134.4 390.44 134.4Z" fill="#3F3D56"/>
<path d="M635 343.64C635 343.64 638.93 335.58 651.78 335.15H663C663.409 337.963 663.647 340.798 663.71 343.64H635Z" fill="#F9B499"/>
<path d="M643.6 242.52C643.596 243.794 643.673 245.066 643.83 246.33C643.83 246.33 659.4 248.28 661.5 235.89L643.6 242.52Z" fill="#F7A78D"/>
<path d="M648.02 245.22C657.564 245.22 665.3 234.063 665.3 220.3C665.3 206.537 657.564 195.38 648.02 195.38C638.477 195.38 630.74 206.537 630.74 220.3C630.74 234.063 638.477 245.22 648.02 245.22Z" fill="#F9B499"/>
<path d="M674 210.1C673.78 194.2 668.55 190.5 668.55 190.5C660.06 180.91 636.75 190.71 636.75 190.71C631.08 189.84 635.01 184.61 635.01 184.61C635.01 184.61 622.83 188.95 625.01 197.61C625.384 199.025 626.077 200.335 627.035 201.441C627.994 202.547 629.193 203.419 630.54 203.99C633.47 205.24 638.26 206.11 645.22 203.99C645.22 203.99 660.02 200.93 663.51 213.79C663.51 213.79 665.26 231.11 673.97 229.64L674 210.1Z" fill="#2F2E41"/>
<path d="M665.3 221.43C667.106 221.43 668.57 219.576 668.57 217.29C668.57 215.004 667.106 213.15 665.3 213.15C663.494 213.15 662.03 215.004 662.03 217.29C662.03 219.576 663.494 221.43 665.3 221.43Z" fill="#F9B499"/>
<path d="M662.07 330.12L661.99 329.5C662.3 329.5 692.72 325.76 701.91 325.61V326.23C692.77 326.39 662.37 330.08 662.07 330.12Z" fill="#2F2E41"/>
<path d="M685.89 576.2H698.89C702.086 576.2 705.151 577.47 707.411 579.729C709.671 581.989 710.94 585.054 710.94 588.25V588.25H673.83C673.83 586.667 674.142 585.099 674.748 583.636C675.354 582.174 676.243 580.845 677.363 579.726C678.483 578.607 679.813 577.719 681.276 577.114C682.739 576.509 684.307 576.199 685.89 576.2Z" fill="#BCBEC0"/>
<path d="M375.657 380.271C375.657 387.822 369.536 393.943 361.986 393.943C354.435 393.943 348.314 387.822 348.314 380.271C348.314 372.721 354.435 366.6 361.986 366.6C369.536 366.6 375.657 372.721 375.657 380.271Z" fill="#F29100"/>
<path fill-rule="evenodd" clip-rule="evenodd" d="M361.986 394.503C369.845 394.503 376.217 388.131 376.217 380.271C376.217 372.412 369.845 366.04 361.986 366.04C354.126 366.04 347.754 372.412 347.754 380.271C347.754 388.131 354.126 394.503 361.986 394.503ZM361.986 397.257C371.367 397.257 378.971 389.652 378.971 380.271C378.971 370.89 371.367 363.286 361.986 363.286C352.605 363.286 345 370.89 345 380.271C345 389.652 352.605 397.257 361.986 397.257Z" fill="#C4C4C4" fill-opacity="0.17"/>
<path fill-rule="evenodd" clip-rule="evenodd" d="M386.053 356.725C389.364 359.417 389.876 364.298 387.198 367.626L369.182 390.008C365.984 393.982 360.02 394.172 356.578 390.41L348.693 381.794C345.81 378.643 346.014 373.74 349.148 370.842C352.283 367.944 357.161 368.149 360.044 371.3L362.363 373.834L375.208 357.876C377.887 354.548 382.742 354.033 386.053 356.725Z" fill="white"/>
<path fill-rule="evenodd" clip-rule="evenodd" d="M383.865 359.336C385.872 360.929 386.183 363.818 384.559 365.788L366.359 387.871C364.325 390.339 360.532 390.457 358.342 388.12L350.376 379.619C348.629 377.754 348.753 374.852 350.652 373.136C352.552 371.421 355.509 371.542 357.257 373.407L362.044 378.517L377.292 360.017C378.915 358.047 381.858 357.742 383.865 359.336Z" fill="#F29100"/>
<path fill-rule="evenodd" clip-rule="evenodd" d="M385.6 361.956C385.391 360.956 384.836 360.018 383.955 359.327C381.943 357.747 378.992 358.049 377.364 360.002L362.078 378.341L357.278 373.276C355.526 371.427 352.561 371.307 350.656 373.007C348.965 374.517 348.678 376.954 349.86 378.775C349.547 377.267 350.029 375.641 351.281 374.524C353.186 372.823 356.15 372.943 357.902 374.792L362.703 379.857L377.989 361.518C379.617 359.565 382.568 359.263 384.58 360.843C384.992 361.166 385.332 361.544 385.6 361.956Z" fill="#FF9900"/>
<path d="M389.306 371.658L386.451 380.335H384.15L388.051 369.868H389.515L389.306 371.658ZM391.678 380.335L388.816 371.658L388.585 369.868H390.063L393.986 380.335H391.678ZM391.548 376.438V378.128H386.003V376.438H391.548Z" fill="#F29100"/>
<path d="M394.017 369.293H396.094V378.552L395.884 380.335H394.017V369.293ZM401.033 376.367V376.518C401.033 377.097 400.97 377.629 400.845 378.113C400.725 378.598 400.538 379.017 400.283 379.372C400.028 379.721 399.711 379.995 399.331 380.191C398.956 380.383 398.514 380.479 398.004 380.479C397.528 380.479 397.115 380.383 396.764 380.191C396.418 379.999 396.127 379.729 395.892 379.379C395.656 379.029 395.466 378.619 395.322 378.149C395.178 377.68 395.07 377.167 394.998 376.611V376.28C395.07 375.724 395.178 375.212 395.322 374.742C395.466 374.272 395.656 373.863 395.892 373.513C396.127 373.163 396.418 372.892 396.764 372.7C397.11 372.509 397.519 372.413 397.99 372.413C398.504 372.413 398.951 372.511 399.331 372.708C399.716 372.899 400.033 373.172 400.283 373.527C400.538 373.877 400.725 374.294 400.845 374.778C400.97 375.257 401.033 375.787 401.033 376.367ZM398.956 376.518V376.367C398.956 376.05 398.932 375.753 398.884 375.475C398.841 375.192 398.764 374.946 398.653 374.735C398.543 374.519 398.391 374.349 398.199 374.224C398.012 374.1 397.769 374.037 397.471 374.037C397.187 374.037 396.947 374.085 396.75 374.181C396.553 374.277 396.389 374.411 396.259 374.584C396.134 374.756 396.041 374.962 395.978 375.202C395.916 375.437 395.877 375.696 395.863 375.978V376.92C395.877 377.299 395.94 377.634 396.05 377.927C396.166 378.214 396.339 378.442 396.569 378.609C396.805 378.772 397.11 378.854 397.485 378.854C397.778 378.854 398.021 378.796 398.213 378.681C398.406 378.566 398.555 378.403 398.661 378.193C398.771 377.982 398.848 377.735 398.891 377.452C398.935 377.165 398.956 376.853 398.956 376.518Z" fill="#F29100"/>
<path d="M405.729 378.185C405.729 378.037 405.686 377.903 405.6 377.783C405.513 377.663 405.352 377.553 405.116 377.452C404.886 377.347 404.552 377.251 404.114 377.165C403.72 377.078 403.352 376.97 403.011 376.841C402.675 376.707 402.381 376.546 402.131 376.359C401.886 376.173 401.694 375.952 401.555 375.698C401.415 375.439 401.345 375.145 401.345 374.814C401.345 374.488 401.415 374.181 401.555 373.894C401.699 373.606 401.903 373.352 402.167 373.132C402.437 372.906 402.763 372.731 403.148 372.607C403.537 372.477 403.975 372.413 404.46 372.413C405.138 372.413 405.72 372.521 406.205 372.736C406.696 372.952 407.071 373.249 407.33 373.628C407.594 374.002 407.727 374.428 407.727 374.907H405.65C405.65 374.706 405.607 374.526 405.52 374.368C405.439 374.205 405.309 374.078 405.131 373.987C404.958 373.891 404.732 373.843 404.453 373.843C404.222 373.843 404.023 373.884 403.855 373.966C403.686 374.042 403.557 374.148 403.465 374.282C403.379 374.411 403.335 374.555 403.335 374.713C403.335 374.833 403.36 374.941 403.408 375.037C403.46 375.128 403.545 375.212 403.66 375.288C403.775 375.365 403.924 375.437 404.107 375.504C404.294 375.566 404.525 375.624 404.799 375.676C405.362 375.792 405.864 375.942 406.306 376.129C406.748 376.311 407.099 376.561 407.359 376.877C407.619 377.189 407.748 377.598 407.748 378.106C407.748 378.451 407.671 378.768 407.518 379.055C407.364 379.343 407.143 379.594 406.854 379.81C406.566 380.021 406.22 380.186 405.816 380.306C405.417 380.421 404.967 380.479 404.468 380.479C403.742 380.479 403.126 380.349 402.622 380.09C402.122 379.832 401.742 379.503 401.482 379.106C401.228 378.703 401.1 378.291 401.1 377.869H403.069C403.078 378.152 403.15 378.379 403.285 378.552C403.424 378.725 403.6 378.849 403.811 378.926C404.028 379.002 404.261 379.041 404.511 379.041C404.78 379.041 405.004 379.005 405.181 378.933C405.359 378.856 405.494 378.756 405.585 378.631C405.681 378.502 405.729 378.353 405.729 378.185Z" fill="#F29100"/>
<path d="M411.875 380.479C411.27 380.479 410.726 380.383 410.246 380.191C409.765 379.995 409.356 379.724 409.02 379.379C408.688 379.034 408.434 378.633 408.256 378.178C408.078 377.718 407.989 377.229 407.989 376.712V376.424C407.989 375.835 408.073 375.295 408.241 374.807C408.409 374.318 408.65 373.894 408.962 373.534C409.28 373.175 409.664 372.899 410.116 372.708C410.568 372.511 411.077 372.413 411.645 372.413C412.197 372.413 412.688 372.504 413.116 372.686C413.543 372.868 413.901 373.127 414.19 373.462C414.483 373.798 414.704 374.2 414.853 374.67C415.002 375.135 415.077 375.653 415.077 376.223V377.085H408.876V375.705H413.036V375.547C413.036 375.26 412.983 375.003 412.878 374.778C412.777 374.548 412.623 374.366 412.416 374.232C412.209 374.097 411.945 374.03 411.623 374.03C411.349 374.03 411.113 374.09 410.916 374.21C410.719 374.33 410.558 374.498 410.433 374.713C410.313 374.929 410.222 375.183 410.159 375.475C410.102 375.763 410.073 376.079 410.073 376.424V376.712C410.073 377.023 410.116 377.311 410.202 377.574C410.294 377.838 410.421 378.066 410.585 378.257C410.753 378.449 410.955 378.598 411.19 378.703C411.431 378.808 411.702 378.861 412.005 378.861C412.38 378.861 412.729 378.789 413.051 378.645C413.378 378.497 413.659 378.274 413.894 377.977L414.904 379.07C414.74 379.304 414.517 379.53 414.233 379.745C413.954 379.961 413.618 380.138 413.224 380.277C412.83 380.411 412.38 380.479 411.875 380.479Z" fill="#F29100"/>
<path d="M417.48 374.217V380.335H415.404V372.557H417.351L417.48 374.217ZM417.178 376.173H416.615C416.615 375.597 416.69 375.08 416.839 374.62C416.988 374.155 417.197 373.759 417.466 373.434C417.735 373.103 418.055 372.851 418.425 372.679C418.8 372.501 419.218 372.413 419.68 372.413C420.045 372.413 420.379 372.466 420.682 372.571C420.985 372.676 421.244 372.844 421.461 373.074C421.682 373.304 421.85 373.609 421.965 373.987C422.086 374.366 422.146 374.828 422.146 375.375V380.335H420.055V375.367C420.055 375.022 420.007 374.754 419.91 374.562C419.814 374.371 419.672 374.236 419.485 374.16C419.302 374.078 419.076 374.037 418.807 374.037C418.528 374.037 418.286 374.093 418.079 374.203C417.877 374.313 417.709 374.466 417.574 374.663C417.444 374.855 417.346 375.08 417.279 375.339C417.211 375.597 417.178 375.875 417.178 376.173Z" fill="#F29100"/>
<path d="M427.131 378.185C427.131 378.037 427.087 377.903 427.001 377.783C426.914 377.663 426.753 377.553 426.518 377.452C426.287 377.347 425.953 377.251 425.516 377.165C425.121 377.078 424.754 376.97 424.412 376.841C424.076 376.707 423.783 376.546 423.533 376.359C423.288 376.173 423.095 375.952 422.956 375.698C422.816 375.439 422.747 375.145 422.747 374.814C422.747 374.488 422.816 374.181 422.956 373.894C423.1 373.606 423.304 373.352 423.569 373.132C423.838 372.906 424.165 372.731 424.549 372.607C424.939 372.477 425.376 372.413 425.862 372.413C426.539 372.413 427.121 372.521 427.607 372.736C428.097 372.952 428.472 373.249 428.731 373.628C428.996 374.002 429.128 374.428 429.128 374.907H427.051C427.051 374.706 427.008 374.526 426.922 374.368C426.84 374.205 426.71 374.078 426.532 373.987C426.359 373.891 426.133 373.843 425.854 373.843C425.624 373.843 425.424 373.884 425.256 373.966C425.088 374.042 424.958 374.148 424.867 374.282C424.78 374.411 424.737 374.555 424.737 374.713C424.737 374.833 424.761 374.941 424.809 375.037C424.862 375.128 424.946 375.212 425.061 375.288C425.177 375.365 425.326 375.437 425.508 375.504C425.696 375.566 425.927 375.624 426.201 375.676C426.763 375.792 427.265 375.942 427.708 376.129C428.15 376.311 428.501 376.561 428.76 376.877C429.02 377.189 429.15 377.598 429.15 378.106C429.15 378.451 429.073 378.768 428.919 379.055C428.765 379.343 428.544 379.594 428.256 379.81C427.967 380.021 427.621 380.186 427.217 380.306C426.818 380.421 426.369 380.479 425.869 380.479C425.143 380.479 424.528 380.349 424.023 380.09C423.523 379.832 423.143 379.503 422.884 379.106C422.629 378.703 422.502 378.291 422.502 377.869H424.47C424.48 378.152 424.552 378.379 424.686 378.552C424.826 378.725 425.001 378.849 425.213 378.926C425.429 379.002 425.662 379.041 425.912 379.041C426.181 379.041 426.405 379.005 426.583 378.933C426.761 378.856 426.895 378.756 426.986 378.631C427.083 378.502 427.131 378.353 427.131 378.185Z" fill="#F29100"/>
<path d="M431.878 372.557V380.335H429.794V372.557H431.878ZM429.664 370.529C429.664 370.227 429.77 369.978 429.981 369.782C430.193 369.585 430.477 369.487 430.832 369.487C431.183 369.487 431.464 369.585 431.676 369.782C431.892 369.978 432 370.227 432 370.529C432 370.831 431.892 371.08 431.676 371.277C431.464 371.473 431.183 371.572 430.832 371.572C430.477 371.572 430.193 371.473 429.981 371.277C429.77 371.08 429.664 370.831 429.664 370.529Z" fill="#F29100"/>
<path d="M387.247 387.889C387.247 387.776 387.228 387.677 387.19 387.59C387.154 387.501 387.089 387.422 386.996 387.351C386.905 387.28 386.779 387.212 386.616 387.148C386.456 387.084 386.253 387.019 386.007 386.952C385.749 386.881 385.516 386.803 385.308 386.716C385.1 386.627 384.922 386.527 384.774 386.414C384.626 386.301 384.512 386.171 384.434 386.025C384.355 385.879 384.315 385.711 384.315 385.523C384.315 385.335 384.357 385.161 384.441 385.001C384.524 384.842 384.644 384.703 384.799 384.586C384.957 384.466 385.144 384.373 385.362 384.307C385.579 384.24 385.822 384.207 386.089 384.207C386.481 384.207 386.813 384.277 387.086 384.416C387.361 384.554 387.57 384.734 387.713 384.958C387.857 385.18 387.928 385.417 387.928 385.669H387.24C387.24 385.488 387.198 385.327 387.115 385.187C387.031 385.046 386.904 384.935 386.735 384.855C386.565 384.773 386.35 384.732 386.089 384.732C385.843 384.732 385.64 384.767 385.48 384.835C385.32 384.904 385.201 384.997 385.122 385.114C385.045 385.232 385.007 385.366 385.007 385.516C385.007 385.618 385.03 385.711 385.075 385.796C385.123 385.878 385.196 385.954 385.294 386.025C385.394 386.096 385.521 386.161 385.674 386.221C385.829 386.281 386.014 386.338 386.229 386.394C386.526 386.471 386.781 386.558 386.996 386.653C387.211 386.748 387.388 386.856 387.527 386.975C387.668 387.093 387.772 387.227 387.839 387.377C387.908 387.526 387.943 387.694 387.943 387.883C387.943 388.08 387.9 388.258 387.814 388.418C387.727 388.577 387.604 388.713 387.444 388.826C387.284 388.939 387.092 389.027 386.867 389.089C386.645 389.149 386.397 389.179 386.122 389.179C385.88 389.179 385.643 389.148 385.408 389.086C385.177 389.023 384.965 388.93 384.774 388.806C384.585 388.682 384.434 388.529 384.319 388.348C384.207 388.164 384.15 387.951 384.15 387.71H384.839C384.839 387.876 384.873 388.019 384.943 388.138C385.012 388.256 385.106 388.353 385.226 388.431C385.348 388.508 385.485 388.566 385.638 388.604C385.793 388.639 385.954 388.657 386.122 388.657C386.363 388.657 386.567 388.626 386.735 388.564C386.902 388.502 387.029 388.413 387.115 388.298C387.203 388.183 387.247 388.046 387.247 387.889Z" fill="#F29100"/>
<path d="M390.41 384.274V389.112H389.719V384.274H390.41Z" fill="#F29100"/>
<path d="M395.294 387.889C395.294 387.776 395.275 387.677 395.237 387.59C395.201 387.501 395.136 387.422 395.043 387.351C394.952 387.28 394.826 387.212 394.663 387.148C394.503 387.084 394.3 387.019 394.054 386.952C393.796 386.881 393.563 386.803 393.355 386.716C393.147 386.627 392.969 386.527 392.821 386.414C392.673 386.301 392.559 386.171 392.48 386.025C392.402 385.879 392.362 385.711 392.362 385.523C392.362 385.335 392.404 385.161 392.488 385.001C392.571 384.842 392.691 384.703 392.846 384.586C393.004 384.466 393.191 384.373 393.409 384.307C393.626 384.24 393.869 384.207 394.136 384.207C394.528 384.207 394.86 384.277 395.133 384.416C395.408 384.554 395.617 384.734 395.76 384.958C395.903 385.18 395.975 385.417 395.975 385.669H395.287C395.287 385.488 395.245 385.327 395.161 385.187C395.078 385.046 394.951 384.935 394.781 384.855C394.612 384.773 394.397 384.732 394.136 384.732C393.89 384.732 393.687 384.767 393.527 384.835C393.367 384.904 393.247 384.997 393.169 385.114C393.092 385.232 393.054 385.366 393.054 385.516C393.054 385.618 393.077 385.711 393.122 385.796C393.17 385.878 393.243 385.954 393.341 386.025C393.441 386.096 393.568 386.161 393.721 386.221C393.876 386.281 394.061 386.338 394.276 386.394C394.572 386.471 394.828 386.558 395.043 386.653C395.258 386.748 395.435 386.856 395.574 386.975C395.715 387.093 395.819 387.227 395.885 387.377C395.955 387.526 395.989 387.694 395.989 387.883C395.989 388.08 395.946 388.258 395.86 388.418C395.774 388.577 395.651 388.713 395.491 388.826C395.331 388.939 395.139 389.027 394.914 389.089C394.692 389.149 394.443 389.179 394.169 389.179C393.927 389.179 393.689 389.148 393.455 389.086C393.223 389.023 393.012 388.93 392.821 388.806C392.632 388.682 392.48 388.529 392.366 388.348C392.253 388.164 392.197 387.951 392.197 387.71H392.885C392.885 387.876 392.92 388.019 392.989 388.138C393.059 388.256 393.153 388.353 393.272 388.431C393.394 388.508 393.532 388.566 393.685 388.604C393.84 388.639 394.001 388.657 394.169 388.657C394.41 388.657 394.614 388.626 394.781 388.564C394.949 388.502 395.075 388.413 395.161 388.298C395.25 388.183 395.294 388.046 395.294 387.889Z" fill="#F29100"/>
<path d="M399.088 387.65L400.124 384.274H400.626L400.335 385.586L399.221 389.112H398.722L399.088 387.65ZM398.016 384.274L398.841 387.583L399.088 389.112H398.593L397.328 384.274H398.016ZM401.966 387.58L402.773 384.274H403.464L402.203 389.112H401.708L401.966 387.58ZM400.701 384.274L401.708 387.65L402.074 389.112H401.575L400.5 385.586L400.206 384.274H400.701Z" fill="#F29100"/>
<path d="M406.85 384.702L405.122 389.112H404.416L406.405 384.274H406.861L406.85 384.702ZM408.298 389.112L406.567 384.702L406.556 384.274H407.011L409.008 389.112H408.298ZM408.208 387.321V387.846H405.276V387.321H408.208Z" fill="#F29100"/>
<path d="M125 591H67V551H93.038C93.536 564.227 108.669 573.475 108.669 573.475C124.799 580.093 125 591 125 591Z" fill="#F29100"/>
<path d="M125 591H67V587.531H92.5836C92.5836 587.531 93.8855 575.719 108.669 573C124.799 579.797 125 591 125 591Z" fill="#E6E6E6"/>
<path d="M185 591H127V551H153.029C153.527 564.227 168.652 573.484 168.652 573.484C184.799 580.093 185 591 185 591Z" fill="#F29100"/>
<path d="M185 591H127V587.529H152.575C152.575 587.529 153.877 575.711 168.652 573C184.799 579.792 185 591 185 591Z" fill="#E6E6E6"/>
<path d="M68.0505 317.752L64 551H94.0691L102.858 488.106C102.858 488.106 110.898 419.861 112.24 409.153H114.914L123.424 551H154.46L160 323.954L156.455 286L68.0505 317.752Z" fill="#2F2E41"/>
<path opacity="0.2" d="M82.0767 326.14C82.0767 326.14 116.372 326.045 117.702 350.072C117.702 350.072 119.04 374.099 103 360.753C103 360.753 117.658 386.116 113.67 408.807H115.026L118.397 465C118.397 465 127.199 311.676 159.878 328.874L160 323.858L156.464 286L80 313.437L82.0767 326.14Z" fill="black"/>
<path d="M113 128L114.835 145.467C114.835 145.467 121.719 170.672 131.359 172C131.359 172 141 172 141 152.1V137.083L113 128Z" fill="#F9B499"/>
<path d="M141 137.045V152C141 152 115.301 151.571 113 128L141 137.045Z" fill="#F7A48B"/>
<path d="M76.3796 164.306C75.5779 168.576 75.0943 172.899 74.9328 177.24C74.9107 178.047 74.6599 178.831 74.2094 179.501L60.3693 200.228C60.2302 200.436 60.035 200.601 59.8062 200.704C59.5773 200.807 59.3241 200.843 59.0756 200.808C58.8271 200.774 58.5934 200.67 58.4014 200.509C58.2093 200.348 58.0667 200.136 57.9899 199.897L44.1323 157L28 167.733L44.1323 234.636C44.1323 234.636 48.1589 249.353 58.8789 246.674C58.8789 246.674 64.483 243.839 71.0806 229.87L85.8272 207.125C85.8272 207.125 89.0955 201.098 84.7203 186.425C82.5963 178.822 79.8053 171.42 76.3796 164.306V164.306Z" fill="#CCCCCC"/>
<path d="M125.036 168C125.036 168 130.612 174.838 135.692 169.248C135.692 169.248 134.919 175.696 135.05 192.155L140 313.865C133.031 315.802 125.602 315.247 119 312.296L120.164 310.563L124.202 240.56C124.202 240.56 127.355 177.984 125.036 168Z" fill="#CCCCCC"/>
<path d="M166 162C166 162 186.115 218.806 182.584 246.57L173.138 307L166 162Z" fill="#CCCCCC"/>
<path opacity="0.2" d="M157 435C157 435 153.621 448.79 138 447.455C138 447.455 154.601 465.206 156.045 475L157 435Z" fill="black"/>
<path d="M28.1498 167C28.1498 167 21.4833 166.766 22.1362 151.534C22.1362 151.534 15.693 142.595 21.2771 139.444C21.2771 139.444 20.2119 130.947 25.4952 132.284C25.4952 132.284 22.8578 122.937 26.8182 122.937C26.8182 122.937 30.7872 121.609 32.1016 133.621C32.1016 133.621 29.258 120.602 33.983 121.097C33.983 121.097 37.2647 118.562 37.3249 139.444C37.3249 139.444 39.2063 130.427 43.1409 130.496C43.2033 130.496 43.2651 130.509 43.3225 130.533C43.3799 130.558 43.4319 130.594 43.4752 130.639C43.5185 130.685 43.5523 130.739 43.5746 130.797C43.5968 130.856 43.6071 130.919 43.6048 130.982C43.476 133.881 42.7457 150.736 44 156.316L28.1498 167Z" fill="#F9B499"/>
<path d="M132.5 142C146.031 142 157 126.106 157 106.5C157 86.8939 146.031 71 132.5 71C118.969 71 108 86.8939 108 106.5C108 126.106 118.969 142 132.5 142Z" fill="#F9B499"/>
<path d="M92.0013 101.582C92.0013 101.582 91.6488 123.446 102.664 121.924C102.664 121.924 110.974 123.105 115.045 100.235C115.045 100.235 146.223 100.235 153 76.0181C152.557 75.2466 152.047 74.515 151.475 73.8317C146.986 68.1155 141.02 63.7122 134.212 61.0893C126.281 58.0371 120.465 57.1887 111.767 66.5991C111.767 66.5991 98.7779 77.365 97.4208 98.888C97.4208 98.8705 98.7779 112.348 92.0013 101.582Z" fill="#2F2E41"/>
<path d="M152.196 76.0068C152.196 76.0068 162.664 74.7238 162.998 107.503C163.031 109.204 162.693 110.892 162.005 112.454C161.03 114.589 159.177 116.966 155.744 117C155.744 117 161.32 98.9788 150 81.5345C150.868 79.7468 151.602 77.8993 152.196 76.0068V76.0068Z" fill="#2F2E41"/>
<path d="M109.972 124.957C113.14 123.974 114.631 119.706 113.302 115.426C111.973 111.146 108.327 108.474 105.16 109.457C101.992 110.441 100.501 114.708 101.83 118.988C103.159 123.268 106.805 125.941 109.972 124.957Z" fill="#F9B499"/>
<path d="M115.432 147C115.432 147 86.7641 153.077 76.056 163.799C76.056 163.799 90.7861 194.515 85.4234 206.539L70.6933 229.242C70.6933 229.242 75.5511 276.445 65.6179 306.327C65.0291 308.052 64.8579 309.891 65.1181 311.694C65.3784 313.497 66.0627 315.213 67.1153 316.702C70.8674 321.911 78.5981 328.388 93.4588 326.738C93.4588 326.738 110.87 325.401 120.246 310.712C120.246 310.712 128.673 186.632 125.13 167.871C125.13 167.871 119.994 162.245 115.432 147Z" fill="#F29100"/>
<path d="M140.409 152.037C140.409 152.037 135 162.121 135 184.797L140.16 313.251C140.243 315.447 141.01 317.562 142.354 319.293C143.697 321.024 145.548 322.284 147.642 322.893C151.701 324.055 157.61 324.628 165.702 322.954C167.847 322.505 169.761 321.296 171.098 319.546C172.434 317.796 173.104 315.621 172.987 313.416L165.419 162.087C165.419 162.087 159.046 151.291 140.409 152.037Z" fill="#F29100"/>
<path d="M44 156.537C44 156.537 31.8437 159.996 28.5785 156.103C28.2322 155.667 28.0092 155.148 27.9324 154.599C27.6395 152.967 27.3035 149.065 30.3361 147.204C30.3361 147.204 36.5477 143.234 37.3059 140.013L37.2542 136.247C36.1359 138.127 34.7326 139.827 33.093 141.288C32.7986 141.511 32.458 141.667 32.0954 141.746C31.7328 141.824 31.3571 141.823 30.9951 141.742C30.6331 141.66 30.2937 141.501 30.0011 141.276C29.7085 141.051 29.4698 140.764 29.3022 140.438L25.4425 133C25.4425 133 30.7841 146.6 25.4425 147.204C25.4425 147.204 25.813 151.717 22.1084 151.853C22.1084 151.853 20.6869 165.139 28.1391 167L44 156.537Z" fill="#F7A48B"/>
</svg>
