<svg width="40" height="40" viewBox="0 0 40 40" fill="none" xmlns="http://www.w3.org/2000/svg">
<path d="M22.1428 40C12.4778 40 4.64282 31.0457 4.64282 20C4.64282 8.95429 12.4778 0 22.1428 0C31.8078 0 39.6428 8.95429 39.6428 20C39.6428 31.0457 31.8078 40 22.1428 40Z" fill="#FCC62D"/>
<path d="M4.64289 20C4.64289 9.78429 11.3465 1.36286 20 0.155C19.2972 0.0564286 18.5829 0 17.8572 0C8.19218 0 0.357178 8.95429 0.357178 20C0.357178 31.0457 8.19218 40 17.8572 40C18.5829 40 19.2972 39.9436 20 39.8457C11.3465 38.6371 4.64289 30.2157 4.64289 20Z" fill="#E4AF18"/>
<path d="M4.6422 20.715H0.35791C0.372196 21.1957 0.399339 21.6721 0.44291 22.1435H4.73077C4.68648 21.6728 4.65648 21.1964 4.6422 20.715Z" fill="#CE9912"/>
<path d="M4.80514 17.1436H0.52228C0.462994 17.6143 0.420851 18.0914 0.390137 18.5721H4.67514C4.70585 18.0921 4.74728 17.615 4.80514 17.1436Z" fill="#CE9912"/>
<path d="M5.03496 24.2864H0.748535C0.841392 24.7693 0.948535 25.2457 1.07068 25.715H5.35568C5.23354 25.2464 5.12711 24.77 5.03496 24.2864Z" fill="#CE9912"/>
<path d="M6.03442 27.8578H1.74585C1.92799 28.345 2.12871 28.82 2.34371 29.2864H6.63085C6.41585 28.8214 6.21657 28.345 6.03442 27.8578Z" fill="#CE9912"/>
<path d="M5.55211 13.5721H1.26997C1.13139 14.0414 1.00139 14.5164 0.892822 15.0007H5.18354C5.29139 14.5186 5.41282 14.0407 5.55211 13.5721Z" fill="#CE9912"/>
<path d="M6.97426 10.0014H2.68783C2.45283 10.4664 2.23069 10.9421 2.02783 11.43H6.3164C6.51926 10.9421 6.73855 10.4657 6.97426 10.0014Z" fill="#CE9912"/>
<path d="M9.88923 5.7157H5.59851C5.19208 6.16998 4.80566 6.64641 4.43994 7.14427H8.72923C9.09494 6.64641 9.48208 6.16998 9.88923 5.7157Z" fill="#CE9912"/>
<path d="M14.2564 2.14355H9.96067C9.23138 2.56498 8.53067 3.04213 7.86353 3.57213H12.1557C12.8235 3.04284 13.525 2.5657 14.2564 2.14355Z" fill="#CE9912"/>
<path d="M8.22782 32.1436H3.94067C4.2721 32.6386 4.6221 33.115 4.99282 33.5721H9.28353C8.9121 33.115 8.56067 32.6386 8.22782 32.1436Z" fill="#CE9912"/>
<path d="M7.02441 35.715C7.59799 36.2315 8.19941 36.7115 8.82727 37.1436H13.1237C12.4916 36.71 11.8851 36.2336 11.308 35.715H7.02441Z" fill="#CE9912"/>
<path d="M22.2037 36.0886H22.143C21.643 36.0886 21.1394 36.0586 20.6465 36C20.2551 35.9529 19.9744 35.5979 20.0223 35.2057C20.068 34.8143 20.413 34.5414 20.8158 34.5814C21.2515 34.6336 21.6987 34.66 22.1423 34.66C22.5373 34.66 22.8865 34.98 22.8865 35.3743C22.8873 35.7686 22.5987 36.0886 22.2037 36.0886ZM26.358 35.3193C26.0694 35.3193 25.7973 35.1429 25.6887 34.8564C25.5494 34.4879 25.7365 34.0757 26.1051 33.9364C26.518 33.7807 26.9287 33.5986 27.3237 33.3957C27.6758 33.2143 28.1051 33.3536 28.2865 33.7043C28.4665 34.055 28.3287 34.4857 27.9765 34.6657C27.533 34.8943 27.073 35.0979 26.6087 35.2729C26.5265 35.3043 26.4415 35.3193 26.358 35.3193ZM16.6901 34.7736C16.5808 34.7736 16.4701 34.7486 16.3673 34.6957C15.9258 34.4721 15.4908 34.22 15.0751 33.9472C14.7444 33.7314 14.6523 33.2886 14.8687 32.9586C15.0858 32.6293 15.5273 32.5364 15.858 32.7529C16.2301 32.9964 16.6187 33.2222 17.0137 33.4222C17.3658 33.6007 17.5051 34.0307 17.3265 34.3821C17.2015 34.6307 16.9508 34.7736 16.6901 34.7736ZM31.0551 32.2322C30.873 32.2322 30.6915 32.1636 30.553 32.0264C30.2723 31.7486 30.2694 31.2964 30.5465 31.0157C30.8587 30.7014 31.1594 30.3636 31.4458 30.0136C31.6944 29.7079 32.1437 29.6614 32.4494 29.91C32.7565 30.1593 32.8015 30.6093 32.5537 30.915C32.2394 31.3007 31.9058 31.6729 31.563 32.02C31.423 32.1614 31.2387 32.2322 31.0551 32.2322ZM12.3265 31.2271C12.1194 31.2271 11.9151 31.1379 11.7744 30.9657C11.4658 30.5907 11.1687 30.1907 10.8901 29.7771C10.6687 29.4507 10.7544 29.0064 11.0808 28.785C11.4087 28.565 11.8515 28.6507 12.0737 28.9779C12.328 29.3543 12.5994 29.7193 12.8801 30.0607C13.1294 30.3657 13.0858 30.8157 12.7794 31.0657C12.6465 31.1743 12.4858 31.2271 12.3265 31.2271ZM34.193 27.5564C34.098 27.5564 34.0015 27.5371 33.908 27.4971C33.5465 27.3393 33.3815 26.9186 33.5387 26.5564C33.718 26.145 33.8808 25.7193 34.0258 25.2929C34.1523 24.9193 34.5573 24.7186 34.9315 24.8436C35.3044 24.97 35.5058 25.375 35.3801 25.7486C35.2223 26.2143 35.0437 26.6779 34.8494 27.1271C34.7308 27.3957 34.4687 27.5564 34.193 27.5564ZM9.60369 26.295C9.30654 26.295 9.02797 26.1079 8.92726 25.8107C8.7694 25.3479 8.62869 24.8707 8.5094 24.395C8.41512 24.0121 8.64797 23.625 9.03012 23.53C9.41226 23.4329 9.80012 23.6671 9.89654 24.05C10.0044 24.4864 10.1337 24.9243 10.2787 25.35C10.4073 25.7222 10.2065 26.1293 9.83369 26.2564C9.75797 26.2821 9.68012 26.295 9.60369 26.295ZM35.5437 22.0822C35.5265 22.0822 35.5065 22.0814 35.488 22.08C35.0944 22.05 34.8001 21.7064 34.8308 21.3129C34.8651 20.8821 34.8808 20.4407 34.8808 20C34.8808 19.6057 35.2008 19.2621 35.5951 19.2621C35.9901 19.2621 36.3094 19.5586 36.3094 19.9536V20C36.3094 20.4779 36.2915 20.9564 36.2551 21.4229C36.2258 21.7979 35.9137 22.0822 35.5437 22.0822ZM8.69012 20.7221C8.29583 20.7221 7.97583 20.4107 7.97583 20.0164V20C7.97583 19.5179 7.99583 19.0286 8.03369 18.5457C8.06369 18.1522 8.41512 17.8636 8.80154 17.89C9.1944 17.9207 9.48869 18.2643 9.45797 18.6579C9.42297 19.1036 9.4044 19.555 9.4044 20C9.4044 20.3943 9.08512 20.7221 8.69012 20.7221ZM35.0744 16.4622C34.7551 16.4622 34.463 16.2464 34.3815 15.9222C34.273 15.4857 34.1423 15.0486 33.9958 14.6229C33.868 14.2493 34.068 13.8429 34.4394 13.715C34.8173 13.5857 35.2194 13.7857 35.348 14.1586C35.5065 14.6222 35.648 15.0986 35.7673 15.5736C35.863 15.9564 35.6308 16.3443 35.2473 16.44C35.1894 16.4557 35.1315 16.4622 35.0744 16.4622ZM9.59369 15.165C9.51797 15.165 9.44012 15.1522 9.36512 15.1264C8.99083 15 8.79083 14.5943 8.91797 14.2207C9.07583 13.7536 9.25583 13.29 9.45226 12.8429C9.61154 12.4814 10.0294 12.3157 10.3923 12.4757C10.7537 12.6343 10.9187 13.0557 10.7608 13.4164C10.5808 13.8264 10.4158 14.2514 10.2701 14.6793C10.1694 14.9772 9.89154 15.165 9.59369 15.165ZM32.788 11.3122C32.5587 11.3122 32.333 11.2022 32.1958 10.9986C31.9437 10.6272 31.6723 10.2636 31.388 9.91787C31.1365 9.61358 31.1815 9.16287 31.4858 8.91215C31.7908 8.66215 32.2401 8.70572 32.4915 9.01001C32.8037 9.39001 33.1015 9.79001 33.3787 10.1972C33.5994 10.5243 33.513 10.9679 33.1865 11.1893C33.0644 11.2722 32.9258 11.3122 32.788 11.3122ZM12.3065 10.2264C12.1473 10.2264 11.988 10.1743 11.8544 10.0657C11.5487 9.81572 11.5044 9.36644 11.7537 9.06072C12.0673 8.67644 12.4015 8.30501 12.7458 7.95787C13.0251 7.67715 13.4765 7.67644 13.7558 7.95358C14.0373 8.23144 14.0387 8.68358 13.7601 8.96358C13.448 9.27858 13.1458 9.61572 12.8594 9.96429C12.7187 10.1372 12.513 10.2264 12.3065 10.2264ZM28.7937 7.34787C28.6594 7.34787 28.5244 7.31001 28.4037 7.23215C28.0301 6.98787 27.6408 6.76358 27.2465 6.56572C26.8951 6.38858 26.7537 5.95787 26.9315 5.60572C27.1087 5.25358 27.5365 5.11144 27.8901 5.29001C28.3308 5.51144 28.7665 5.76287 29.1851 6.03572C29.5158 6.25072 29.6094 6.69358 29.3937 7.02429C29.2551 7.23358 29.0265 7.34787 28.7937 7.34787ZM16.663 6.67001C16.4023 6.67001 16.1523 6.52787 16.0251 6.28072C15.8465 5.92858 15.9851 5.49858 16.3365 5.3193C16.783 5.09215 17.2437 4.88787 17.7058 4.71572C18.0787 4.57644 18.4873 4.76501 18.6258 5.1343C18.7637 5.50358 18.5758 5.91501 18.2073 6.05358C17.7951 6.20787 17.3837 6.38858 16.9873 6.59144C16.883 6.64429 16.7723 6.67001 16.663 6.67001ZM23.5244 5.42001C23.498 5.42001 23.4701 5.41858 23.4423 5.41501C23.0115 5.36501 22.5751 5.34001 22.143 5.34001C21.7487 5.34001 21.4137 5.02001 21.4137 4.62572C21.4137 4.23144 21.718 3.91144 22.1123 3.91144H22.143C22.6294 3.91144 23.1223 3.94001 23.6058 3.99644C23.998 4.04144 24.2787 4.39644 24.233 4.78787C24.1915 5.15215 23.883 5.42001 23.5244 5.42001Z" fill="#FFD949"/>
<path d="M21.1765 11.7647L23.2895 18.2681H30.1276L24.5955 22.2874L26.7086 28.7908L21.1765 24.7714L15.6444 28.7908L17.7574 22.2874L12.2253 18.2681H19.0634L21.1765 11.7647Z" fill="#FFA825"/>
<path fill-rule="evenodd" clip-rule="evenodd" d="M21.1764 10.945C21.5315 10.945 21.8462 11.1737 21.9559 11.5114L23.885 17.4484H30.1275C30.4826 17.4484 30.7973 17.677 30.907 18.0148C31.0168 18.3525 30.8966 18.7225 30.6093 18.9312L25.559 22.6004L27.488 28.5374C27.5977 28.8752 27.4775 29.2451 27.1903 29.4538C26.903 29.6626 26.514 29.6626 26.2267 29.4538L21.1764 25.7846L16.1261 29.4538C15.8388 29.6626 15.4498 29.6626 15.1625 29.4538C14.8752 29.2451 14.755 28.8752 14.8647 28.5374L16.7938 22.6004L11.7435 18.9312C11.4562 18.7225 11.336 18.3525 11.4457 18.0148C11.5554 17.677 11.8701 17.4484 12.2252 17.4484H18.4678L20.3968 11.5114C20.5065 11.1737 20.8213 10.945 21.1764 10.945ZM21.1764 14.4172L19.8428 18.5213C19.7331 18.8591 19.4184 19.0877 19.0633 19.0877H14.7479L18.2391 21.6242C18.5264 21.8329 18.6466 22.2029 18.5369 22.5406L17.2034 26.6448L20.6946 24.1083C20.9819 23.8996 21.3709 23.8996 21.6582 24.1083L25.1494 26.6448L23.8158 22.5406C23.7061 22.2029 23.8263 21.8329 24.1136 21.6242L27.6048 19.0877H23.2894C22.9343 19.0877 22.6196 18.8591 22.5099 18.5213L21.1764 14.4172Z" fill="white"/>
</svg>
