<svg width="40" height="40" viewBox="0 0 40 40" fill="none" xmlns="http://www.w3.org/2000/svg">
<g clip-path="url(#clip0_216_57)">
<path d="M37.7777 22.2222C37.7777 26.9372 35.9047 31.459 32.5707 34.793C29.2368 38.127 24.7149 40 20 40C15.285 40 10.7631 38.127 7.42916 34.793C4.09518 31.459 2.22217 26.9372 2.22217 22.2222C2.22217 21.6328 2.45629 21.0676 2.87304 20.6509C3.28979 20.2341 3.85502 20 4.44439 20C5.03376 20 5.59899 20.2341 6.01574 20.6509C6.43249 21.0676 6.66661 21.6328 6.66661 22.2222C6.66699 24.8119 7.42149 27.3454 8.83796 29.5133C10.2544 31.6812 12.2716 33.3897 14.643 34.4302C17.0145 35.4706 19.6376 35.7979 22.192 35.3722C24.7464 34.9464 27.1216 33.786 29.0274 32.0327C30.9332 30.2794 32.2871 28.009 32.9239 25.4988C33.5607 22.9887 33.4527 20.3474 32.6132 17.8977C31.7736 15.4479 30.2388 13.2956 28.1962 11.7037C26.1537 10.1118 23.6917 9.14914 21.1111 8.93333V12.2222C21.1154 12.4256 21.0612 12.6259 20.9548 12.7993C20.8484 12.9727 20.6943 13.1118 20.5111 13.2C20.3551 13.2879 20.179 13.3338 20 13.3333C19.77 13.3323 19.5456 13.2626 19.3555 13.1333L11.5777 7.57778C11.4332 7.47384 11.3155 7.33701 11.2342 7.17859C11.153 7.02016 11.1107 6.84469 11.1107 6.66666C11.1107 6.48864 11.153 6.31317 11.2342 6.15474C11.3155 5.99632 11.4332 5.85949 11.5777 5.75555L19.3555 0.199998C19.5222 0.0808815 19.7191 0.0114017 19.9236 -0.000396667C20.1282 -0.0121951 20.3318 0.0341704 20.5111 0.133332C20.6943 0.22156 20.8484 0.360662 20.9548 0.534038C21.0612 0.707414 21.1154 0.90774 21.1111 1.11111V4.48889C25.6256 4.76467 29.8646 6.75358 32.9622 10.0494C36.0597 13.3452 37.7822 17.6992 37.7777 22.2222Z" fill="#FFA825"/>
<path d="M26.0222 19.3556L22.2222 23.1556V28.8889C22.2222 29.4783 21.9881 30.0435 21.5713 30.4602C21.1546 30.877 20.5893 31.1111 20 31.1111C19.4106 31.1111 18.8454 30.877 18.4286 30.4602C18.0119 30.0435 17.7777 29.4783 17.7777 28.8889V22.2222C17.7728 22.0331 17.803 21.8448 17.8666 21.6667C17.8754 21.5581 17.9056 21.4523 17.9555 21.3556C18.0632 21.0904 18.2218 20.8488 18.4222 20.6444L22.8666 16.2C23.2851 15.7815 23.8526 15.5465 24.4444 15.5465C25.0362 15.5465 25.6037 15.7815 26.0222 16.2C26.4406 16.6185 26.6757 17.186 26.6757 17.7778C26.6757 18.3696 26.4406 18.9371 26.0222 19.3556Z" fill="#7F4C00"/>
</g>
<defs>
<clipPath id="clip0_216_57">
<rect width="40" height="40" fill="white"/>
</clipPath>
</defs>
</svg>
