<svg width="40" height="40" viewBox="0 0 40 40" fill="none" xmlns="http://www.w3.org/2000/svg">
<g clip-path="url(#clip0_217_86)">
<path d="M36.7772 0.947891V39.0522C36.7772 39.5735 36.3507 40.0001 35.8293 40.0001H14.0284L11.1848 20.0001L14.0284 0H35.8293C36.3507 0 36.7772 0.426563 36.7772 0.947891Z" fill="#FF755C"/>
<path d="M14.0285 0V40H7.20387C6.68254 40 6.25598 39.5734 6.25598 39.0521V0.947891C6.25598 0.426563 6.68254 0 7.20387 0H14.0285Z" fill="#FFC0D5"/>
<path d="M8.34129 12.2748H4.17067C3.64723 12.2748 3.22278 11.8505 3.22278 11.327C3.22278 10.8034 3.64723 10.3791 4.17067 10.3791H8.34129C8.86473 10.3791 9.28919 10.8034 9.28919 11.327C9.28911 11.8505 8.86465 12.2748 8.34129 12.2748Z" fill="#174461"/>
<path d="M8.34129 18.0569H4.17067C3.64723 18.0569 3.22278 17.6325 3.22278 17.109C3.22278 16.5855 3.64723 16.1611 4.17067 16.1611H8.34129C8.86473 16.1611 9.28919 16.5855 9.28919 17.109C9.28919 17.6325 8.86465 18.0569 8.34129 18.0569Z" fill="#174461"/>
<path d="M8.34129 6.49289H4.17067C3.64723 6.49289 3.22278 6.06852 3.22278 5.545C3.22278 5.02149 3.64723 4.59711 4.17067 4.59711H8.34129C8.86473 4.59711 9.28919 5.02149 9.28919 5.545C9.28919 6.06852 8.86465 6.49289 8.34129 6.49289Z" fill="#174461"/>
<path d="M8.34129 29.6209H4.17067C3.64723 29.6209 3.22278 29.1965 3.22278 28.673C3.22278 28.1495 3.64723 27.7251 4.17067 27.7251H8.34129C8.86473 27.7251 9.28919 28.1495 9.28919 28.673C9.28911 29.1965 8.86465 29.6209 8.34129 29.6209Z" fill="#174461"/>
<path d="M8.34129 23.8388H4.17067C3.64723 23.8388 3.22278 23.4145 3.22278 22.8909C3.22278 22.3674 3.64723 21.943 4.17067 21.943H8.34129C8.86473 21.943 9.28919 22.3674 9.28919 22.8909C9.28911 23.4145 8.86465 23.8388 8.34129 23.8388Z" fill="#174461"/>
<path d="M8.34129 35.4028H4.17067C3.64723 35.4028 3.22278 34.9784 3.22278 34.4549C3.22278 33.9314 3.64723 33.507 4.17067 33.507H8.34129C8.86473 33.507 9.28919 33.9314 9.28919 34.4549C9.28919 34.9784 8.86465 35.4028 8.34129 35.4028Z" fill="#174461"/>
</g>
<defs>
<clipPath id="clip0_217_86">
<rect width="40" height="40" fill="white"/>
</clipPath>
</defs>
</svg>
