<svg width="512" height="512" viewBox="0 0 512 512" fill="none" xmlns="http://www.w3.org/2000/svg">
<path d="M384 192V256V192ZM384 256V320V256ZM384 256H448H384ZM384 256H320H384ZM277.333 149.333C277.333 171.965 268.343 193.67 252.34 209.673C236.337 225.676 214.632 234.667 192 234.667C169.368 234.667 147.663 225.676 131.66 209.673C115.657 193.67 106.667 171.965 106.667 149.333C106.667 126.702 115.657 104.997 131.66 88.9936C147.663 72.9904 169.368 64 192 64C214.632 64 236.337 72.9904 252.34 88.9936C268.343 104.997 277.333 126.702 277.333 149.333V149.333ZM64 426.667C64 392.719 77.4857 360.162 101.49 336.157C125.495 312.152 158.052 298.667 192 298.667C225.948 298.667 258.505 312.152 282.51 336.157C306.514 360.162 320 392.719 320 426.667V448H64V426.667Z" fill="#FFA825" stroke="#FFA825" stroke-width="48" stroke-linecap="round" stroke-linejoin="round"/>
</svg>
