<svg width="512" height="512" viewBox="0 0 512 512" fill="none" xmlns="http://www.w3.org/2000/svg">
<path d="M88.2736 308.478H441.368C445.237 308.48 449 307.212 452.078 304.868C455.157 302.523 457.379 299.232 458.405 295.501L511.369 101.299C512.089 98.678 512.195 95.9255 511.676 93.2566C511.158 90.5878 510.031 88.0746 508.382 85.9131C506.733 83.7515 504.607 82 502.17 80.795C499.733 79.5901 497.051 78.9642 494.332 78.9662H86.0667L79.4462 40.5672C78.7128 36.4382 76.5336 32.7051 73.2987 30.0363C70.0639 27.3676 65.9846 25.9375 61.7915 26.0021H17.6547C12.9724 26.0021 8.48185 27.8621 5.17095 31.173C1.86004 34.4839 0 38.9745 0 43.6568C0 48.3391 1.86004 52.8297 5.17095 56.1406C8.48185 59.4515 12.9724 61.3115 17.6547 61.3115H47.0498L84.8309 273.168C68.4428 273.625 52.9072 280.573 41.6419 292.484C30.3765 304.395 24.3042 320.293 24.7607 336.681C25.2173 353.069 32.1652 368.605 44.0762 379.87C55.9872 391.135 71.8854 397.208 88.2736 396.751H103.104C98.6183 406.17 96.5907 416.571 97.2098 426.985C97.8289 437.399 101.075 447.486 106.644 456.307C112.214 465.128 119.926 472.396 129.062 477.432C138.198 482.468 148.46 485.109 158.892 485.109C169.325 485.109 179.587 482.468 188.723 477.432C197.859 472.396 205.571 465.128 211.141 456.307C216.71 447.486 219.956 437.399 220.575 426.985C221.194 416.571 219.167 406.17 214.681 396.751H306.133C301.648 406.17 299.62 416.571 300.239 426.985C300.858 437.399 304.104 447.486 309.673 456.307C315.243 465.128 322.955 472.396 332.091 477.432C341.227 482.468 351.489 485.109 361.922 485.109C372.354 485.109 382.616 482.468 391.752 477.432C400.888 472.396 408.6 465.128 414.17 456.307C419.74 447.486 422.985 437.399 423.604 426.985C424.223 416.571 422.196 406.17 417.711 396.751H467.85C472.532 396.751 477.023 394.891 480.334 391.58C483.645 388.269 485.505 383.779 485.505 379.096C485.505 374.414 483.645 369.923 480.334 366.613C477.023 363.302 472.532 361.442 467.85 361.442H88.2736C81.2501 361.442 74.5143 358.652 69.5479 353.685C64.5816 348.719 61.7915 341.983 61.7915 334.96C61.7915 327.936 64.5816 321.2 69.5479 316.234C74.5143 311.268 81.2501 308.478 88.2736 308.478V308.478ZM471.204 114.276L427.862 273.168H120.67L92.3342 114.276H471.204ZM185.375 423.233C185.375 428.471 183.821 433.591 180.911 437.946C178.002 442.301 173.866 445.695 169.027 447.699C164.188 449.704 158.863 450.228 153.726 449.206C148.589 448.185 143.87 445.662 140.167 441.959C136.463 438.255 133.941 433.537 132.919 428.4C131.897 423.263 132.422 417.938 134.426 413.099C136.431 408.26 139.825 404.124 144.18 401.214C148.535 398.304 153.655 396.751 158.892 396.751C165.916 396.751 172.652 399.541 177.618 404.508C182.584 409.474 185.375 416.21 185.375 423.233ZM388.404 423.233C388.404 428.471 386.851 433.591 383.941 437.946C381.031 442.301 376.895 445.695 372.056 447.699C367.217 449.704 361.892 450.228 356.755 449.206C351.618 448.185 346.9 445.662 343.196 441.959C339.492 438.255 336.97 433.537 335.948 428.4C334.927 423.263 335.451 417.938 337.455 413.099C339.46 408.26 342.854 404.124 347.209 401.214C351.564 398.304 356.684 396.751 361.922 396.751C368.945 396.751 375.681 399.541 380.647 404.508C385.614 409.474 388.404 416.21 388.404 423.233Z" fill="#595959"/>
</svg>
