<svg width="512" height="512" viewBox="0 0 512 512" fill="none" xmlns="http://www.w3.org/2000/svg">
<path d="M59.4285 256C59.4285 125.239 145.234 17.4446 256 1.984C247.003 0.722286 237.861 0 228.571 0C104.859 0 4.57129 114.615 4.57129 256C4.57129 397.385 104.859 512 228.571 512C237.861 512 247.003 511.278 256 510.025C145.234 494.555 59.4285 386.761 59.4285 256Z" fill="#7D7D7D"/>
<path d="M59.4194 265.151H4.58057C4.76342 271.305 5.11085 277.403 5.66857 283.437H60.5532C59.9863 277.412 59.6023 271.314 59.4194 265.151Z" fill="#595959"/>
<path d="M61.5037 219.438H6.68313C5.92427 225.463 5.38484 231.57 4.9917 237.723H59.8397C60.2328 231.579 60.7631 225.472 61.5037 219.438Z" fill="#595959"/>
<path d="M64.4477 310.866H9.58154C10.7701 317.047 12.1415 323.145 13.705 329.152H68.5529C66.9895 323.154 65.6272 317.056 64.4477 310.866Z" fill="#595959"/>
<path d="M77.2389 356.58H22.3452C24.6766 362.816 27.2458 368.896 29.9978 374.866H84.8732C82.1212 368.914 79.5703 362.816 77.2389 356.58Z" fill="#595959"/>
<path d="M71.067 173.723H16.2556C14.4819 179.73 12.8179 185.81 11.4282 192.009H66.3493C67.7299 185.838 69.2842 179.721 71.067 173.723Z" fill="#595959"/>
<path d="M89.2709 128.018H34.4045C31.3965 133.97 28.5531 140.06 25.9565 146.304H80.8503C83.4469 140.06 86.2537 133.961 89.2709 128.018Z" fill="#595959"/>
<path d="M126.582 73.1613H71.6612C66.459 78.9761 61.5127 85.0744 56.8315 91.447H111.734C116.415 85.0744 121.371 78.9761 126.582 73.1613Z" fill="#595959"/>
<path d="M182.482 27.4377H127.497C118.162 32.832 109.193 38.9394 100.653 45.7234H155.593C164.141 38.9485 173.12 32.8411 182.482 27.4377Z" fill="#595959"/>
<path d="M105.316 411.438H50.4409C54.6832 417.774 59.1632 423.872 63.9083 429.723H118.83C114.075 423.872 109.577 417.774 105.316 411.438Z" fill="#595959"/>
<path d="M89.9106 457.152C97.2524 463.763 104.951 469.907 112.987 475.438H167.981C159.89 469.888 152.128 463.79 144.74 457.152H89.9106Z" fill="#595959"/>
<path fill-rule="evenodd" clip-rule="evenodd" d="M283.429 512C159.717 512 59.4287 397.385 59.4287 256C59.4287 114.615 159.717 0 283.429 0C407.141 0 507.429 114.615 507.429 256C507.429 397.385 407.141 512 283.429 512ZM284.206 461.935H283.429C277.029 461.935 270.583 461.551 264.274 460.801C259.264 460.197 255.671 455.653 256.283 450.634C256.869 445.624 261.285 442.131 266.441 442.643C272.018 443.311 277.742 443.649 283.419 443.649C288.475 443.649 292.946 447.745 292.946 452.792C292.955 457.839 289.262 461.935 284.206 461.935ZM337.381 452.088C333.687 452.088 330.203 449.829 328.814 446.163C327.031 441.445 329.426 436.17 334.144 434.387C339.429 432.394 344.686 430.063 349.742 427.466C354.249 425.144 359.744 426.927 362.066 431.416C364.37 435.905 362.606 441.418 358.098 443.722C352.421 446.648 346.533 449.253 340.59 451.493C339.538 451.896 338.45 452.088 337.381 452.088ZM213.632 445.103C212.233 445.103 210.816 444.783 209.499 444.106C203.849 441.244 198.281 438.017 192.96 434.524C188.727 431.763 187.547 426.095 190.318 421.87C193.097 417.656 198.747 416.467 202.981 419.237C207.744 422.355 212.718 425.244 217.774 427.804C222.281 430.09 224.064 435.594 221.778 440.092C220.178 443.274 216.969 445.103 213.632 445.103ZM397.504 412.572C395.173 412.572 392.85 411.694 391.077 409.939C387.483 406.382 387.447 400.595 390.994 397.002C394.99 392.979 398.839 388.654 402.505 384.174C405.687 380.261 411.438 379.667 415.351 382.849C419.282 386.04 419.858 391.8 416.686 395.713C412.663 400.65 408.393 405.413 404.005 409.857C402.213 411.667 399.854 412.572 397.504 412.572ZM157.778 399.708C155.127 399.708 152.512 398.565 150.711 396.362C146.761 391.562 142.958 386.442 139.392 381.148C136.558 376.97 137.655 371.283 141.833 368.449C146.03 365.633 151.698 366.73 154.542 370.917C157.796 375.736 161.271 380.408 164.864 384.778C168.055 388.682 167.497 394.442 163.575 397.642C161.874 399.032 159.817 399.708 157.778 399.708ZM437.669 352.723C436.453 352.723 435.218 352.476 434.021 351.964C429.394 349.943 427.282 344.558 429.294 339.923C431.589 334.657 433.673 329.207 435.529 323.749C437.147 318.967 442.332 316.398 447.122 317.998C451.895 319.617 454.473 324.801 452.864 329.582C450.844 335.543 448.558 341.477 446.071 347.228C444.553 350.666 441.198 352.723 437.669 352.723ZM122.926 336.577C119.122 336.577 115.556 334.181 114.267 330.378C112.247 324.453 110.446 318.346 108.919 312.257C107.712 307.356 110.692 302.401 115.584 301.185C120.475 299.941 125.44 302.94 126.674 307.841C128.055 313.427 129.71 319.031 131.566 324.481C133.211 329.244 130.642 334.455 125.87 336.083C124.9 336.412 123.904 336.577 122.926 336.577ZM454.958 282.652C454.738 282.652 454.482 282.643 454.245 282.625C449.207 282.241 445.44 277.843 445.833 272.805C446.272 267.292 446.473 261.642 446.473 256C446.473 250.954 450.569 246.556 455.616 246.556C460.672 246.556 464.759 250.35 464.759 255.406V256C464.759 262.117 464.53 268.243 464.064 274.213C463.689 279.013 459.694 282.652 454.958 282.652ZM111.232 265.244C106.185 265.244 102.089 261.258 102.089 256.211V256C102.089 249.829 102.345 243.566 102.83 237.386C103.214 232.348 107.712 228.654 112.658 228.992C117.687 229.386 121.454 233.783 121.06 238.821C120.612 244.526 120.375 250.304 120.375 256C120.375 261.047 116.288 265.244 111.232 265.244ZM448.951 210.716C444.864 210.716 441.125 207.955 440.082 203.804C438.693 198.217 437.02 192.622 435.145 187.173C433.509 182.391 436.069 177.189 440.823 175.552C445.659 173.897 450.807 176.457 452.453 181.23C454.482 187.164 456.293 193.262 457.82 199.342C459.045 204.243 456.073 209.207 451.164 210.432C450.423 210.633 449.682 210.716 448.951 210.716ZM122.798 194.112C121.828 194.112 120.832 193.948 119.872 193.619C115.081 192 112.521 186.807 114.148 182.025C116.169 176.046 118.473 170.112 120.987 164.389C123.026 159.763 128.375 157.641 133.019 159.689C137.646 161.719 139.758 167.113 137.737 171.731C135.433 176.979 133.321 182.419 131.456 187.895C130.167 191.708 126.61 194.112 122.798 194.112ZM419.685 144.796C416.75 144.796 413.861 143.388 412.105 140.782C408.878 136.028 405.403 131.374 401.765 126.949C398.546 123.054 399.122 117.285 403.017 114.076C406.921 110.876 412.672 111.433 415.89 115.328C419.886 120.192 423.698 125.312 427.246 130.524C430.071 134.711 428.965 140.389 424.786 143.223C423.223 144.284 421.449 144.796 419.685 144.796ZM157.522 130.898C155.483 130.898 153.444 130.231 151.735 128.841C147.822 125.641 147.255 119.89 150.446 115.977C154.459 111.058 158.738 106.304 163.145 101.861C166.72 98.2675 172.498 98.2584 176.073 101.806C179.675 105.362 179.694 111.15 176.128 114.734C172.132 118.766 168.265 123.081 164.599 127.543C162.798 129.756 160.164 130.898 157.522 130.898ZM368.558 94.0527C366.839 94.0527 365.111 93.5681 363.566 92.5715C358.784 89.4447 353.801 86.5738 348.754 84.0412C344.256 81.7738 342.446 76.2606 344.722 71.7532C346.99 67.2458 352.466 65.4263 356.992 67.712C362.633 70.5463 368.21 73.7646 373.568 77.2572C377.801 80.0092 378.999 85.6778 376.238 89.9109C374.464 92.5898 371.538 94.0527 368.558 94.0527ZM213.285 85.3761C209.947 85.3761 206.747 83.5566 205.12 80.3932C202.834 75.8858 204.608 70.3818 209.106 68.0869C214.82 65.1795 220.718 62.5646 226.633 60.3612C231.406 58.5783 236.635 60.992 238.409 65.7189C240.174 70.4458 237.769 75.7121 233.051 77.4858C227.776 79.4606 222.51 81.7738 217.435 84.3704C216.101 85.0469 214.683 85.3761 213.285 85.3761ZM301.111 69.376C300.773 69.376 300.416 69.3578 300.059 69.312C294.546 68.672 288.96 68.352 283.429 68.352C278.382 68.352 274.094 64.256 274.094 59.2092C274.094 54.1623 277.989 50.0663 283.035 50.0663H283.429C289.655 50.0663 295.963 50.432 302.153 51.1543C307.173 51.7303 310.766 56.2743 310.181 61.2846C309.65 65.9475 305.701 69.376 301.111 69.376ZM298.106 233.831L271.059 150.588L244.011 233.831H156.484L227.295 285.278L200.248 368.521L271.059 317.074L341.869 368.521L314.822 285.278L385.633 233.831H298.106Z" fill="#595959"/>
<path fill-rule="evenodd" clip-rule="evenodd" d="M271.059 140.097C275.604 140.097 279.633 143.023 281.037 147.346L305.729 223.34H385.633C390.179 223.34 394.207 226.266 395.612 230.589C397.016 234.912 395.477 239.648 391.8 242.319L327.156 289.286L351.848 365.279C353.253 369.602 351.714 374.338 348.037 377.009C344.359 379.681 339.38 379.681 335.703 377.009L271.059 330.043L206.415 377.009C202.738 379.681 197.759 379.681 194.081 377.009C190.404 374.338 188.865 369.602 190.27 365.279L214.962 289.286L150.318 242.319C146.641 239.648 145.102 234.912 146.506 230.589C147.911 226.266 151.939 223.34 156.485 223.34H236.389L261.081 147.346C262.485 143.023 266.514 140.097 271.059 140.097ZM271.059 184.54L253.99 237.074C252.585 241.396 248.557 244.323 244.012 244.323H188.775L233.462 276.79C237.14 279.462 238.678 284.198 237.274 288.521L220.205 341.054L264.892 308.586C268.569 305.915 273.549 305.915 277.226 308.586L321.913 341.054L304.844 288.521C303.44 284.198 304.978 279.462 308.656 276.79L353.343 244.323H298.106C293.561 244.323 289.533 241.396 288.128 237.074L271.059 184.54Z" fill="#595959"/>
</svg>
