<svg width="512" height="512" viewBox="0 0 512 512" fill="none" xmlns="http://www.w3.org/2000/svg">
<circle cx="256" cy="256" r="239.5" stroke="#545454" stroke-width="33"/>
<path fill-rule="evenodd" clip-rule="evenodd" d="M354.369 362.4H156.631L111 408V149.6C111 124.52 131.534 104 156.631 104H354.369C379.466 104 400 124.52 400 149.6V316.8C400 341.88 379.466 362.4 354.369 362.4ZM270.751 210.503H240.322V294.185H270.751V210.503ZM270.751 172.466C270.751 180.869 263.939 187.681 255.537 187.681C247.134 187.681 240.322 180.869 240.322 172.466C240.322 164.063 247.134 157.251 255.537 157.251C263.939 157.251 270.751 164.063 270.751 172.466Z" fill="#545454"/>
</svg>
