<svg width="512" height="512" viewBox="0 0 512 512" fill="none" xmlns="http://www.w3.org/2000/svg">
<path d="M492.308 384H472.615V196.923C472.615 144.696 451.868 94.6077 414.938 57.6774C378.008 20.7472 327.92 0 275.692 0H236.308C184.08 0 133.992 20.7472 97.0621 57.6774C60.1318 94.6077 39.3846 144.696 39.3846 196.923V384H19.6923C14.4696 384 9.46077 386.075 5.76774 389.768C2.07472 393.461 0 398.47 0 403.692C0 408.915 2.07472 413.924 5.76774 417.617C9.46077 421.31 14.4696 423.385 19.6923 423.385H149.563C154.235 448.196 167.429 470.596 186.864 486.712C206.298 502.828 230.752 511.649 256 511.649C281.248 511.649 305.702 502.828 325.136 486.712C344.571 470.596 357.765 448.196 362.437 423.385H492.308C497.53 423.385 502.539 421.31 506.232 417.617C509.925 413.924 512 408.915 512 403.692C512 398.47 509.925 393.461 506.232 389.768C502.539 386.075 497.53 384 492.308 384ZM256 472.615C241.154 472.619 226.704 467.829 214.8 458.959C202.896 450.088 194.174 437.611 189.932 423.385H322.068C317.826 437.611 309.104 450.088 297.2 458.959C285.296 467.829 270.846 472.619 256 472.615V472.615ZM78.7692 384V196.923C78.7692 155.141 95.367 115.071 124.911 85.5266C154.455 55.9824 194.526 39.3846 236.308 39.3846H275.692C317.474 39.3846 357.545 55.9824 387.089 85.5266C416.633 115.071 433.231 155.141 433.231 196.923V384H78.7692Z" fill="#595959"/>
</svg>
