<svg width="512" height="512" viewBox="0 0 512 512" fill="none" xmlns="http://www.w3.org/2000/svg">
<path d="M339.5 179C339.5 201.146 330.703 222.384 315.043 238.043C299.384 253.703 278.146 262.5 256 262.5C233.854 262.5 212.616 253.703 196.957 238.043C181.297 222.384 172.5 201.146 172.5 179C172.5 156.854 181.297 135.616 196.957 119.957C212.616 104.297 233.854 95.5 256 95.5C278.146 95.5 299.384 104.297 315.043 119.957C330.703 135.616 339.5 156.854 339.5 179Z" stroke="#595959" stroke-width="25"/>
<path fill-rule="evenodd" clip-rule="evenodd" d="M0 256C0 188.105 26.9714 122.99 74.9807 74.9807C122.99 26.9714 188.105 0 256 0C323.895 0 389.01 26.9714 437.019 74.9807C485.029 122.99 512 188.105 512 256C512 323.895 485.029 389.01 437.019 437.019C389.01 485.029 323.895 512 256 512C188.105 512 122.99 485.029 74.9807 437.019C26.9714 389.01 0 323.895 0 256ZM256 32C213.817 32.0022 172.492 43.9156 136.781 66.3689C101.07 88.8222 72.425 120.903 54.1429 158.918C35.8607 196.934 28.6844 239.339 33.4399 281.253C38.1955 323.167 54.6897 362.887 81.024 395.84C102 407.5 153.76 476 256 476C358.24 476 404.642 428.793 430.976 395.84C457.31 362.887 473.804 323.167 478.56 281.253C483.316 239.339 476.139 196.934 457.857 158.918C439.575 120.903 410.93 88.8222 375.219 66.3689C339.508 43.9156 298.183 32.0022 256 32Z" fill="#595959"/>
<path d="M251 319C147.8 316.2 95.3333 369.5 82 396.5C105.5 424.5 177.8 489.7 251 490.5C342.5 491.5 421.5 420 430.5 396.5C417.5 374 380 322.5 251 319Z" stroke="#595959" stroke-width="32"/>
</svg>
