<svg width="512" height="512" viewBox="0 0 512 512" fill="none" xmlns="http://www.w3.org/2000/svg">
<path d="M228.706 508.236L222.353 432H216C155.859 432 104.824 411.036 62.8941 369.106C20.9647 327.177 0 276.141 0 216C0 155.859 20.9647 104.824 62.8941 62.8942C104.824 20.9647 155.859 0 216 0C246.071 0 274.125 5.60753 300.164 16.8226C326.219 28.0546 349.098 43.5134 368.801 63.1991C388.487 82.9017 403.937 105.772 415.152 131.811C426.384 157.866 432 185.93 432 216C432 247.765 426.816 278.259 416.448 307.483C406.063 336.706 391.875 363.812 373.883 388.8C355.875 413.789 334.487 436.447 309.719 456.777C284.934 477.106 257.929 494.259 228.706 508.236ZM215.365 355.13C222.565 355.13 228.706 352.589 233.788 347.506C238.871 342.424 241.412 336.283 241.412 329.083C241.412 321.883 238.871 315.741 233.788 310.659C228.706 305.577 222.565 303.036 215.365 303.036C208.165 303.036 202.024 305.577 196.941 310.659C191.859 315.741 189.318 321.883 189.318 329.083C189.318 336.283 191.859 342.424 196.941 347.506C202.024 352.589 208.165 355.13 215.365 355.13ZM196.941 274.447H235.059C235.059 261.741 236.329 252.847 238.871 247.765C241.412 242.683 249.459 233.365 263.012 219.812C270.635 212.188 276.988 203.93 282.071 195.035C287.153 186.141 289.694 176.612 289.694 166.447C289.694 144.847 282.392 128.643 267.789 117.834C253.169 107.043 235.906 101.647 216 101.647C197.365 101.647 181.694 106.831 168.988 117.199C156.282 127.584 147.388 140.188 142.306 155.012L177.882 168.988C180 161.788 184.024 154.69 189.953 147.693C195.882 140.714 204.565 137.224 216 137.224C227.435 137.224 236.016 140.4 241.742 146.753C247.451 153.106 250.306 160.094 250.306 167.718C250.306 174.918 248.188 181.372 243.953 187.082C239.718 192.808 234.635 198.635 228.706 204.565C213.882 217.271 204.887 227.325 201.719 234.729C198.534 242.149 196.941 255.388 196.941 274.447Z" fill="#545454"/>
</svg>
