<svg width="512" height="512" viewBox="0 0 512 512" fill="none" xmlns="http://www.w3.org/2000/svg">
<path d="M282.631 115.114H114.255V142.604H282.631V115.114Z" fill="#595959"/>
<path d="M344.61 121.006L329.867 105.338L309.847 124.175L345.892 162.484L397.21 100.701L376.064 83.1382L344.61 121.006Z" fill="#595959"/>
<path d="M282.631 201.02H114.255V228.51H282.631V201.02Z" fill="#595959"/>
<path d="M344.61 206.912L329.867 191.244L309.847 210.082L345.892 248.39L397.21 186.607L376.064 169.044L344.61 206.912Z" fill="#595959"/>
<path d="M282.631 286.927H114.255V314.417H282.631V286.927Z" fill="#595959"/>
<path d="M344.61 292.818L329.867 277.15L309.847 295.988L345.892 334.297L397.21 272.513L376.064 254.951L344.61 292.818Z" fill="#595959"/>
<path d="M282.631 372.833H114.255V400.322H282.631V372.833Z" fill="#595959"/>
<path d="M344.61 378.724L329.867 363.057L309.847 381.894L345.892 420.203L397.21 358.42L376.064 340.857L344.61 378.724Z" fill="#595959"/>
<path d="M454.443 39.5168C454.443 17.6915 436.751 0 414.926 0H97.0739C75.2486 0 57.5571 17.6915 57.5571 39.5168V472.483C57.5571 494.309 75.2486 512 97.0739 512H414.926C436.751 512 454.443 494.309 454.443 472.483V39.5168ZM426.953 472.483C426.953 479.125 421.568 484.51 414.926 484.51H97.0739C90.4316 484.51 85.0471 479.125 85.0471 472.483V39.5168C85.0471 32.8745 90.4316 27.4899 97.0739 27.4899H414.926C421.568 27.4899 426.953 32.8745 426.953 39.5168V472.483Z" fill="#595959"/>
</svg>
